<mxfile host="65bd71144e">
    <diagram id="A19D8fqMGL5lhhf09gSP" name="Page-1">
        <mxGraphModel dx="1066" dy="586" grid="1" gridSize="10" guides="1" tooltips="1" connect="1" arrows="1" fold="1" page="1" pageScale="1" pageWidth="850" pageHeight="1100" math="0" shadow="0">
            <root>
                <mxCell id="0"/>
                <mxCell id="1" parent="0"/>
                <mxCell id="19" value="" style="verticalLabelPosition=bottom;verticalAlign=top;html=1;shadow=0;dashed=0;strokeWidth=1;shape=mxgraph.android.phone2;strokeColor=#c0c0c0;" parent="1" vertex="1">
                    <mxGeometry x="170" y="20" width="500" height="1000" as="geometry"/>
                </mxCell>
                <mxCell id="20" value="" style="verticalLabelPosition=bottom;verticalAlign=top;html=1;shape=mxgraph.basic.patternFillRect;fillStyle=diagRev;step=5;fillStrokeWidth=0.2;fillStrokeColor=#dddddd;" parent="1" vertex="1">
                    <mxGeometry x="210" y="290" width="120" height="60" as="geometry"/>
                </mxCell>
                <mxCell id="21" value="" style="verticalLabelPosition=bottom;verticalAlign=top;html=1;shape=mxgraph.basic.patternFillRect;fillStyle=diagRev;step=5;fillStrokeWidth=0.2;fillStrokeColor=#dddddd;" parent="1" vertex="1">
                    <mxGeometry x="210" y="290" width="120" height="60" as="geometry"/>
                </mxCell>
                <mxCell id="22" value="" style="verticalLabelPosition=bottom;verticalAlign=top;html=1;shape=mxgraph.basic.patternFillRect;fillStyle=diag;step=5;fillStrokeWidth=0.2;fillStrokeColor=#dddddd;" parent="1" vertex="1">
                    <mxGeometry x="210" y="290" width="120" height="60" as="geometry"/>
                </mxCell>
                <mxCell id="24" value="" style="strokeWidth=1;html=1;shadow=0;dashed=0;shape=mxgraph.android.statusBar;align=center;fillColor=#000000;strokeColor=#ffffff;fontColor=#ffffff;fontSize=10;sketch=0;fontFamily=Tahoma;movable=0;resizable=0;rotatable=0;deletable=0;editable=0;connectable=0;" parent="1" vertex="1">
                    <mxGeometry x="191" y="110" width="459" height="30" as="geometry"/>
                </mxCell>
                <mxCell id="23" value="" style="verticalLabelPosition=bottom;verticalAlign=top;html=1;shape=mxgraph.basic.rect;fillColor2=none;strokeWidth=1;size=20;indent=5;movable=1;resizable=1;rotatable=1;deletable=1;editable=1;connectable=1;strokeColor=#666666;fillColor=#FFFFFF;fontColor=#333333;" parent="1" vertex="1">
                    <mxGeometry x="190" y="140" width="462" height="790" as="geometry"/>
                </mxCell>
                <mxCell id="64" value="" style="rounded=0;whiteSpace=wrap;html=1;fillColor=#1ba1e2;strokeColor=#006EAF;shadow=1;movable=1;resizable=1;rotatable=1;deletable=1;editable=1;connectable=1;fontColor=#ffffff;" parent="1" vertex="1">
                    <mxGeometry x="190.5" y="140" width="461" height="270" as="geometry"/>
                </mxCell>
                <mxCell id="66" value="&lt;b style=&quot;color: rgb(230, 230, 230); font-size: 23px;&quot;&gt;Medan&lt;/b&gt;" style="text;html=1;strokeColor=none;fillColor=none;align=center;verticalAlign=middle;whiteSpace=wrap;rounded=0;" parent="1" vertex="1">
                    <mxGeometry x="224" y="350" width="80" height="30" as="geometry"/>
                </mxCell>
                <mxCell id="70" value="" style="shape=image;verticalLabelPosition=bottom;labelBackgroundColor=none;verticalAlign=top;aspect=fixed;imageAspect=0;image=data:image/png,iVBORw0KGgoAAAANSUhEUgAAAggAAAEdCAYAAABpD5/WAAAAAXNSR0IArs4c6QAAIABJREFUeF7sXQl4VcX1P2fm3rflJWFfXVARFUFFkVbbKtYFSN5LQgJPQBYR61a12vq32kXRWttatXWpFi0iqxDI8pZEcCl2c2WxLqi4i+xLtrffO3P+37zk0RACeQlJCPDm+/w+zJs7c+bMXc6c5fdDSLe0Bo5BDcybt9oGUG3L7G6ZGZf43wxNlgJIy15VIMqoAQvjkn0ai0EJRs09s2bl1x2DqkovOa2BtAaOUQ3gMbru9LKPMQ08/nildcCJ4k9hk709vSj3+QWlvoszNPYcB7kzGGeVTiv9GgG0pmqJGPAeQ/gvY+AyBSxABq9+9O7aitmzZ8tjTIXp5aY1kNbAMaaBtIFwjG34sbBcIkrc14tK/SN62rUPg0G7LrTwy1ZNns0QNue7XEOWewNrrRxGqH6qMx1AMU1/kwTxmMn+GzHhuq83vPNe2lA4Fu6o9BrTGjg2NZA2EI7NfT8qVz232HuaXeO32zS6XEj8wMJoWJ2BZTHCz7rp8lKdwQRJEIyY8LpdgwsRwXkIiohHBb5cvZ0811/vDh/COOlL0xpIayCtgS6pgbSB0CW3JS1USxpQXoLFpQEPCfnuNE/+J3P8fkcvwh06kp0AWOPrpQQDGcYRKKOlcVvzOxHEJUCVIXHNdgsrujUnJ9aa61Ppq0IjvJ9dz9QiozjScKcmz4qYGCaAd/cY4WU/9niCqYyT7pPWQFoDaQ20VgNpA6G1Gkv37xIaeHpBaZ8B3SxPmwijonG86qqi3H89v7zy8m5WUY4I9k4WcnO+231ce8w5Z84cPaPX8aOuKhz3+qKyVWOA4juQWL7TSr8AAE09sMmwhyHgW0B8jTMqMU2o3mPY1l/vubymPeRIj9F1NKDuiX4DBtyucz4vJydnZ9eRrGtIMm/ePFvP3r2nr1uz5m/pkF/77knaQGhffaZH6wQNLCj2nQSMj7HrNFhDuo4BFufnua5d4a0YqTH5bwSwdoIYe6eImbjRIHhON8MPezwe0Yq5cfbs2Yln8PSzR51kkhhr45CrMxhbF8N5hsSlGbr8JUeIahzGtDSuKbAmTlQwebz7tZb6pn/vuhrwer2ZMU3L8OTmblNSer3eicDYMiJaywCK1mVmbpl9ySVm111B50pWWVmZRUQn5ubmvt+5Mx/9s6UNhKN/j4+qFS4OBLpTFB7OstI1ycTCOLGCD9e94z/j7JFv2DQadZgWbIKUPfLzUy+FXFRSeRxn9CBEzbscTvaZICCO4EjKrx5OIamOMcxsbk1EuDlo4hKGUGVhdK3GyBk1cdng4/v9bOTIkcZh0kN62kPUgNfvnw+In+W7XL/xer0DgLFNkAybEUlE/CTP7R56iNOkL09roEUNpA2EFlWU7tAVNPC3FypH2HR5pk2jWRGBr2dZ6C710pREsCPEv2s3tA+c2bGdnGFnhxcSLv+4wOAH8XDP2R5PvLG+VG7EdS5XBBH3K5RQeRQLlgcGRO1QZY3gZXadfmXT4PxW6NtERJMkxU0Cf1zgu4iUa+PQryDPfUYrxkl37UIaUPdF8n4pKysbxDTti4bIUlLKulgkMsCTzj/pQrt2dIqSNhCOzn09oldVXFzM0Wp/iQOKwnzXFWoxjy+qzDouS3zGAHoi7pOESNVx7pleOK7khdLAb50WvEtI2skY9OloJaiHxyD8Wpp4c50AsHE614r4DeN0adiAjQ6NpjOG/YOGnG0K+HjGxLzAktLAfRk6/bA2Bo9wJrMtTJvNmcwkgChHGNgeMiubaWuEF/bE4JutDHm0x/TpMdpRA6tXr7bVBoNvAsDZjYdFgM0IMNU0zU2MMQS7PZx/xRVb2nHq9FBpDSQOP+mW1kCnamBBaeAMLmQu53y3iFD5VVe5qhoLoE5Qxd6Kx8Im/X3mBHe5+m1ZmX+2IfkHTotYgLBvEqIkklGDzQsJ7U6HJs6zafQrjnRRey+KCLYT0BZTMgFIISGx3BSwy6rRxVETQtlW+ElTNwERiZDBnkakE7aZkUnH6Y5XbDpdGIyxHwk0v9aR59g1uq29ZVXQDlLiByHJb586ftyrHTD+UTckEbGKiorTiOhrt7u+dLXhb9ku1773aGctPpGg2L//l4A4YK8XAfErQHyChLgHESOAuBGIziQhbnj33XdLj+ZEvSTGSXMeuc7ak2NpnrSBcCztdgeudVFxxXCrlU43TTyTazLEAEfuCMINNzX5+Ce8AxbHezqnoQwBogLnevJd1zYVbdGiyqypU3Nq1d/nzPed0K8Hex+ALASoIdB+iIcAYO6Ms8HZFjY4HKM9dm6ei8jG1MXhvz1sdB8icAKQTL1ZGoCUWqsOIvhYEvzLjEVuVCfzJ+eX9hzYXd/GGZp1Mfyt0yJ/03TMiAkPMcDBAmT55AL3omJvxX+snC4QhFu/ioZPOd7qGGdlVHIgoKbWyrh/f5KGZM9PyHfNOvSxju4RVq9e7awLheYasdhtRUVFW9Vq/X6/ygmZEIlEFk+cOFHF/9u8VeV+/3SU8vP8/Pz/pKrJyspKq0E0HAHOA6IriKg7IX6ARLfsHQPxcyA6RUW6dM6PS1Y6lJaWXmDq+jcet3tzqvN1xX5lfv8VKMRHBQUF3/p8vuMl4lJE3IgAe4hokCR6lhGRlPLj8ePHf+X1+68Czr9C07xUIqrExRwgqkOiP+Tn52/vimvsqjKlDYSuujNHgFzFxcWWiRMnGuqlWVweCCDQcAuj4wCRSUJza5QPu8kz7pPGS1Enouy+A/9l5/Qd9fewAWVxyb6ZMSH3QKdonFdccWsPu/zzwVSCALt2RfjNPR1iqSFgm2Hi9dl2tioi5cBwBAZqXI4IGZz3dsgHAcDWWvWiOpEThAyJj08scP1SXb+weOVgp834AIH0oMFuybTQ4wDAG49tCHzLwmGUSfCIjnSvkBBABpeow2nYwHc459OtzPy4tfI06q8+WAd7jmMxAeWeAvekQ5jjmLi0tLS0J9f1ySZjfhEKfds4PLN69WqtLhj0aZzPaGupodfrLTRNc21RUdHXrVFomd9/KQMoAwCVrLqRI14riP7ZaAxV0ZAwmono3ny3+zdlZWW9ua6XAMCpAPB0jLE5EArtPNJCTsqY9wUC6iN/JiDeRLoewHj8MwCwcMThkihAACeqtSPi7Xku15+9Xu8IYOx1qK9m2vtsIMBreW63evbSLUUNpA2EFBWV7ravBspefHEQF+bb1XH84fRC1wfqQX7iiRctPQfQDRlW+WdD4PsUzx3h8eA+ZX+zZ89mg4eeV5jlgOXUcBYzCb9+f13G4Nmz9y/desH70gAnj2+UdFCQI7EnjNc5bfQbCwPligUFYlRnsFuzrfIpkhAiAMEY2IhabxyYAvdEJfwYTPzYBPy+VZfDJ413XV/m97/HAIcBJKCdD/6hRjAJMAQEDmVQ1MuIVfHoSf3A8sXHVg4npXqP1Vc3oGEQPGDnNDcYh1E6h9sJ4QwNkRsC/hmTqHGid1EXT/XLytpxSbosrkX1lgYCwzSAnxmx2C9OPPHEXY0rQbx+vzIsVWLsvxnA2GQIosVB26GDerZeeuml3rF4/G0CeFUSrWKIy5obGgFeNeLxq08//fQdn3/xhfJMjWuogFDgWl8gwPP5bvej7SBWpwzhq6iYRlLOazC8VQJwDQJ8Q/UelUXI2AlEe8OJu3XOz1AGXPHKlT00IXpxKdX6zwKATxjAk525b52ioA6eJG0gdLCCj+Thl5RWXG7h9CAH2h02ca1Fg8FSwttXjnc9UlzsH8itVCKImRYOvaWEGAHVSMIAAfNHa/nX06ePCTVe/9JS3102nU2JmLjBockrk79Jgt0xgfdNGu96QnkYrr/++r0lesXFlb2FTk9YGP1QY9S7OX1Kgk21Bs7I1qmiEUiSrIqye3va5W9kG5zChoSPGcIbMeJPhCHrM0u8eniGlXwcoaeSQRB8yjFxOmtzI6JI1GALBdIApw6ulgYSErabhK8bAtZzRMPCaDwwymIInxsm2BlSMUq+unt3xxfbamuHmybi5yL6QbKyYs7Clf2vmzpm26G4yVuS8Uj+3efzXS0BbmcA91it1nU1NTVbLDbbjwFxFyPaRoiVSDQ+Go2+dDhO4sooN+rqtticzkullAYSLQWovx/3aYjf6oydGxPiTAawusmvQcn5OeNzcj6vrKzs3VZvSEfv86pVq/pEo9F+WVlZG+uCwTepSZJmw/wRIHqJAIYhYg8CeGd7//6u69Mlvu22PWkDod1UefQMtHB54AcZFriNqw/Qvu5r0yS8tyjPpU5TsGB5xYPdbPIuagD3iwsoj5lYGtq9eVnjj3xSM0u9/p9aEL/DgQoB92VODBrsJ1KQ3W6hWVu+5sNvvbUetlgZDN36DMg1TAhnWKGUITQLlywJ3ombGLPp9P3Ghgdr+KCnujtEtEUAf23X1m+vvv76682/FVeM6Walx3RGQ1Ido7X9DkYW1XismEnvcMYkRzq/SSUHEGBUEr1XF+c3aChrnBb6XNlFoTieEhOsrrtD3rAnhDvNU/rOfeWLL+Ty1gE6tXZJXb6/3+93u91uf1LQcr9/CgO4hABqgchJAJ9aNO2JuGnehojDAWAIATyU7XSWdxVvTCAQOEMCTCIilS+hTsrKpX4JEf02OzPzwZpw+DyUUlVA7NMkwPjxbne5LxD4GxAxIHokLy/vw660aSr3Im6a9zCADyRje1DKZYCYvb8thCSJNjPEOjMeH11YWLijK63jSJclbSAc6TvYDvI/V1zZ28awP2pymI1RPkNyA4BdAn7NgBLxPUEQrImyCzMgtKHKtHcf0t9Zva02lGNDuZghOoEgXGOwB6YX5f6usUgqCxwR91Ijzy+tGGIB+pGFwwSNJcbGuMTnYsQecXLxoboha+PomlbkqlDjPL/cf1V3GyxS/67PL6xnamzSRFzCSzqC+nD2aqtKTIKP4nExc/KEgrcSBlBpYFi2TuuT8d22jtvR16n8iJiEu0wBJ3HE95DBKVZOPxMSdoXrcEg1h35ODa/VAXbqOn0XCYYR0vOmhH8fq6iLvsrKi6PB4LsejycBTe3z+cZJxMkM8SKS8i1ibJeFsZ8aQixCRJeQcoYRjZYcDs9BqvePejb8fv/xeXl536hrvF7vYGBsYyMjX1UL+davXXuNqnRQCcMA0Nvj8SQQG7taUxDKPXr2XBWLRn9otdsXAeKVKi7XIKcEREFES6uczuuywuG+Rbm5rcrt6Grr7YrypA2ErrgrnSeTSgAck2Whv+q83hBIeuOFxK/CJj2dZYE/qD9XRfFug7RnbU5pyl1cTJt2RVh9sJ8rrpxg0+gCYcLKaZ7cl5uKvrQ88BcWD9+qXqyzidhQ38pTozXs2+OPt8RqgsFtRNBtT0ie4LBbvpPBzVI1vwQQu4P8/Gsn56wv8fpe0xhe3JxKTAGbOIc+EROXI8GnDp3uoPpErpSaIeFLBNA1BseF47gmEjcLr5lcoFDrQL08pW7/xqFhfwmEXf1B2c8LQWDWGZrHYLbVWSz0ZV2cftLNCvMbL0RdUxXjt8yYkPNkSgo7gjupJMM9e/YMFD167O4NEK0NBt8moqeyMzOfVx6BioqKE4UQkwjxBwCwQQLsAtN8BnX9ViT6tYp9g5RnHklZ8ApDoaaubicqAx7gj3t27bpn5syZUbWNKhfo3nvvVYhMbQjAHZ4bwe/3XyEBfgwA6gADwNjP83Nz/3h4pDk2Zu3q771jYxcO0yoXLA0Mc9jhHY2RIgFKZEEnSg9N/LqmTrusR7b5OhF9JSRuCnXLuEpsC12aZadHqrZvGd5cCKHpMhT9ck8b+8/2rVv6q/5PlQRO7qfTGob436oorOxpo99HTHj7o/86v3fqWcEnMi1wg0pcFBJ218bo519tWDdv6Dnnr7dyqZKM9mmJxEHB7+bM8JiSBey6/ImGOOigqkSkmEkbBeCXSJBhSqhCgqcsnH5YJ+1zrim6TCHW7W0K1llE6QIrgzttOjRrpBymrTvotKE4rhBC3K1ZeH8bo/kM4SQEJKpPptynIUBwndPZ/WjG9leligSwmCABRPURMPYCCKHgjHvYLJaTx4wZs6nM5ytCxCyUchUiKlf9OALwAOd3oBC7NU3bknOIbJ2lq1b14Ybh0hnzd1bs3+fzXUeM/cSm66PGjKnPCVLVRza7XeGL2BFgCef8Rc55VTgWm1jgds/vykaDMtytDsdUlXDJpPw2Ly/vy674DB4tMqUNhKNlJ9uwDnWKOO2cCwaSMNx2ne5hCI7dEXxYA7kQNeaxcTg3IuK3WMD625jAz6ZPGPfQ8uXLWVM36+zZq7XmKhBKynzTGMf7CtyuU5IvnUAg0L0mBt3DMRFyOrQJwoILp+bk1C4u8T+RYYGb1TJiJi4Km3zuzInjXltSWvFQhkX+X9K10XBSpqiBj9h0Uv2VYaP+a6ncT8UoSEjaDogf7QRyHQgCubEqn1/uv7S7HX8PRCPboOJOv0RKWB8XuMWqyTMRMRHCaU6IRCUEQV1Msp9OKsid28h51Okyd/SEPr9/AQFMJSE8yPkMgAScdXdk7Gp3To6qqSev13uRlHIzs1huASm7NWS+b962ZUvhwIEDT8vNzf2wPT6cypMxevRo0R5jpaI35bW74KWX7EnjQF0TCASGCaL/NuJ3mLt+3bobzjvvvAKXy1XSVLbi4mK7x+OJpDLf4eij5LPa7apK4S63273kcMhwtM6ZNhCO1p1txboeX1R5XG87fA+Qetk1YQ+bfHAojs/3tNMkU8oLFT9AXOK3oRh5ZnjcbySHXrBgVYY9K/4nIBjSq5vzsqbJW0tK/Rcgw4smF7hUmOJgDReteHG6rpnnxgXbEBaWpUna4jlz1ujd+229SUjWzYIyJ0b4LweHiQqZsBVLTHSVhHWhOM6zatSH4uGpLcWT581bbXN0D82zcTqiMARaSnpUllTEwIeB2FuTi3JWtFaP7dlffTB37txJLe3FocypCI8454OIaIBU9fQAs4noDwqF0ERcWORyfVHu890FiB9aOP9HHOA4FMKFRMtNznUu5SOxSKTI04Rn41BkOpzX+isqbpBSPt0gQzUpjAWirYwx9Ux9mpmR8eCePXt6a1arSny8EYlOFIgPEsArhS7XB4dT9gPN7Q0ErgGivmoPkegeQvxa4R6IjIyF4y+5pLorytxamZTnZ8OGDabKH2nM19HacVrTP20gtEZbR3Hfpcv9V9htUGYSvLnDNCY7pOWKblaav/eUUQ8UhMGodvo0z7hPlvj9vTIAPkWEbrUxdtXUotx9LPfWnJTUja9ZbTs0htmJzHsDfhbh8tlZTZgRlXtxm9Op9Y3J/2gMMjVGqsww5XtYdTQlfLJzYP/hTUuhHi0utvfmjh9maBgXQJk1Me01py7ucWhyP/jkI/U2IKI4KHIngk+DMbxl2kTXvw73WlS2uinlz6Ph8GPJhMFUZGrrC9Lr9/8fqooEKdVJOQsQ70SAyW63+9Pm5lX3XEcaL6ms9WB91qxZo3+xa1emZ+zYPamO5QsElhDR5Ib+e0GWGv7/Q5DyJmCsGAD6NhkzBIi3AtF3Y5F6NNFU52yvfuXl5RdqmlYbDoc/am5+XyDwC1XF0Wi+p9c7nbceiSG0BuM5w+p0DgPTVOW2lwPAbpXHDQoXBvFNxfRJRK8KTfusaOzYrW15Lg7mIUr55dpeG5wep2tq4G/FxT04ZIyC3o7XMmuCc3UOVxBAD0zSzNaLLatMy6irx49Zu2DVqoysuPENIGWGY3jblCLXU8mVqZu01Bd4NSbYS1MKc3+vYsC1AkaH45bt9rj4NAmh/KzX2zc7FtvVu3dv3LlzZwZqth9IwNuBwRemiD+AFkuoDiB8fQMu/gpv5QiNicdiJn1dHbUs7ZNhLGUIKgGrxaYMDyFxzZ4ITN/88ZpPBp199klWpp+uESigo5GM4bk6o5OToQwBaHAg/YjJ4GpRAwnwqFDIxN/oZvjhw/FybyIirl692lobDN6/bcuWX6ocFW8gMEcCPENE5ntr175/gJMS+iorx0rTPKEgL29OCsver0vyJdqQ9T8IEbcfqQA6qgz4uOOO65mbm7tfJYJ67rZs2WI0zRcq9/luRcTHDqC7d4XFMobH44sB4LJm+tShQgsluh0RS91u96627EFbr0kkXgaDhSjlB/n5+e81HqcBdfFPAPCxlBIBMUgA33TPzPxPZ5emttWw9Pl83wVEZeTogDgMAawE0Cz+S+O1IybKnEsR4GT1oAOiShjfnaAFJQqBlAoPw8E535TkFVHIocxiuQuk/BEytoyk3IxEc0zTZEmo8bSBkMKdqsptktm/KXQ/YrssKq4c6rSZbwlgXxmCNtk1UBbrPrwHVRG86SsIzz1Nd7xh5/IcCSy6PcKu2P7R228kSWJUaWOZP1AFCEsK3e4b55W9OChbEyURAz4XEv8RlOYrN3nyP5nzfOUpvXqIlxHQrInij2fWV0Hs9ZAvL/P/UwJmegpyz1X3eVmZfzTTYLUE2FNr2Idk69FvESgl2GRJSOEonH+Vx7V2WZn/TqtGv0FAyxG7WW0TvDoEcOqUTn6pNyeq1+vNBMYeQYD+hPgZKehgUoYa60tEMwHgNSL6OzL2LplmrKCg4BU1jjoxb926daTL5Xqzs+L4bVP14b3K7/cPFAB/396//7Cm3jKv19sXGVMAQ/sl/wJREDDxXBz42VCeKMZKQMrt+Xl5tx/ele47++zZs7XZs2crr0jKLWFY+HyXEeIwwXnpoZRLqlN/bW3teOL8AhTiYV3Xgzk59ZwyB2vqFL9hw4bY0KFDHVabbQMgHt/SNa34PVEchgpTAmAoABRwgE+lykNhTANljPyvmUh0ThIXI20gNChGJfOcUV4xW0MaExXojTPjKavUr7brcDMCddsdsp41a/LRTae6YEXFd7Kt+wOrJO8dSRCPmnCzkWFZwoLmLzMt8m71W8yAMl2DoaZkX0/Izxn7XHFlYS+HXGZIeEkSoiFgRYYuH0RERcG80yDcUuTOHTGveOUV3e3mYgVmJIkiuyPalGuvzEmwNy4uCZzMEPMFw1VTC3I2qL/NX1E5ItsqVA4ERQWus3O68CAPiQzFoVTncBkB7JJMv3JS3th1C0tW9s/QjS84th5yuRUPZJfrKgg3R0mcN+Uwk9WocJLD4TglIyPjy9pQ6BWgBCeHRkRBBNgGiIObKG9+LBKZ1QU8Hl1uT8v9/lWo6z/OHztWcRPs01QysGEY2Yq8SP3bJCoocLsVZHGi+f3+XoS4nCgBAJaAJ29lU9TSMQYwrCt6XxIf6mDwBkTUTCG+YYw5GaKNpDwPEU+RAKaizCaizwHgTmwAYSIAA6R8viA//7pU9VFSUXGiRnQpAXycn5v7RmVlZd+cnJzt9913X+L72hK7ZqnffzYHUNwR38YikVEWm+0nDDEvASfdMa2KAG5kAOcQwJ2NwsiJ2RBxzro1a25Sch/TBsKiksrjiEQBMUsxF8b3HVYqZgi8IcM7zhCUZaUKhWOGxJUfrl9T2NJmd8x+tn3UeYv9p1rt7JSoKSIEGM+w4IigwIpri5oHFZm71H92lg3nakjHC4LtGiOVDc8aS6AgglEVRGL96V3RLXNEFjZg8aRC99T5JZUTsnWxVBJ+wpBOiku2SuP0PQ71UMkxASWeAvcEZbmX+QIfcQanqb/XxNkvRO2OPw0aNMjcsiWUOWVKbvW8kspR2bp8gIDsAGyzxiAvFa+BJKjaEbWd1B2qVPa1aPyBeW55RX5Pm1QwtSl5H9qu/a5zZSjG7p4yIff3nS1RZWVllmEYfYCxsdu2bJnT68QTe2mG8W8AeJUArAgwReHkE8A2BPguQBOkTCnH5efnr+xsuY+E+ZQ3pTFfRJNnFMv9/kIOkABNQsQtbrd7c1lZ2SDUNBWjH4wAJ6h3GzaQHbVpzYj5+S6Xr03XduBFqkLrnPPOy2dEFxLiz5rkKiksiIcVSycoEDcidapONkWt/fNYOBxInugnTpyoMF/2gr2pjsoAqQkGr0CAGwESnlZVGqv6vC1Nc7IyzFJdnpJ1xHnnqVBNWSwSuU69qxpKc5dSEvMh1cFS77ddGXcS4DUEOIUavwsRDTLN8woKCt4/Jg2E+Usrhjjt9AADcnGONklk4MFcagBgSFyHQK/E4+j95MPcN2fP3veGSX1fOrdnic+/giMUJWPrjAEYAl8PxuTkGZ56xLWm7bni8qEZuvYrAnDYOI3BFE7bUcF+Uhu2LvvRlEt3zCv2Dutm4/9hCJkNiYHbGUIvRbmswgPVMcv3Zk4Y87EK3WR073W/hljIGSUwDKTEIKHiZqAvQcLbdgvcnepNquicgYAMgSUhAx662uNa29z6VHxQ6I4lDo08nbsbh2e2qGB/ubIgN1FC2plNubKBsX/U7wup+vqbkglwBBBFRD+Z5iOM8/tl/QdLVRj8b7uJFq1ft27GkWaUd6aODzaXitdfcskl0RKf73yNsYti4fATFotlMHJeTADq5V940FBCywuJCYDvFLrdqmSyzc3n853UEXgGvkDgNiK6BgAUVHbjJhoMg6CCqmYAqxr9mCyX9iHiVpWQKQFCQFRWkJenjAoo8/k8HHE2AZxxgEVHVVw/Pz8/gQDbtJWXlw+N6/oeu5Rq7H4Jpsp6Q6MaGbsDpfwkEom827t3b14bDD4LAB1SRUUAHzXkmCmiuGRISSWe/lc6nZeq6o9U371t3vyudGFx8WonWUNFVqSnG5H6tEpESbArGJXfn+bJ34fGuFWDdFJnVaaX2T30L53vW8OvNj0uIBQ12QOMybgZtMxpTKy0qKRiitNKz2Oj2BQRVAPQbgAMxSWihdEAQMhCgBqFZCgBX7My+dTmr/nAPcPt4sSdwdsZ4300FN91WhNu474kZTQYZzf2cLCl48aNiz+/NDB55mT3kmeXePvarfroLKtYqtB81EciKuBNK8MTEal/quqSRME9cbpk1oT8Nc2mpOpyAAAgAElEQVRdoyoVBnDbMGbBLbVR7fTeNlM9wMqrsQ9Fc6rzHQn94ia+EYSMnKsLRtd0dszeGwjcD0Q/VV4BBPiUAE5GxPuJKEntbQEphzDGqgXiAw33m3phjgaAxyTAG+Pd7lePBD13RRlLS0v76LqeLQH+gABxYuxhkvImBFA5Hh8TUf+ka71N8iNuXL9mzRkjR47M1jTNNnbsWMUJ0aqmkiz79e9fKjj/GQOwimh0l9Vq7WYAOCRj20UwuLUt4aWGU7kCvYpLKb93gHV+oQieEGAvcVxj4YlINvKe7pCIOYzoWgC4IYVFCquu9xnbUF2i5Bk5cuQgQZRDAPcBUbemntnGYyLi88oIEVI+RQA5KczXXl3e0xibkZub+64a8JgxEFTsk1sdGzRGpxyKJg2J2/aE5GXXTela5CZN16TAi4aeE3rBxmnCwTLx68MpdPv4vLw/Nx5jyQr/6VYdJkVMdGocaiNVGQ/NnHlJAqZVNRUeWPjSS47pDehs80tWXhaLY/i6yWNULC3RSrwV83UmpydN8lAc/xOS+J9vP3zn7qFDh2ItZedce+WYBGFOaUXF5VzKl2R9pv3vSELPaRNcP11UGrjGzulJnYE9sY6DFPkLgs1AyHZG2A+un5SjYov7tSfnl/bUzzyhFjZuzdVQftsjg/tYK4yQQ7l3OvtapaqQCZdogDdOHO9q9iXYkTJ5vd4RwJg6/ag4Z/K+UeWFZysXd8Of1Ev4cUU01RAjb3aHVZxW49yel5OzH/lQR67hSB07EAicLIhUbkLiHa8QE6k+nNNuDQHmIcAKCVCBiHs0xga0Fm3SW1ExEohe35soR7QG6smxlMteyf2maRiuwsJCVd7X6qbwERDgcTo4XXyrx03lAmSsINPheLU2FFLAXDMQYBQAnH4APplUhuycPkSKUrswLy/v70edgVBc/Lqd9D1PWzldHhPwGCD+F4FusnC4EKHtRD7JnVFY9nUxNhMkVHEuxKTCvEDn7Frqsyws8Z3r0PEZDVNLcokJ+pWnIK9x7XDqkx2kZ3FZYLVVo9HqJgsbsNoA9jsN5SwLhwsYoGFE2QUeT87OhDFzdmiGTaO/KaTlmMRCT/7/4pp/KV7t7K6HCmxIt8RI+4UQ4rtWDa4zJWywaXSRQoBMimESfhqq1kc0pZpO/r7C5zvTgvgGAThV+U8DTn27rLcrDrI7KE6I8OyqH3suCXa2fMXFxf0sNls+MnYvUL0nSGExIKJi3DturzyIBhCVCMO4uemHwOfzqQqWOuXliTBW7WmmnK+z13UkzFdcWdnbKoQq+VNhBHtKSKOtWJhK5mNEF5Guh8E0n0fEQVHGTvPk5OxsbhiFd7Fp0ybZtOQy4UEYMECVVE484PREpSTlbQUF9TwprWkqjNmtZ8+JDPE+AFCu9E5rKvEWFGw3EUfElxvKay89EjyWRPRwQV6ewgw5elpxRUU/NOSfrBwmdWT9uoqpqtiNSoTbXMdG3HxV12ERe2ZpxZBMK83J0Gh0qjoQAI8Vut1Jt2+73RBPzn+lZ7/s2GCG8qydEf53pyYHOyzwKMP6pCAzTqOKivLeWV7uf9bCYVbytCMIXopJ/mzt9k3eJi+UvafL2atXaz2+jHQf0FOWcaThpsRnDBN3x+p2/PlgJanziiv6ZejyIZsGCs/9qLr/m26cWlw0wvsoI6zdNrUVA3m93ksk4nEc8WaqPz2pJC5FFe4CAEXdm3xhL0ZEVebokkSvF+Tl7U2mLC4u7mG1WvUjiSQpqaJFlZVZ2UKoxMt1nYUX0JC9rwiNfgUAPTvQS1yrMXaaytZ/8cUXBwoh9kjE78TC4f8oxMnSQGAYkzI/kVeCOACIziHEawvc7hWNkytVeZ/D4RgqiFQegJK3uabg0Wd9zdgrt6bAh6HGnDhxYsxfUXEtEP1ChREaMB0UhPbhbMoDqzwjXf+9g7gBpfxj1xe0Fdv53FLfuT0zUN0M+2Tdt2KIVnc1BG01Jb+Rmfj64XoRK6GVdbqorPIyK5P3Wzh8t6WNpfoyH01I/DwuMbDbcPyqI06Z6oQgs04YeOPkcV8tK6+43cLkfYnkRQSqIzgtKuW2Hsi2NAU8kgRhIfHdmIEPWTVwEEIWB9ErKvh2IrlFZzwEJn1CnM6IEo5AoA+nT3A1TjY64F4+uzRwRjcblVk4qBKvllTV6nuiq1xgSNhds0ueNGtWvjqBH46G5T7fQ0j0BnD+EBCdzBEHCyGuAs4nkZRDVXa4GY+fyC2Wi5Doj8jY3wTR+gKXy9vZORPtqSDfypVnkmGosN1lgLhBxOMXtdVNrpJqdZvtCkbUJy8vb8GB9NKALaFyNpRLu0ObKoUjIZYgY4+qUkGG+KBEvBCJrpBEbwHi/YoptYkQjzKANyTAnwHxDhBCIOeXEtH1KtJ5kJN1PWIj0Yvr3e782Q0VBQ3G0K0g5bP5DairvkBAyXM9EKkqgjoC+BciqvFTZnntUMUd/sFjQLQeEFXlWHelI0BcqUIwCDC2QbzE91Pt61H1clSu6mEjgpt0lsgM7bSmwg6mxJ2hGBRMm+jaG4PvLAEer6y09ozIqZmWhIv+gI0ItwLInWGTvcWBhE1X7IkUBEDnrqh+6rWe/eupk4PNX+E968sPsjYMHlozxGLnNRCJbEsleWheccU5GtAJ0zwu3/PLK6+IC7L0cYhnJKDdjNoGRTByYTcbVh5MVwmKYmrExoQJxkcIGXTBwB6Za77aFbp55kTXPjkUBxpv9mxip58VeMehw7mpelg6ax/bcx5VvhaK43O6sN7t8Vxe055jt2asBuCYQYJzXVPZ2Iy9SUKUJWPMypGkMXa8QgL0+v0rCeCHCPBK7OSTCzxnnmkcqSRS3kDgKSBSmemJdy0yNikvN1fBF7epqVP3pk2bMsaPH38gXgEs8/vvYvUemg5vRPQjQtylQQJxVdXTX5CcFAG+IYBWc6Uc9B1Qn0OhQHweikajHyffPV6//14AmAr1lQiZgPhDIPpf+KrDNXHETWBIonxEnKwgxlWOR57brSjOodzvf0ZVVHCAvwgAK1Mh2CNueS0IvKzM/xu7Dr9SaJOd3QjQiBjwR8ZR1kVx5bVX5vynM2RYUlbxBzuXdzBs3nOiTut7InSnxbC8qGcYuRYGCsHDllRRTODKiIBHYgJ3Xeepz15t3FT1RzS6ibizx+xMne5IwBYTfPrtV3z4rbfmxJJ9Vabu0KFDNafTicFgMEOIbratvLrqpw1McCosAP/4h1QJiuq0oFyR81asOt2pxSutGpzUUKaYsvdHEG7bGbWeniR2SlXXKi7Zo1evzxBggEG4iwE5FXBSAqA0sbQjv6ohJnBjtHbPuZz3sNjtNlZYeFmbkrxS1WlL/VQM2hCiVhXkA5G6x1SI4VQgejsWjX5PvfC9lZUjQIh1ymgAxG8JYHqB6/DzRbS0tka/K/hoXh0Mfp8BqLh6EoBIMIA8t9t9UEP4YPMoWFyu6y+tX7v2/KZln8p76PX7f4eIP2+FrIfS9TO71XpxLBZTRE+PEYDK7O/whkR+RcIEUj6Zn19fReb1ek8Dxj7u8MmPngkU0dNNxw0Y8NzmzZu/r2DNCwoKDsjJctQZCItKfOdnWfDtw2Af7HMLSYLY5ir7wJtndMKLmQiXl1cssGqk4up7m9rc2jg+IQkqdAa3OHRS7GzNfICxFoEyJUDVt3sM5XaHDLv1/Jme3JV/KS52DrDZNkpiwbAJD2fq8s+IaJeENTuQBiR5EtQ1y8r8K6yKwwHBQMBMQ8KKmph287WeeiKZuV5vJotpGRmQs9Pjwb1EL3P8fkdWHAqkgM8y7fAvagGTQo2VyNA38F+fvLdmdFvq5JU7Niq4tyqGd2baIFea7B8I4jZg7Ga7Jv+qIeUewcEHM2Sw54kkqDyZuNTmzvKMO9xluVgWCJxrQUQh5R8J4PsNMN6f5blcQxKUy/WnwRsBcY0qMYtHIuNT8VId7nd3AgxKCIUb0g+JRgHi/0JXRF9JIa4sKCh451BCJsr4PmvkyKHNsSl6/X5VSqpO0SM6SRfr8t3u8/x+/70SYHYnzZmcRr3iqomxcQW5uW8pWHdfILAZ6vEE0i01DahcoFqQcmp+fn7FwS456gyEF0oD12RYaO7h8CA0VbQpcXVYaLdPKxx7SEAiqex5idd/t8bgwcY1YsEY3hSR4uVedvY0EFyEeBB89UTMCapq4+w3JkG4u5UeCzPoDwadmqnDW0qfJuFnjKibIPbvKMA9Uwty30/Ktrzc/5zGYBrD/3E3EEFtMMauihJ/3cbNXzgtpMB6uJSwLRTHp8mqv/DFuje+7t+/P1fJiCpfoXe/fqMB2HBJMEp5RJBBDgPIMAlCGv4PZc8kDIVNvG9aYe4fU9FPc31UbHfixIkJhLTGL28Fuz20vGIEQ3jMwul7h9vYbMv6DIn/MSUENUG3TJjQPFNhW8Y9lGt8Pt+ZhPhaQ7y5LwJEJWOjCnLr7yO/36/c1FUS4H6d85/m5OR8eyjzdca1qnzaarcrPI0JTfJZYpLo1pCmLZ2aAhZ/W2X1er2DgbGfNKD5JRBJO7SpihPEuSDECEA8p1GoqEOnbWbwCAG8TkReztjZRKSSnNOtNRpA/Fxn7MyDlaYeVQbCnDlr9N79tm1MovK1Rlcd1VcBDIUM/GMsjq+e1M+x9lBYxR59tNj+0596FHTwfq24LFCuc/hh3MQyi0aXS0FL3u/mvGtoTXi+lcuU6p8lwSZJ+KUaXGN0UU0Ih2o6XJdh2QtsQ8Eo3n3VRNdDyp5QH1iwZvywKiY+ydZgmkPHBxp/TIVE7/i83PELVlTc2c1G+8D8qn4MwIyY8MeoAf4ZHrfiWNivzfV6B1jibIjVws7XUE4nwmrOyAjG+fSpRR37AVEls9y2ew4HuupgoCYdde8cwrgJ6IkGQKy8CQXuBNZEV2jlgcAvkOjehlBDdb7brfg59mltoaw9HGsr9fm+ryHOoHrgocZgWyYyNiEvN9fbHnKVr1p1vEWImuZIf/yVlQUkZU8gmiwBRiBAj/aY8yBjKM/fzwhAZbg3TULs4KkPOLwKcyZwE9KtVRqoi0UifT0NIeDmrjwaDIRE3C/54Z1XXDHcxukeh4WURd8lWj1gDb68cxNzN47ZL/F6+x6IPEd9fDf07o1JHvPnlldc6+TsY0/hOIVjv19TJERWkVU9ceIF0WeeeUZLlgeWeCsuYoyeZUTOhq9GSsQsJuG2iMEmOC3iFZWvoCaMmGzhpPG509W/1Ut8ua/yVTuXl0QF/E4qWGQdypKem0SJnYlPhwT9qYcVVIxwv9AGAXxQE2JFMyblblSuwrmllcf30TUWjcagd+/MTU2NKdWnKSZ6R2+wSgA9XpG9AOz3IevoudswPgnCb6oi2swMi5lr1+gnsYg8w+PJ34/Mpw1jt9slPp/vYkB8WgF65rnd6hR6xLVE/X6/fgXA2JImjKcSiabm5eW90F6LKq2oGMJNM5ifn68IkhJNzd+/f//+eXl5m8rKyhSS4SiJqBORyi9S0L0dxTOimBIVRPvJ7bW+9DiHTQO7YpHIQJULdiAJjjgDQSW6XQygffhNVUbPTMtDgHCmg8vTIya7YFKh6yP1Qj9BCMVZ3lWs24Tuoyb7x0fdHJepD776uD61vLKvLuFKDWHANVfm3jVnzRptSF0d3xSPc6M2/r1uFno+ZrIduzaz7wwfbhdbqkLLAMTSqwrzl6d6O6kM8m/2hEYD8X4OLk+TRN+z6XRJKtdHJf4ZJB1v06BI9Vc3StDgo6cU5vwjcT0RLi2vfMuhyfNNCRGTYKeV75u5XBfH2zUGN9u1fdErlTvfFLK2RmYOmjn+kup5q1fbMmqC91oY3KWOver3qCFf8IzPu0pNlQwFHEoMN5U1N9dn4YrAjZkWehIPkADa1nE74jpJYO6M4N0MtecEcGHnsT9/8X7Gj2bPvqRV9LcdIVvTMb1+/48I4PYCt7sxUU5nTN0uc5SVlXXjmqbyZYY1GpAQ8Z08l0sxVHZYU891MBz+AxFtkkQ7eP/+5bB1qyr0WSCkfIMzdj4dAD64w4RKD9ylNYCJMx0pIip1QExiMVRnOZ39FV/HEW8gqIdie3Xd5TaOcwBIlbMwrK9txajAjRgPn+fxeILL/C/mWMmsSPhXu1JDNHZH8QfXTMh9a1l54HEd5ZUMwRqTbGc8Tk9m2vBmANmrwZWdpUQ3CXaFDHjMoeFMC6OBBvHRRXk5byojaVQkwluCNV1e5r/UouHLqsqqNapQXoCquOWMbItRypEShCSC4E0zGvl+Mmns8ccrrf2ONx+3ajj5ADXG0ajgHrsmfA1eBfWR0tRYBrGF4WrtRoV2uLg8MMbBaCHDBCdCwi8ei8NUsrJXIWSJRFn0fqdOuSax6qo4v80OBp/uyas3UjqhLSxdeXamZqxGTNQMd/lmSnW6Y38VsdAjpNtf6tPNedmhhLU6asHqBDxw4ECny+Wq6qg5Ompc34svnk+mqfJplJdyL4onIG6NZWQM8VzS8aiVKmlRJeeqvA0CeAIQT5JEmYi4uaHML/GspVtaA4n3ar2BsFaRpgHnF5GUIWSsrCUmzlZ9OA6nqld4A89rjBSe9X7NlLjLlHD7R/9ds/SUYefnI5A7y0oqNtjFGkZDBv3ZrsEtrFHCXSpCqg2OSn0IxGq/NDTH7SgpMGWC+6DlPQuXBy50WumfikVRWVNJRsdU9BIz4TWrBhcmWb7CJr4webxrv1yGcr//ZVRgME1aTMK/OeF9OqeXE2nHIXaazUo/Zww3USz0oHJr/a3YP6qXDV9GpIRBpOyQiEEFpmTnZ1jhRiBpYQ087UImAD28DKhQErxiCKiuNm23trbEMRVdJ/soT8/c5YHzu1vpjxrDi1pz7eHsKwk3VO/OOE/PCj1yVWHuzYfD83I419/Rc3sDgV8DkUIqTDLgqSljjLHH3Lm5HV5qWFZWdg5q2sMIcLwyDPbyGNQ/4ZsQ8fguj/ff0ZuUHr85DewCxPUk5dkcUXGzWNauXfvKwarAjhgD4bnlgQt72uDfBzsNC4JNDKEPHoUJK4qjYE+E98+yyDsl0sUT81zfWf7aaxme0aNDgNjsN1+BAp0yfFVfHYUqYfweZ9SfAfTijGZwbF0yUzAOv76qyP1A07tuYVllQSYXJY1d8IaEL2Ws55madc8LGqexcZNmfxCPPjq7UaxrfrF/fLYNnkOEBPwpAX67OybGZ2ns9xYOKgyyb86CWiP9zxOibtyIgRVXFroUbG+HtYXFgTyrjr+yarLD0enaaxGKSnl7DRu19bOcD48UWvL2WntnjFNSUnKyZrGshv+BAe2SRD9WMMLtlSOzevXqbsFg8DK3272i6ZrKA4HLkOjlzlhreo6jRwNElMgNrn/fqlJ00BDxVxxxcW5u83QBXd5AWFL64gVTCse9sazcd4eNY5tL2o6CbaaYwHU2Dc6NCHjMNLHMaaEX4wIqo6jdPS1/XxTEOWvW6FmbtkyXxM50WuANg8gwBNtaG7d83MsWOYUDqjBMSrXDIQNXmxm6O8nc2FiXCiehv82+nSdKKHGLJNgREfAPTpStcRgTlvDQtPHuJxtf87di7+A+DrZR3a97T+uS/lkTwynd7PB1qmQmBuE3Mho+uSNr5RV2g11ojzp1eW0qnpeucZ9hqI6zAZaYvGqnEV74Y4+n04mauoYeOkaK8vLy44HzpQgJD1vCe8ARh7pcri9aO6M66VdUVJzOGNuV04joaIXffzoj6suJNufn5ytmUuUixnK/f0b17t1Lu/fq9RLWY0l0+Xd4a3WS7t+JGqgnSlPgU+cm4aobz37E3FwNhD6dgtjVidvTpqkI0ESgvTFGU8CyogK3otXd255b9uKMXg7z+X2AkxRMoIAvq2PwKwsn7rTg/FReMIagz2U8etqBPsQl5X5Vx77t/XfXjjl+xIiM7sje5qhoTSFk0XjPxrkSqhKh1FexsSntdjiOD8Ylvp1tk8tS8ACRkLSDMcyujdDQ6Z68RGlmRzQl7+KSyr9kWsR1Ku+lI+ZozzGJQMQErjZM9mimVQRq4+z/pk3IfbQ95zjWx/IGAjOI6A4EUAmWyn1XriHOaks+RQN65FoA+GD92rXnzp49O5FQWlZRcQ4zza26rlcnn59AINBdEq0nxFvXr1lTOeK88xQAWZpj4Fi/IQ91/UReQIxbdf2GMWPGVDf2gh12A0HxJ/Q5NZR501UHTlZSlQkDDXO7xlDBs+7XGoMDHaqujsTrFWpjlYGua4pcryTlX1TiuyXLgo8f+NRLEiDFDx6iUR1lN3zZ074gWXbZWE+LFwe663o4WiUyzurnlC8pIEblBSDA6I46OfK6KXkfJvvPeyHwg+4Z9FrjkISQ8EldDO7tZgdVMpbSR1gSba+JsuscEK7oSA/CgmWBMYR4eje7VNS5h/15aen+VEDGNRF+5+cUfPxUZj8xGIeq66e4d7V0Xfr31DSgEDiRsbVUDxWtSl8NIlpekFdfcdPapip0rDabHxh7Iy8394FkvoivoiIfpQwKITYmaY7Ly8t/QJxbdvTv/8/rR440yv3+ZwFgLEMURHRia+dO909roEED9RXwiFEi+mW+2733QHFYX3jq4TA15312jT7bHcFPszD45oFe9ovL/KOsgAuJwVoiGmHlio2K0JAQiMXxDaeN/g+gPp59TDZEwzCptCjfNVm9ZOYX+wdm2+AthjBQ6eNQ3eNCYtV7WRl9lIGwsKTiXuvpg37nOfPMvfWz80tf6enkkXc0ti/netjAWZMLXc8pGRTqnGZ1fMMZ9W28R1LCZ4bESTad1rQSAVPECW+dmOd6qqP2/C/Fq/t148GHnBaY1lFztPO4KtS4vSrKfjbTk6sMriOiKWrkqTk5inXyUG/VDl2vKm9kmnYbEP0MEJ1qMkS8Pc+VGllYU+H8fr9DIr4DRBYgygLELUj0XF5e3hMJ/gWLZWVebu6oQCDQUwK8qtAniagnMraNAdyZkZGxLhKJZBqmqRgUk/TZHaqD9OBHtQbCQogbCwsKFiTu7cO51PnFL5+QaYv+lQh7a4xGhmLy7CkT8t87kEzJ0h5lWKDFcbsEeH93CN7u6aDVVg0UA1CXwj44HLo1JL4VjcsHBGqbhckw02peBAinWri8IWWPwQEEj5rsd7sMeDwLuHNaE+bHJSu8Z2VY2T6Q0gTw7TecD05yuKukySFnVdzv0BJGy2hEGpS0YCMGe9iuS2XkpdzUzRsTuJji4Rkd5UV4ZmnFkF4O+RZvSKZMWbjD0NEU8IEg+AoRvphY4Fbwu0dMKw8ExpBhvHUQtsIusRaVB+CvqHhIEl2DiGEp5UcghKetcq9evdpWGwzuaBwqIKJX893uy5WhX+7z3USZmUuoqorrun6ZBFBlx3clkQMV9gFy/gxIeRIRuRjAYAI4r0soKy3EkaqBd/NcrnPV/XdYDYSk9p5b9uKYXhlmRUywRz5cn3N3azKvF6/wn+q0wkepJrYdqTvWWrnVMcyUuOHLGn3UcVnC5eBCIbu1tN/NQpaquLYqlUwgQkrMn5zv8jWWR+EyDKsNrtUZnNX470TwZXamc0iyDr8+VCS+NgSsUi81GxMqE9uetFTbcnQ0JayvifEx13hydrZWRy31V+Gvk4aHRts43GHnNKYt8rU0R3v9rpKTw3FYahKUTC3aP/O9veY51sdRH/Saurpt2FB+C4gbYuHwWW01UBUeRN/+/b9GxP6NdGtadf0ERKyNGsZiKaWfIaqPvgItW05ENx4A+juERDcT4rxjfZ/S62+dBhDgHQJQnl71Du8OUl6nkhZb+mC0bpY29lb0u7Zufeaakj7eKcIPJ+mBmxtOZc3b45YTrplasEH9XuwNPGFlCRKgdGtGA7UxPt6hizkaaxYqWOGq1yl645iJXgG0IUPbl0+eAGKhGN4OHMfpSNlVYSpKxrSLiyv61VnNUCzIew/IpI3KiNjHQFD010I/ZXLBmE3q72qfs3r23qUhZbRH3oj6KIYM/LeV0VlRgWV1Ot1xvbt94+0LVlTek20V93X5m4tAIgMzHGc3TCrMTX8gOmjDvH7/nQCg7ocElDECVOa53bmHMp3X71f012c3HkNVRUgpv6M+9kS0WzL2A42olOpLK1WCcmMMhuSln3DECYJoJUB9aDHd0hpoUQNEnzPEi91ut2LF3Kd1CQOhpQUsLA/8QBPQfXKRy6dcfEtKK0uDYX5TllNcZudyXtMPU0vjHe2/q001iQQDNKsiWqHNYhTaOVQJYh4icGqcesQF2xoy5cV9Hfyb7XY76ps3WyK2noPsTPxfpk6KOjbZaGeYjeaMhkkSr87y1POwz1ni79U3Cz+LGLzIcLA3M6PxrYztm1FtSNxZE6fbZ010L04OtrgscH+WTr9Wp/FW5hu0uG1REz5BI3JmW09zTScoLi62o9XxqUKxbHHyTu7Q2MCSBHURgb8MG9riLKitaa/1d/KSjojpFKJrXTD4CgFcnDAQED9al5s7bDZighW0Lc3r9/8dIIH9sbclDATEISRlufojIT5sYeyvpmn2JkTVVwHd7GNUKG4LFWoAxh5p+P2IeL+3RWfpa9pJA0R1QHRqfn7+9uZG7NI3kDIGVngDcywcJpkS4gbh361IFzAGxylvdwPMaZdeQzttY6uGiZq4oTpCF2dIHg+FNkWSxE0J9kUAHgFbPx7XqplDPpWh02WYQHWGvkT4bVSwy0wpC2wa/IABnWsQfhlEMbkPY/FQnD1SB/hLG5hj7Rx/qnM4gwh2S4DPhYAdFg2SoEUUiuNPoxI/u2ZibqCx8HP8fofTgN9wxGw7l1cmE71atcADdEbEWI3QhjXFhGjr2CrxMkuLKPCtRBikK7WYia9rDM7gjLpLiV/VRHFG7XZ8qzEZWFeS92iRxRsIXINEd1B9LoBqwozHBxUVFbWJmrrc758ARPOwIeFxr56UF4Do14h4KSEmmUZpFCQAACAASURBVFCVEaLKIFWlTzUA9NwnbFhf065KJgcBUTUgnn606D29jo7RABG99O66deMOhKbYZT+u6mMWR/voDCssZ0cIDn7HbGHrR1Wn87iJ3ogQ95zQMysRitm4cSPaevfOMg3rpXHAzVaEjYj4A7smToib2CfbKu8khM35LtegZKnV4pLALEG0dfoEd+X85ZW/1jV4H0nm2HX6UUs3jkqYixG+YtOouNC9L5Xzcy+sOt5iiV8oJA7ROP/YoZlzGUJmcszGsX4CCEtJBkPMTIUwKWLgYkPAU9Mmul5vveb2vaK42Hua1cE2kARTAGzTMGGYplSGeahzt3R9TOBKhtBPZ3ROVLA3w6acPnOC+9OWrkv/fmga8Pr9CrRoHyZDVU3gdrtbDeKmDkA+v/8LQEwm6zYVbjVImQ+M/QwA7j5AWGGfa4hIImIxEJ2TNhAOba+PkKtVUr+q3lNezn1CvCnIX23G4+cUFRUpcLpmW0vv+RTmaP8u6uRmxejDdo1mpJBY1/4CHCUjKnhmINwmFUQxImNAWSbBx9Vx7Y+WLOa3ho2/6Iy+yxAGIEKmgt+sCmsFM68cV6lUoPZht7knrHJCVDKV8kQohEbnpm0znZx+Dy0YbkRQHZfgj8T1J3dD7ftNcktwhdf/loZwOiZQGIGHTfZbjVG2hjSZofJoQFwQvlcXkldnO1mA/a/q4aA7pNYdFXj/pALX/YeylfPmrbb17Fn3h1pTq4vG5Qc9HPQsR0iUth3uJgF2huLwsF3DUyTBxB3x8AlpxMSO3xWv3383Ed2GiArbY3TD+ykGiDflu+rLeVvTvD7fh4B4YEZLxGn5Ltcir8/3DiCOTGnsek+CiQAfJLwMiAMauBkUi1+6HT0a+DLf7T653Oe7S0EmN+DPpLQ6RFSswg/ku90Hza/qcgbCwpKV/W2a+aSVUWFXzhpPaRe6YKdEJYIB/4gJtqq7TTzQtPRRElDEgECdsE1rSoSkYvKCZ16u62K0BvIKRFS88wdsgmBtdZSP62ETWyJxdsHkCblrkp1Vyeo55438GoHUqVwVv5vVUcjdQ5F/9eG8p0WzBoIReY1klq8Yme4ednqmwZBoUauJ8keT/j6hIFEq1ubYsOJ+KF7+WkYEg3fYNBScwU06o5TgqVsUsp06RE388+4wPHHTVa2H+W0nEY65YUoCgZM1oocR8X0iUkmLKmExDIhX64ytymkFnkOiKiIY/C8CDGlWkYhv5btc3/X6/YqY7bRWKlsQwD+x3pBRCcnqhNnl3vmtXFO6e1IDiDWxcLiPzeG4RwEctVIxMQKYWOB2+w92XZe6WRaUrhqWpcffYgCOtHHQyu1uTXeCd2rj9KcsKzYLpKNuirCJlTWGdYo9Kk2bzcycODFn++KSyiecVnm9IvlIZbqYgDIAtFs5jZWAz413u2Ylr5uzqGJ470z5MmewFzQJEcTOCM+ZNTHnJXXiue+ZgH1gd/bjbAg9yiyOv+ucWsWoWBNj350+IfetVGRtrk95+arjkcc/NSTUxCV/REd5soXT9W0dr0OuI4BaAyunFua60qyNHaLhZgdVIVC73Z4jARZTvYGgSsJ6EFGstrq65xdffBG79957RSp74vX5/gSItx1A+u15LtdAXyCgEg+PKGyLztuNY3gmxJVE9AQSLYFk6W1q6iCNsZMORNK01wZJbay295q7ovJHsybkKEjQFtuchSv798k2vmL1Lud06wANqNLAuhj7u0WTx1sYnHqwKaSE7YkKEQSVCLeJgLZpDL6T6ilEENRyhCwCZsRM+O2V43MT7qwXSgO/d2g0FRpQHpMyCIk1dTE6c4bHvXlpie9axtnVwmS3SCZPc2j0W4b7xn5bUA+FYjx/yoScg1rIBxtjUcmLN2VZzCcVJnV91QAaCHTYwbjiEjfojAZjfambCqf4YrV7pk2fPl0l7qZbJ2og4QEIhc5lUg4noigiRhQDozcQ+BMCXCoZmzo+N1eVMR6w+QOBh6VCZmy+CUK8iEkZJUTFIKmo0cPKSZaoV0+3Y00Dau+VJ0iFiwQCrJAAlQgwEWBvkngqOvkw3+0e1lLHDvcgLCnz3x0HXnz1+ByV3HPQ9pfi1c6+lqBf5wmXWLp1kAZUbF8ZYZ3lpYmY+OqVBbmXLyipvF1KWNLNJr9oXBmgchUkQdgkXOO0MI8ip1lasvJcGTO+mTLFvUud1nS7Y70QYFUkT6mVtWJ0V4R+OMuzb4Jkqip9tLjYPshq38YZZIUNrLBqdB5Pkf0y1Tna0g8RzF0RvLibleYqQiw1BhEEN0cj/Y/WHATlTXrxxRd7xYQ4iQFMz3I6b6sNhSYAQN76NWumJwmO2qLPjrpGMT6ipj2MRCMBcTUS/VMytgOIBgBRjIT4Z5JjocTnO1dHfIYAejeikN4rmsJBOG7AgP5btm59ioh6c8buFkTfJ4ArFOs5Avw/e9cBJlV1/c+5703bQkcEYovGgg1l1djFWHB3yi6wg0oTGzFRYjTmny4mGmNJjMaYYEMQQYayO/NmFlEDaiyRgL1EoxgVpbNsnfLeu+f/ndkZnF1md2dmCwvM/T6+mJ1bz7vvvnNP+f04LbnHz/KeklW+344lwIGngPgSIP5GSHkAIboBYBoRhd96441+bKnyr1hxDJomW0s7ipFiKHPmyREE8Gy5y3VxZ7LvU5vKV6WdKgQssoisboqdrTH/+x6WQGMMnqx+Ojyj4rKCp+0KDVMEnJ06JV3CR19EwyelBjE+7quZVASNAa/XG/b5XnVE1E3FKlkvt6n0EwVhCGJcg05bDAmvSgmvhU34ZNpE199zWT5nWgwoiH2kCHCYEr6OSPihBfFyq0Ksqe/JIklRjo9EDLfDindy8AYBhDeHw8Nner11e3Ji3T02KwZVweB3ETGGUp6DiFMQ8Uki4rRc/jgOQQANEXVJ9AFKua69fO7unlsm/TFvAyiKSxANByFuTaRlx5syMQ5IyZbVZyNW66v2WGw0In4pAUIAaS17PzV1/fHi4mKjORK5AwB+yKQbAqCUEPl94liIbKPYM1lGvs6elcC/QMqpHo/nk+Q0qjXtYQS4BgBq3U7nYHZj+Z99dgREIv8CxIPSTHcbIt5KpvkkIl4CiLOJaIfH7Wa68A7LHlUQHvfVnG9V5fkWAaOj0nJlsRqbIxDKO5t0/ve9SwJRE9810LzQTiKgKHBq29kbBAsnuF2t2PD+6gsd+ENv2aZ5S2tOKrbKVaaEbfVR/LNE3DbAat5uVeCIdFJg60iTjmWTU5gtc5XWwmXBmwut9Acg3BoxYH7YgFcHOsifa39dbWdI2L4jrDjtYIab677+YMiwEQslgl0AHLVNwOiZLhebH/fqwkoBxh06QCtXriyM6vpP+dYMiCcD0SkAwL74UiI6BgG+AkQ2tcf3AgG85nE6z8zE798bQmIiJhLikhHDhgW+2riRXV2s1KQ7czcj0a2mqj7/9po1n500ZsxvAIAVirZlvUE0WUV8OUUZMAWAWwIsS6I79sba8mP0mgT+6HG5fpI6mj8YHAtE/0cAx5a7XHGFgPE0EODJVnsA8VMgOgAQb/A4nfOSfaxevbqovqnp/Ghz50y4e1RBeNT3zBEDbMZLVoXUnc3W0xw28wyrMBf0mujzA/WWBBg0seXYT1OIQG6PidOuSsly4GqM1ji0iNYriMWS4JMmHdYgYF3MxN8OKqAvgNLGA0jdhNCOZsvPr7183C6a6VwXumBBTb8pU0rr+WDntEyLAP5I7akS4YA4BmIwCNZLifPCJmyaOsH58J6aUHeOy1kyFovleEVROO3vM4l4JyLWEeKzKCVT0G5GgP8SAN98GDCIg2UjAPAaIq5xlZX9fMWKFdZoNDq8vLyc+Q26zYsWCAT45jVdAsx/a926Z9oCyyTSCOG2225D/i0eZHvbbTi6pOTCWHPz6srKSt2vae9h65TGOM1uigzDiPiLuEVEygfTyPY/bqdzVJWmnaMgvpD8nQDexRbgpnyWQnduyL7R1/NM3NV2Ktrq1UNkff0FHo/naU3TjpYAjHeTupcIpDwPhJgOUj7u8XheyWU5e1RB4AkzdOnWrVuJ4WEfWxwcO6gAVgogNCTutAgazB+WXBaWb7P3SMCQ8NmmaNEJP/SObWytKfvHA4llrFmEDSgzmvA1xS4PEw71S7s0NxClD2ZFAGrQRdXlFaUTb1uyxDLb691FS52NVPiQn78keIpNxW+FpRIZZDPY/NsnCr8UEQP/0QT6xBkVFYyqt9cXjjWx2u33EGJAQbyUiIYT0bmIyFkCqS6lOFJ3ArTKQERO5/sQiLjeOs6ykQCBcper2+iu/YFANSB6APGVaHPzOK/Xu2uvVmvaI4j4rBmLvWiz2UY0NTV9YrfbJ5IQnJt+MJjmQSAEE5NxWnAmQFtfpItFSKz5Nx6X6/bqQOC/iBi3nDAFNAC8QkRHAiID5mQyxl6/X/aTBcz3uFyMB9RuWeT3jygQ4rNdQFqIITDNG1VVbWxqamosKirSOa4rF3n1rY8v551rzx9kmo2iQAgVhGDc/5w2e0I1b6uh5yKjfJsuSsAkZA771wXCsQJhyK6bD4EZNeFOHYVvSnnZu22H8QUCB6uI32uK4Eefvl+4ZvbssXxrBH4hChXxOVH76ZYJkKWvGyJ4bwE2/T0XfoKHngp+u9iOjxRZ5DkS4CsV4ZAuiqJbmsdMfMYgXNykK4GrveN2dEune7CTOKJgMDiLiA5gdM9Evj8faGw+zeQd5n2RenveBAD/Q4BNrGQA4lZA/BoAAv0KC1cm2UXTLdnn81m9aRTK5cHgcQrRVI4bYH9wVVXV4RaL5RSTiD/S14CUc00hVioAv0TE0xMWBc4y4PkvBQAmdCpIGZPxObI920gCnE+I2xQiplbPtv0efMr5oXOSANFjHrf76o7aVlVVHSpUlWMUWmJQpPyJx+NhV1yXS99SEBLLWVBT08+h0y2qkAz+kO0ciYgad0TFuMF2Yq1910sZtze2GB1lwt6df8G6vIU670BKCu/U8eQCBS61KnijBKiTnC8ehsqrLnXxQZdx8S2vOddiMV0C4KbO9gb7NYhA3xa1HnWN92LWsDMuDOR06LFjxhZbYb4qYETGDXuwogQImybcL2ODf+v1nhHuwaF6peuamhqbbpo3kWkuQEXhd7UWAUZQyz/mokcgEowCmjqhBJxw6t9YmeCUz07PCgIIqIg/djrTA0tVadqpAuDyBP3ytuLCwpvHjh3LN/Rd5ZlnnhkU0/UXCYDTxL5EgEICYGjv7yaiyONMj91dOLDR1PVjVFW1SICPu7v/nuxPJnyMnT6gnpzEXtg3Abg7AzOq1rRS4GDdbxTG/0bDYSbyKrIVFFzMSJy5Lr1PPq9FS7TzCh2wOlu2vxYEPZzXFFbvcTj0u+0qXJJ6aDTG4KmwKRYUqGajTcUlah9IW8v1we1F7fimtL0uBvdZUSwDoJsamsXt0mqImV43m1IzKmx+DmOhs5+dnhJAnKqTUSEC0iW+ZhCuuKyi7PaMGgHAkz7t+iI7MPYC5533bkncmSWALiV8akh4PyJhicMuXvSWlfHteK8vPp+vyOZw3C9aYg0+AqLzAeD7yYURUQwRd0XlJ338ibiC1rTiLfwD2Sj7HFPyV2kYj+m6/mVbi0EgEDiYEJnXwsqxDcWFhd8bO7bF/bV8+fIjFYtlecJdkOtzyMQqktp3vD4i3ldcWPiL+qameUDkzXXwPdEuGQzSJz84e0IgGY4pAcZWuFy74k3SNfNr2l2JLJbkzxEBcIREfJQDewXA0S6Xa1uGQ7aq1uee1+zVq9Uja5vHFlvNZwyJkUS+fIfzZDZCk8CUgF/t0MW5RcK8ulCFW7/ZlMjfCdY3RFNM/BqATiDAz/rb5I8lwR4Hvsnlwe0lbcywgc+bBkTsVnneDt1yDspYs0MRN02e4PpBpmvgj4PPH/Q7FHB1FHWGgMR3yOTHJLV/gRipj0D55InOlZ2N6/ORgtbQaqtCrdIxO2vXld95g+smbQGBEd3E53SDSNHh54wD0ZV++2pb36uvOuy1tT8iKX+JAIH4bRzxGOCc75YStwjwW8u48YmAxPaWwzDCrCBke54REv1RVdVftfXR+jWNFbFCJHogEon80ev17tA07XQJwCmGraiZs5FxYj3ZKAgkhLhHSjlDIl6CRCNYXtmMma+7V0vgEZDS73a7a9oLutU07V4JsAtoiy1sqhDfMQAqScp3KtzuFblKINsXKtdxMm43e/Zq9dsnNxxkxvAYIRyv20VkpinhtAKVnIbEz1RBQzHlVmcSbG7WYyUR02y2x4qMaLFOhVJZVaBSCZu1IoZ4VJfwHIBpFtvw6RjRBRBRP2iw6RERVQsdVvm8Q4kHD+VLN0uAwTgaInhbfzu8DESxsAm3fzig6A/w4ouyPXrRdFO4Z/78wu8MHLQZO7Ec7AiLnw+001RE2o38piXQET/dufmrY5L01+0td6HfP8wOyodMpdzNImmnO4w06jAthvpzhbreUFlZyTfibovA7501ZD6KPxhkf3yxGYutUiyWXxDA6UB0FCAWIKRX2BNuBZZJe7n+uSoJrFXsAKJz3G53POuF0xMlwDYg+ofH7XYlV9YpsVLmIshGQeBea4FxE4iM+D/EwzIfKl+zj0uAFWKOF+B9fT4BfIAAlyfmzPtEIsBK0zAmV7QTjOzXtGcAIBX0yDBisYOVoiLVbGykXKnIeQ59TkFo+zDnVdVcInXaoKIcXGCl21SBZ7Y5JCgq4fUP3lx35shRJx8y2I5rAbBBAv682aC3plaUfcSEPfPmLR8MDsvh072uNckxHl0cOodviQ4FriEki03pG77mPr6hM5qeIeHfjaaY4kC5yKbCyYlGZtTEV73lznY5FZ5YGvIWKHBavd50x9Ve746HnlxxVJHddPazwxQEGp1ucH6Loga+LQX8knT61GbFtSp+44bgTR4z8YmYUO+93N156iMjeh5oa/xaFVCc0WK7WKlJx3mXV5TNgH1YKUiKiLOWGhsbB7DJs6qm5nBhmksAgJ9r3E2QzvqTelh2AgbUmaWh/SeF+IzH6WSXJCRiIxiH4GYgCtptthvD4fBBqChVAHBAFx93vnleAt9IAFGPIh7MrkOOezrxtNMOFrq+BBDHIMAr0jRnWq3WDaWl8VTrtMUfDP4FiK5P+ZHRRC6KNTe/5PV69V2RdznIvc8rCLwmFtwxo0vm2xVqBabDkeqE8OdIVCyJSNjweWXplm9XhY6qb4htuX76+O1t5cFUxfb1tcOney+M+74fW+QfcdVlnq/ZrdFv61bLUNUx3qHA/RYBg3OQ5X7dhABqBcBA/ljrBi7frBdOH2RpLClQgfHjUwtFdPzzpPFODjLcVTjGQFcKHiqwQqkA+pYk3CFJ1goQBwtBFmrRpNv1M8dMeJNi4VM4W8FXFXzUrtJVzBBpSohEJS4L6+KWK72lWzN5SAuXB84ttHyTZ55Jm1zq8K3YMNUJEytKq3Npvze24efM8/Z6vdKvaRyEfB0ADMoE5CdNcGKrfZX4P8kzjSmY/Vn46ud5XK4rfD4fz6WR4xL8weA7QHQ806C3Z9nYG59Bfs57TALs5q5FxH8T0RwAGCCI3lNV9R12cbHyXNvQ8F0FkUnA1oBhvNCe1SC5gtmzZ6snjRnDLoQL2qyKXZPPA8AoHWDiRJeLY2qyLnuFgjB/SfDS/nZalFxdImKnrikG90dRv89GlgdNEx6aWunkSOIulQVV2veKVPhRzMCjbCqlp2Dt0gj7XmMiiNZFlOk2ixwnTaF/LBuvP8pmGyKkuMlhgZuTwaZEEEYEB5tMPS4XH8S7yjyfNrKfAz5mJs/4HwkkIAgiMDPhXpCAO1Sgg1wuV/OCZcGbi610FxFs2oxwJHz9td6ZWyF1Lmy1OLCf+a4iepCYiSBmEKwxo+HzcknB3Nt3UTAYPM5soUw+maQc3DZToZ31dWaab5U6SEQPEcB/FMRzCeIInsPTxTIwVDVKeaYQYosE+D0gBhWAdZIoSC0ARPmSl0CuEuCb/2YAxveBR6MAURXxkHJn57FQnQ0Yd4UhspXrt+3UbUn/lXK0x+N5p7P+0v3e5xWEp5aFzimw0CqBpHD8WdjA/0qkX5qNyrNKkbzeMMFuASrYUqfcNevKzG6InQnqoaeCA0cU0wbEVnnLnTXb736PM0NG8D5LkXq7d1zrfPwl1dpKi4CzEwoB+7LC2yLisiIL3WtX6NAGHUOGQT9k5kYWHFuJBh1xatGIYuMlJPFSkw4voIDxClJYEVBqz8D902SAputw3bRK59dPLKm5rNAqr/eWu87I9sE8tSx0SJFV/ieTW22GfZMkCCcCbqUucWNds3kaW68ybN+2Gmqadq6B2FDhdK5L2wcRLlu+/MBBgwZtDYfDSq5AKTnOr8NmvpqaoTbT/BdAC+dKJ5aBbKawWxwCMXCSlJdGo9EvrEVFR6Bpns9YC0T0PQTQSYj5YBj3S1U9QEg5N+HuSI7J5Da94mbKZpH5unuHBDiOSApxXHlpKaMcdnupDgbvQCLm4GBE0fSFg36JSiwWywe5nAF9VkF4oKbGNjRqzilQgZmrBkrCL2qj8nfYWLygaHDT78iEUqtKRzOK2Naw+P7V3jLGoe628sSSmmn9beb9AmFAt3W6j3QkJdUJgUV8sw9H5VmTJuwO48lsiAfZHOPtCixo0uEfQlcu83pLtz69PHi7VaWrEWCoFPidCYl8dNaGv2g0B//gUs+G1AA9Bq5pGjpUDGho2CQy4Ds3CSJbG4sOmnn52G0PPFBjmzUrFwQxwoXLQ78ustJt2abapj5iVmhNgjqD3SUS1keleE4BWmwxmzamA+PJdHv4Ne3ehGnekADThw0evHJ7Q8MhUtfPAKJiQnyfg/4Q4C4g+qcEWFzhdj+Raf89WY/deSVNTZNNKe8GRAbN4o96pplETNSQNkslOWciMlPTI+OHtORwZXi53OU6j+M8EuyQ1gMOOECWlJTovuee62+LRBiKNh+s3JMPf//rOxYNh7/l9Xozcm1mKx4+G612+3ZE7IjBkTVwJnFyuJ3Ok7INfu5zCsL8+SsL7f2Mx6xCnigEHMVZTlGJH+gmzJ483rnk0af+ccjQ4ub1EsHUDXylIUo3Zgu2k+mD8FVpNbYWLIV8SZGAKeErI2o5QarmkP+8U7A+iXDYVkiLqlYcakoa+YnZ+O9UuOO5c+fa1X7DB06dMG4jt/FVhZ4SwnhZl8oUQ+LcqRPKHt2tr2XBRx1WmoKtIXd3ey5RCZtqm+D4mV1MD3zaHxxfoNCyXBUEAog2xfAR5MDacLj2gw8+oGwyN9rbcH5NYxa3v+yCHiZa0K+4+Lr6pqbXScqD+bDgQ6BNsN+DHpfrhr6widlSdNKYMXxTZzAipYOgxNTp8k2eyWYYEIldUBM6CBZkWG1OkWxdiN5xu1zMmLhbdkh1MHgBUhxULV/yEuhOCTQWOhyHXnDBBbvFw3XHIEy6VNfQUJcBBgi7GpqRqMLtdq/KZuw+oyD8bfnyAw5QLFcpCLMQ4UBDYh0BLYgauLnRbH4gSWU7f3nNuQWK+SgRXjmkf+FrHcGmZiOIdHWfXKJN7mcHvnm1b8Lp6iB7UXvOGpUStW1hec+1l7r/ncnU+QPw2LIVowdY5E1EpDfElHuv9LY2uS2sCnntijxpKxb9ERoaId3HfVGV9j2HAvMQgbHm44CYEQP/YldhOgKlghkZtVEafcXElpS1XMsSbcX3hDRuV0UcHS+r0pI1Ac/KWLi0u+MLQqHQkTHTPFxRFCtI+ScCSHK8H9rBPm0kgB+Wu1zzs1pID1QOBALHEiLHEx3f9rbfznCMGHmvx+VihsN4SQAZ8f7bLaOgg4DCLwrs9hPC4fDhJsCxQohyAng4Eekd9mvaQwmrTA+sOt/l/igBIvpludv9+55au9/vPwGE6ByJlqgOhbgHpHxtr1IQGFNfIeVqSXCYlERFNpjBNzZJWLep2XLWdZde/N6cOWstM2eWcKoGPLosdIiQMFXfseGubILOuvKA2CTusNAv9oaU0K6ss7O2kijcoIsbpk1wPtZZ3dTffb5nBlkc+haB2Nikw+8+fnvtfXyTfqoqNNqiD/yIIYMfWbriBEdk+/+mTJmyK5WHsQgu93g4uCdeHllQ863BxebzioCjkn8zCVZtbcI/DSmEhyxIB8cZfAhqQcKU8nJXTTbzbFv3cV/N0IF28+NsXUzMTBk26B8mqY9NmVC6uCtzSNe2pqZmqG6aT0NL0F3HpsVEBww9brdaDxnXJk6ku+fWWX9sElVV9XDFYgkh4qGsIHSqfBM1mjbb4eMvvnjLLgUhFJpKUnIWTLq0145SHX8dJzoKBn+CRHcn3ukvAeB3CatEai55Z8vJ/56XQGcSuNvjcv1fZ5Vy/b2mpmaUbpqdX4SIPvW43XFir7aFmSANw4hUVFT8L93ve8SCwH7IQ3aES/qpcjEioYowXCf40pRYZ5J8cKtNXTArhX3K53vVsaew559ark0rtsK8XE3NuT78PtZO1kXUydMqL+EPU1aFYxEGYVElET07w9sCE7zQp51e5IBXTSFO2lZnbBxYKF5WBQwP63i/JHNlkQof1UYVjwTxcqq1YdHy4D2qgBKLoNMRW9j9CGBZXVTeYVPUX9kU6YmgerESbnihqzf3+ctXHlCo6B+rgvpntWBO6CfYumXj8JFJxTbb9p3VnzNnTsGwkSPPQKJnO1Nc4wGAQvxbRZxWVla2x/D744RMmvYnQByfYCrMjKyI6GtFiLOT3AnLly8/QLVYXiaA77QnpziYZhqMFw5YFEQPmqZZLSwWjzTNIUJR7myHNryzx5D/PS+BjiRAAmCUy+XiYOceKfwuKBYLn6kdf8cZttxqPdk9bncMmGAwOMYEuE8Q/URRlP9Eo9FBCfhxVt57DyiJrQVGTLkCAE4qsMEpKsqDYia+FNHxN0KhRPUzMAAAIABJREFURzYbljMKaz9vSGcZeHhx8OJrJ3U9LSSXp7SkOvgnm0I/3mdh7ToRCu+87RH85YzKsjsZ+TYXGbZts7gq+IRNhYPfWld40ZEnRCYXWYwnUrDa2X+uAyJ/aHduqbWfMnN6C25FMocerIWjHKp8UxJwZgs0x+Du/7y77udHnXjKqsjOgnEzZrQm18l1zguXBl8qstHZ2S5aN2HxxHLXpbmOm0m7qkDgCoH41zYMgW2b1gPiVAXgn06nszaTfnuqTnV19UGoqiHGFchyjP8YinLhhNLSDdzOr2nvZRBM2KHyQQCfE9EfGUANAf6UNmYhy0nmq+cl0EYCW/oVFY3sSRc4K92M1YEtpGGdldp+RUUHJzlFUiuzZc9WUODZdOCB1cO//toNiGWRcPgavmT1igVh0aLqgywFyioh4FUk1Bti+HeJUED1sXcOPXRA4+dbmj1SgQ0Qpa1XTk7PstbZ6nvq94XLgvcWWmlWFpHWPTWVXu+XACNhk35yWbmLP0TdVhYsqOlHDlHIQYpzF648ekBRbJ1oJ6W0URcPTB5f9qO2gy9cuuIEq8UsQaC7EfHT8W7naQuWrPieJH39NK87K+bG9hbG6a6DC+B5u0pJJMgOZdAC56zcW2yF3bD9u014iY78odCtJCVjSQxGgFQAsTAQvY1CLIsIMc9b2j2pv12Z/7JQ6BBVylcQ4Is4rDIwtkWHqInJ4Rjs6Acep/PxOXPmWIaNHPl7JGLM+c7OLWZf7BFGxa7IId92/5AAx8GQEKdWlJW91dMr9vv954AQ/+jUVdfy0nxIUo71pLhu082PL2JJC2xnL1pO62NEqK9qmyZHdACBUAIK+E1TfnqN1/0ZD96ARRddVVm6G4EEa0TZpmHkNMEsGs1fFrqiSJV3KH2E8jeLqXe5qi5x3kSPk60+PVLY1XTMzqZ77Crd2MEAse3NqvvKSZekJVmas1AbUmCB48jEbU2x2Jbrpo3f5avu6qTn+Hz9B1sL3rMo9K1M+jIkftoQEdOvmFTKKXO9UhKwwHMQYKMEOIFDdd5at87fHRkTXV2APxQqQdMcYwpxgCCqBMQo0C5lq2P2RcSPUcq/RiKRv1oLC0vINAcJxFAGykE8gBVb0ifb423o6tLy7fMS6EgCmzwuF4Ny9XhJuO5eBcTOgqm/IKJlVlWd3RFsc9sJd5uCwB9+xVowc1szrervwFlWAZfURdH9+Qf/fn/UqFEFXq83Tpe6t5W5S4LjBztyT3fb29abnC/DFDdFYdTkiblBdGay7seXhDwDbeaTArEDMBqSuhRvKEDzaqPmKmvMumHKlNa45D7f+1bdsn5uQ5Nyx/endC8oydzFwT8MKqBOA404OLEuQodNz4LCOhMZZVKHlYRcQFAy6TuXOpzKeOqpp1oMw/AC4rVEdBwB7ETEgxIf7Q4RETlWwCLEhLKyss8ZSvbkkpIbpZS3dprvvftkc+dmyGXh+TZ5CbRI4EuPy3VwbwlD07QTJcDaDqwIOy2Kckg2ikFy7jkrCKwQbACw8tWq1uHA/gb4BQJKAjNmwBqNwrOXeL3xQIe9uTzuqzl3oN1cLjCOF7/fFAJoqi0qGjJjbPf489MJjs3GBwwfsV1gZmh1psQPGnRzymfvvfn27Nmz40kLPf1A/r4wdOGBRVJLBkW2Nx5jrNfXWg+aNu3ipp6eU1/un5WDk08++RBC/AcB1AmAQQSQelimhJukWQni/8gwzikvL+fsgnjxBwIrAHFcluvueJwsO8tXz0sgYwkQLfe43YzV0WvFr2k+AJjYjoUtZ4UFfT6fY6vZf4gd9Iu+/Khs7uzZmORjjy9u4dLgdLCYz3DK2fyVKwunXXxx02O+FWcJNBm7/FMTrG9IM3qmYolpV5SXM2gDN+vxg7u3JM8fMRw48pJhDmLWud0BWHprIr04Dj/BJl386LLxZQ/09LBL/cE3LSI9S2Pq2LytGqM46+N3y/561OhQSHdYpk9LSX3z+VYXeb1ju91KxXve2qQH7Sqdg5ieLEpK2qhHI4d2BR2xp+XcWf9shYgaxvRyl+uRXN18mqYNkYjuuBuBaBIgMulZVpcQJLrJ7XbflzrfhJ/1xc7W0Ob3vPUgS4Hlq3ddAhwAGwuHj+zts4Av7PaCggARlbZdBac59y8uHp4uQLGzFeOTS7TzpOJ4t0CJ/Ko5Bs1WBUsUo8lVWVmpL1hW8xNEGAJI9TaL8i8zhrX/efdfb31r1HcHbBhqq589diy/hPt8mbt6tb2wrvlVmyJP2ucXm1hg2IAaIKw3SPnTlAmXZASKlI1s2He2xF+zyKaQB4A6DSgzJTQ0mnja+nfWfnT0yaeNmeQatzb5IXtySfDsIhs9Xu5yHpnrx62juXMswiBr4QOKkBW6hPetCGOE+AYeOGLga5MqnFlzPmQjr56uy3FD9U1NZ3uczrbsmxkNnUBI/DUAjAfEYzpIHYxz3LcbH4D4E4/T+cfUQauqqg4VqppN4Cn3z4pJVspJRgvNV8pLoAMJEMD15S7XX30+X5GloOCot9eufbO34oGqNa0CAZa3M72vBMCRTGaXzQPExxeFTrvysrLXudEcTStQ5UDlKs9ZjM62qzBO/pf1aPvB5D2bKpXNwrqz7rwloZn9bfLXBDQUUTAafKbY8d05jd7tiyFpiTBiiMsnVZTtYtLsjkmw1QosjkdtFvACZYZSaUrUa6Pm8Vd5PR+lzuGJpYFjB9hwERAMeuuNdQf3xMvI1glpCQ8Lg2O7VTb3twq5yqq2EA1xqdfFlVPHlzF88F5d/CtWHOW55JJW8s1iQUwgNYvZEBFAoRZrW/oPNBPIYNxSuRtCKRFdU+52t4LaTpA7ZRN8mhnGQhaLy1fNSyADCby/Y9u2kkGDBpWCEIzMWdigKCOnlLaOmeJ+qqqqDkdVPanc5VqaQb8ZVYkHLIZCk4C+YT7mhgQwXwG4s6io6JNs0y7zGnYGop+7RDuvwIKzAGg4IjqsKI/PAP86g577fhWDaNoEt7tbibAWVwWedKg4JRs/lCnh47qoODcJthTf+ES41F/zsE2RV0uA5o211sOum/YN4l5PSJfHfHRJ6MrBNrpFINpiBn2uh7Fi8r6hPPN50O5j8fv9xR6Pp9XlISnjhInzDgJwIdEWjskAAEYmbKHvTikdwCGDJLq6wu1uhdbp07SRNoA4DkInxSSADQhwSGcV87/nJdDtEiDaSEIsRaKzGO8HADYZsdgpZLUW2QBGSsRBFiECHFDsf/bZERCLLZKmuaTC43mwu+aydu1ay1cbN3La49nJPgngD+Uu189zGSOvIGQgtdlzV9uHFoJqgeYjLEKNDLDGnhUIHJG9TxfeHDuj+KtpE513dOdCn1wauqWfTTLUbcalhXsBFk8qd17GboS5VVUDhGlxDrTRk8kv2vaIuObKyt2JnjIeJIuKrCjMXx763mfvrl3VE1aLLKbSK1UDzz13sIxGjyx3Ovnw2U2JYHlooRBHjk4GKQ8CxI7iddrFKSCi/yHiQ2+uW/fHUaNGqTab7TC73b6hORqtFIhsQj2PAJLcG9sB8R2U8nVCXA9C/A+JziWimcwAm09z7JWtkR+kfQlIATDVJDoWERmun0sQhLjNXVq6LhAKTQSiJ3WA0RO7EXFx+fPPD1YikbVAxPwsXLaPHD58ODOXZvuw8gpCJxKbs1Q7ur+C48KgP/H522/Xc/zFQJv+kir2fWpYU+KG+qj5fYdFGdhkwtYrJ3YfmuX8pdpT/W1weVYblsDcFhaTChRcb1GNF60qFqdCYDfr4pXLKkrPZkrfrPrNV+5UAn6/fxwiful2t0+C5Q+FLgQpf4wAVgL4XnudxuGfW6KZ2zt/JEg5zmazrYvFYtOTQYt+v38YCPFDAPAQ0WPlbvduQbTsJh3OqZVS3gKIIzpdWL5CXgI9KAEiugsRywG+4ZBJDPc4AJQBwDD+/0j0bbe7ewDeuD92YSgWy9tEVAhEW/oVF+eE6phXEDrZHNWadj8CzIqasLTS4/Q+XR16zqHEuQB2M5324D7bU11HCFBJxlyYEt9tjtKtU7yuqq5O6FFfaOpQh8yaXTBhnmbf9W57N2bgho1fiiNmzSplWuB86UYJcBBiZ6mlwWDw2ybDvhIxSVXrwFNEnSmVCeL06e0HKRLF2PpAAHPLXa6riPneUxQ+NqE2NDTQiy++KE8oKRkliGYj4mtmLKapqqoT4hsAMKAbl57vKi+BnpJAKh5ItxM7+TWNKcwvAICPPC7X0bksIq8gdCK1xdXaApsAT4MeO/JbgwZt3VLX/DeHIq/ej6+ozRFD3D+poixpMstl38GjTwePG1JIb3FAW04dpGnEYEVNBlZOHu9sL5K3u4bK95NGApqmnS6JfgGIzlY/I9YBxTNVOMvht4hoY5dEmy5YE/gKpFwDzPSIuKi8JZuh1av26quvOjZt3XqWgngXIDJyZHL/sFK4M3kjyz+gvAT2Mgm86HG5xnYnREC1pk0TALcQ4h0epzNror24ZWMvE2KvT3dptXa3IsBd7nIewzeZRcuDf7IKulBVMiLI6PX59taA2yOi/MrKMn8m4y3UtCF6DEdHovTWzMtd27jNI08HjxlaIN/r7mDPsIm/vbTceWsm88rX6VgCjGtAqnqY+5LM0lxXrlxZGIlEbkEhvARwzK7eET8GIv+b69b97KSTT34GEC9sb2Qi2oKIf4mGw3e3zSUPBoMDTSJWMOqI6GdpYgxYSYizfOZLXgJ7gQQkEW1GRIZl3gQDBx7pOat1BmGua2B3XDQabbIVFHjBbg95Lrhgcy595RWETqS2pDo0w6LI75W7XFOSVZf5tXWqgIwIfHJ5KHtDGyKo1024o1EX81MzC9rOnZnCDLXghSILnVCni4qp48ue44j3sCi8e6CNZhHQbqluXVm/IXFznQFnXDmhb5F+dWVNvdWWFYJYLGaxWCx2RBxjIh5OiCszJZ3hLAcQgjMQGPUwCZ/dLAAucLlcr/E6/JrGVgEm32rPcnSdx+X6O9etqakZ2tjYuCNJHBMIBM4nxD8DwMOIeAURHQgAI1Pkk09v7K3Nkh+nOyRgEuJYJGKOkWICeNSqKDfnAoncdjKBQOBcye48IYaVO50zcp1sXkHoRHLsez3yhJI1akXZaV7EOHT0Y0tqbh5kM+8S2H3m8Vwf4J5uZ0jcWb9DP6ywUG+orKzk4LM23hfCR54OXqGGjaoZMyp2smn56eqaKQ5Vzu/uzaebuDFq4pzJE8pu29Ny2RvH92va2wKgVCLOBaILiegfmzduvCQdBXtH66uurh4FinI/+z4VgEdcLtfbXD8OjhUMjrABMGVzujgBAiF+4ikr+xO/dyUlJf25XZKqmjHnw+Hwl5WVlXHq6kAwyLeigQTA/gpLPDi1JWq1u7fW3vg483Pu+xIgg+g0gYgKQJAAhgLA7R6Xi11xXS5+TVuTeJ9eyrWz/IuUgeQe8/uLr3S7G5Mfv4efDpxiU8U1A+10TWoUfQZd7atVthNAMxDUNxv4NYBcdfl49x/aLvbxJcEz+tvoXgWhJH6gd3chCNfGlJuvmFj6t+7uel/vj2/nIMQpANBAAH8GIhWIViLiAWwGffONN5zZpHMyMuOL550nZ7cAIgHHJ5gAR28ePnzB8I0b/00AJ7aVKWc3gJTHezyeD/3BYFAB+DAcDv9f0oLg17S7AGA6Iv7G7XQ+4g8E3uI4BGTdo4W9kf/lXQz7+mbdl9aHeIXH6Zzn1zTGQuAMnSYF8btOp5OV6C6VYDA4prm5+a3k+5NLZ3kFIQepzV8aOq3IKh9QEE7Nofk+3UQgQNgQk73lZQt5oX/1+YqG2QomKEhXCITTe/oAJ6JYs6F8//J9ANmwNzdKdTB4ASFuU4iuJ6IrU2/hRFRd7nZX5DIfdjuQEIxf8BcCuAyl/KcQ4nQJkI6+u4HZHz1O52J/MPgkSvmI2+2OczCwq8rmcKxPuBQ+QyEelqZ5R2oMCyvwRMS53vsFZ0ouzyPfps9J4AaPy/Wg3+8/CYRgmngHEL0ejUTO7MqHnVe5fPnyA8aPH58NAuluwskrCDnsl7lLte/0swBjIbAPNF9SJBA18OOmnYUnzpjRwgK5cOnKo4vssQ84W623BGVI+LLJED+LmcozV3vH7eitcffmcebOnWsfPHjw8ISPn1Ojkmm8X4KUF3o8rSGuM11rtab9EAEqGVmOTPO4zZs3b7r22mvNQDB4AwAwKVPqvtgqAP7gcrn+xPEHa9as2Z60WlRrWim2mGENBFBZE4hjKbTkQYqU+eR5GDJ9OPl6fUEC/7ZbrWMvvvjiJr+mMSHgxISi+4DH5box1wky+ZqU8jtdtUT02qGd60L7WjuGfW0Iy6J+VmWeRaFTENIz/PW1effWfEwJ2995c92Bs2fPjhN5+UKhA22m+VWbQ7zHp8MwPOEYrDYMcVOjQ348M0uSkh6fYB8bgL+3L7zwgq2+sfEKALgXEQv42wsAT1oU5YZcA6cCmhaSRAyyxGfNCxLxFoeqfqbr+pkSgLNg+O9MxFTPv4OU8zwez5ttxVMdCp2GUr7chr+hJd4F0QAiJTGGyQ4HAuB4GEvcbdGNqbR97LHlp7OXS4BxXRSAY10u13+rNc2FAIHEkgwkOtztdn+RyxKXL19+pKqqkVzbJ8fMKwhZSn/u0tD3B9vlQ7XN4O1nFxUCZXZogFmOtzdVZ1/w9qh1VKGsW88panMWakP622FkgRXfTJP33uNLS/imozuj+OD0ic5benzAvXgADgocM2bMOSbRGUKIkUR0LbQovxz4twWISjwez9fZLtEfDPqAiC0Im0HKCfGPtaI8mEjvOoU/7NIwDqqoqGAMg3bL/PnzC/sPHPgqIh6fbi91gs6YCkiT7RLy9fMS6GkJLPG4XF4mRZQAnAbO791tCPA9m9XqYetCthNIGNi6DNeTVxCylPzS5f7pqioeRwQZv6Xk/Z27JIgA0YaYCBao8tztUcvpaItuLjCUcwqtxKbhXi9E9DUA1jZExdKplWWze30Ce8GAHEy4s77+JhTiIiB6hhTledT1AlQUvq0nyZv4cn6X2+lk7IGsSnUweAYS/RMAbgKA3ymIo02AapTyHs6SkFI2CyFOQkSZjDdob4A4Ec1XX11EQtyALURQycIeB3Y5pLoaUrvJKwhZPbV85V6WwNZoOPytDz74wDh5zJg1jCESDYeHGQ6HvRCgwuNyPZLtfPx+/9hoNPpSV+MY8gpClpLnm9bRJ5bMKrDQffkMhjbCI5INOk5SUbwTK1S/mnbxxU3zlwQrB9jJtycUhOTsTIJtUuJbtc3mlGsu9+QEGJLlNtlrqi9btuxbqtXKJn7GJWA/wBoD8SpVygtBUbaRlExjrQDi/1REd1lZGUdXZ/w4mdrbVlDwLjAgDNG1JMRpAHC8IPolER2rW60bzPr67RxY6PV6G6uDwYuRiIm8hhDRA6aiPK0SnYpSDkRVrSMp+xMRY9iX7nI3EJnxmbfvSuD5coZDt2Ju7DUPOT/RPi8BQ4hDJ5SVfR4IBq8loodsFstB48aN28gKfLYUzQna58kep3NBVxeeVxBykOBTweBAh4Q7VSQntQZqyaG3fatJzMQ1zYZ5zfSJnncefjp0ZJENRxVazKrMPyk9Iw/e6LURcc30XmJ77JlVdF+vVZpWLgBuQoCd1EIaY1CLgrDMoihXSCnLTEV5H3R9ASCW8MhxM74QF3icztWZziR+WAWDnIfNwGIrCWApEdUKgHJCHINC/MpTVvaMPxgsI4BSbGFiTIIocaArm1wZDKntWWUmXQ2dED/tsjIwBwRbGfaEuytTeeXr7ZcS2GpRlJNLS0s3xNFIY7F3CeD6cperJhdpcMaPw+E4hOMacmmf2iavIHRBglXB4K8F0W+70MU+2TRmwIuVFa7zHlsc8va3yzssAo7Y0ws1JWzZEFWOm+Ut3bqn59IXxq/WNE49XNQm7XR7XW3tIdOmTdvl8/RrGrtmUqGrV0fD4XFtYZDTralK007VAb6yATyR4KdnjAL+6PP/Js+eTQLgRkJ8glr4GjItbBXgf+25FdL1k0ubTOeTr5eXQK4SuM3jciVdoFitaUEEGBoNh0/PxUUQd+uZ5rsej6ch1wkl2+UVhC5IcKHfP8yByocCibnn8yUhAZNwU0NUPFRsNX8lBCjdSciUq5A5PW57M170DDa/tMTrjSNi7s8lHhDVgpjoTZWDQXT6BLf7X9WaNhEBhgDEKbnPTq1DiBcW2mz/fuWVVxpSwZP45mItLDwJDeNcFOI7BDANABi74DsJhSDtxzyR1pXLWcSYB5kCbnE2AysnrIRko1Tsz9skv/bekcAvPC7Xncmh2JoGUgYA8cloOHxVNkpCdwUn5hWEbnjwi6pWHFqgGp/mD5xuEGYPdcFfHVPC100G3NKkK69v/M+az7JBBOyhae3xbquqqg4VihICxFG7DgPEqIF4gh3xc900ZwEA32rS0Zp/DUQMcfzbcncLYibH5pw0ZgynLTKdc1YMnQkK70w/9Ltkx6BYiJgpKBIT4zB1dHxLJGMu9viDyE9g/5YAoq4iHlxWVrYpKYj4u1RS8ikQHQoAL3tcrlYKensC48BEUJQhHqeT8RS6peSitXfLwPtCJ08vDx5TYCUGAcqXPiQBfhzNBv7FruCzYZ2GOVSoMIgGb9hmKbvp6jxwkqZpRxPA3wngnBRT/2oBEGSQIn6UCdyBVe0oCC1PG/E3Hqfzd/yf/hUrjgLDeGcXiiFRFFo+3pmcMck3KJO63+w0IgMQOfAw6TqIzyrNmKwZMFZCEmCJlQWGwE9Xtw/t5PxU9gMJRBTEEUm+kV3KdknJBpLyNhDiMDCM18vLy6s6ksWcOXMsBw4f/uCmjRuvz5Y7paN+s3sh94Onlc0Sl/prTrIK8428fpCN1LKvy5s0JsU7CHSwgmTh9FKBUJQg6WlrLqaIgbdOqnD+bm7V6gGF0FijCjg8IsWNDVuGLZ05s4TN0vt1eeaZZwZFdJ3xCU5DxDWqEDeXlZW9xUJJBBUywiFz0x+X8rFtdVYgwKNvrFs3M2mN8Wuaj1HgEvWTvAiZ3u556FyYGJOoifzBZ6tFnCwsxcyaqni0smokMDJibElgrpx84OJ+/UrsycU3WRRlRFsgMuYuISLrxo0bXx0xYkR/l8vFwbq7lbirUIhzCKBWmOYWt9vNGUndVvIKQhdEudS/4gSrMN7OKwhdEGLnTY2oib+HWOE9RUVhfVMj9LOq9DuF5Moo0ceKUEZY0eyng9ogDVkUM+Hjqy91vs/mZF9VaFmBlcqbY3BDsyGWdURL3fk09q0aTLkd6d/fzqmobVfGMK1r1qzRR5eU3IREnJbIPAyt3QaI74JpXmez2T6MGsYjQPRdAGBiJ76Zc5fZ+PnZCMcQytwwm1TE3CwPKQtOIC2y6yE+3y7EQ+xbGyS/mt6RANGbI0eMOK2kpPXFJc58GgiVFlnE86WlpdF0k+F32OZwVCPiG2Sa93ZHUGLbcfIKQhe2gS8QOMwucH3exdAFIbbXlEACQp0h6dOvLOpZh5mmEg6Hyev1hp/yB8cWCwrpEj40o8o4b5rMhHk+7dQBDni95VYMsl7Ha+2mbWkzRM+dXlmm7U5L3QNr2Eu75IPHWlDwByT6CbM7JiwLfFtvRsSNgNgIpsk48QoIkYQ/jisQ8Q8sAJvzO4wpSH6IE/EHfA61oDYiMvgYuwIyPZu6AwTpGwWlhTKa594d/e6lOyA/7V6SQAMDIvGZ1na8BHLoDlPC00Y0/P22dfj9WLFixUjdNG93O50zeuo8y/Ql7CV57V3DLPVr11sE/GXvmnXfny27DsKmmGKauN4q5AyLQpUIZGe0vcYY/mjyBOfjPt9z/aIQO92iyge2bFCOnzXrGy173vLQkYWCqi0KHRP/uAFIKalBgkALyqKvGtXzf3B5aZwlMF9aS4BNloS4jIgYF2G0RYhTCgoKdrJydsABB8gxY8YYCQsB+TXtV4yOmOjBICI18VsyW6Aj8bJ5fzcXRAIymWERJXKMAbPbtatE7opB6O7HmARWMgmACUqzDqDs7gnl+9v3JMCYI26Xi91yacvCZdpPC61wFxF92iQGnjLZeXZtsmJ1MPiAAPgq0tx8XyYpx7lKL68g5Co5AFjqDy6zCBrfhS7yTXeXgLEzgj8qttEPFIBRgN8EucVjEUz4x8RyF7MNxgvfdlPTgJ5aFprtUOlGRVD/dMI1JLzREFN+/r8hjlWzx46NE0rlyzcSYIpYtNlGVJSVvcVpi8nDpyoYHKNIuYN9nH5N+zkATGJExKQrIWERYCsDf1TZydDxR5VJlDoPEuTbPNdj68Iu2OfEbLvsXsjwuWei7GTYVb5aXgLfSIAALi13uRa3J5N5vhVn9XcY/4xvfMKNugl/1FWaZzXhQasCpuFwzFKamkZ6PB4ODu6RklcQchTrEk07zwawig/DHLvIN0sjgbhPGIWJsLuJOmzgY81688+v9HrTgh2xsoC2wt9bUc4CjOe771YkwWfNMbyu8dADV81s4/fLP5D2JaBpmosAHieAjxPBi/3S1U5xHZhs8WEypg7iEfgjz0pa0qSfxDWIv1OJvhgxkYMP+U9cr+W8JNKzSHHsyqPl+WUTF9GVsfJt9x8JvLGjqOjMGWPHsgKatiyqrj7boSirU3FkEi45ETbwCZByTpFNfJKaAdHd4st/3HKU6HK/9pgi4Mocm+eb5SAB04R/GLHwxUmLwRyO4NWtRdeNv3gLd+fz+YosNsc/CWEDAQ5HpIFIUAcABykCB0cN+NAi6KCYxA/rmk13npch/UNg/6a2cuVJEItdCIhnghCPkZRHAgBzJGRbOstOSFpxkmcREoDJcQgJvAL++zfxDS2xCdwmaVVoe4ZxQFcypiHOL5HthFPrI2LcddKVPvJt8xJII4HZHpfrtvYk87ivZqhVMQ4tsmJNArDsm6pEMUmsvoqbAAAgAElEQVTwjh6NjGX+kp6Ubpdenp6cWF/u+/FF1QcNKlTWI+ZvFr31nPgC2WTgLYYJ9VMnOB/mcR/w1Qy11TbGikc4LJc5ndvbBur4fKuLaqFh0ECLuMUkKDBIvtbfhg9LwubNYdvImd4LWXnIlzYSiCsIodBPieMLOgk27FB4iHonAYecDpn80LftKglmxApG0p2QWpeVhGQ6JccpcB2Oa+A6uywNXSBp6owhMqt9k7CCtARidlFpyWrgfOW+IIHWz5zolU0bN47tCK9g3iL/SQOKlHV87qUG7EZMMdc+pP+PPGed1WUY5UwEk1cQMpFSmzrLAsGrLEiP5tMbcxBejk14o0Yk/i1qgLApYIvq8pV+1kGLN4frhg+00z8qy50Hte16zkJtiNUqbiYD/lckmh6NKEU3W4FO1QEjUyeUTslxKvtFMz6Unn322aGRWIzRFDnN8cAsF54M9OMPPN/kk8oAuw4Yd4CtBBwImc4VxFaAJMhSOiWi7d+SeAjJ8yypVDDGAX/oeeqZnnVsoniRALYigJ0AXFmuu3V1xCZDoj+s4/8VWsy7COFuFWAt5d0WXRLrXtb4HgA4AVooyrcoiKVOp3NdR2vw+bXXrEhgktgpEJYCyN+riAdEpTxxYg/GHLSdU6YvzV72PHp2ulX+wCdC4OE9O0q+9zQS4KN+MwIc2BjDhxt1cfewAvMNRLBFJbz5wZvrzmwLo9w2iNHne9/qrRylA6ez5UtGEqiqqTlcmObbAFCYUYOWSnzDb2vi5w83/53PHY434Jt/ujOIFQQmdGqvZHIL57G4iESgY/y/EeB9alF2Bqd2jgA7iOhdUNUf93M4Pqyvr/8lId6MiO1nUXQiDCT8GZH5pMfj+Tq1qj8QfBSQrspClvmqe68E1sPAgaOjX3/dXFRUNPzLL7/c3BnS4eLq4E9ME4cWWOXlhhTLIgbeW6zqdTopZ6CpvjNhwriNvSWOvIKQpaSXa6G/KSC/n2WzfPUcJEAEpkHAroO1AHSsinAId8O3QskYCAQFRBAmhMdME7VLx5dxAF2+dLMEOJvB5nDcDojXAqXPDmkzZBJXgH338aBCDjLkwML4R/ob5MI4ZTNbUROZCtyNCUQRQGRlJPV8Sip0SetBJkBMrGgkAZ4EEp2LiNskwE0AMAwAjgKAekT8CIl+5nK5+ENOcSz8k09eDYgMRZ19QXwdiPx2q/WBi1OAqFiOkf79Lf2i+kpEOjP7jvMt9iYJEEBIOhzTx19wwfZs5r169Wp17NixRnVAW29K3BqV5q2Xj/c8k00f3VU3ryBkKcnqgMY31pOybJavnqUEiMCIEb7THNa9xQXqHQqCBwisgCAIcINp0vuRGMyJgfLylXkK5yylm1t1v6YxtfmvM2id+jHn6qkuhnQf9mS8AbfTE3gK31gAAGQKrHY2RFBRjgCXrKAAPORxuRjcKV6Yj4IVBSKqRMSAALjZNE2HxWLh8QtMog86sWK0J4ZP+hUVHcMHfGqFpwOBk+3AAWfUjxC3ILQou/myb0oAEaQeVQ6ZMKF0Q64rXFK14jwJ5vk2FX741rrCYbNn935adl5ByPLp+TWNfUcnZ9ksX71zCfCt88ummJgrAAxD0iobNa8VVsf7FgWOAMBIUwxuRoANH727NphnZOxcoN1dw69pv0eAWZS5q6HDFEEiqlYQ/0YAfySAQdBCL53ET0jGFSRjGZKgSqxMJLMUOlsi98H/tntcrlYxFIFAYCoJcS4QXRHvhCgIQsRMKR8QiHcjAENH53I+3u5xuVopUVVVVQOkYvGqSH/Np0x29sj2jd/ZYBbR4bveCteaXFfk8/kcVofjLQQ4QjfosokVbmZp7FXXaC4vQK7r3Sfa+YPBVUDERDb50k0SIIDI1rBwX+Mtey61y9mzSYwaHfzIrtDBdVGcNHWiq7qbhsx3k6UEEmb3DwCRzfKZFA4OZPyCjm788Y+pX9MWAcA2BDiOAM5KZCIkI/75A8+54kw7nTyvOFuB3ReduhkI4ENAnFXudD7fdtJLNe07FoB3kWiG2+3mOcRLAk3yWiL6ZUJpyWS9yTr3R8Phm1PBu3xVodE2Vb4EAMXZdJSvu3dLICYhWOlx5Rzk6ve/XCxhxxtC4BHseouGwwU9iZqYTtp5BSHLPegPaJsA4/7LfOkmCdTGxLlXTCjjA3S3snChNkQtBpvX5fqqm4bLd5ObBNAfCLwGiEzelFFJSe17GonWScTrU03rRPTbcrf7Vva51tfXHwCKcj5J+RArA20Ui3TASMm0xlbBjC3xKZJjHtjSwNDPT7mdzqnpJsxKz+mnn+5IjRNIref3+4tBCMY6+XNGC05UQoDFNqv1qtR+ly8PHSlUegGRhmfTV75u35BA1MQnVEHHKginZDIjCfBqWMrxl3s8mzOpn/bs07SjHRIfE4LO4N8l4cadpj5qRkXFzlz7zLZdXkHIQmLVgcCPEfHeTG4uWXS7X1fVTfz8vbfWfjvvMtgz24BvyybRjUj0LLbAFRYXFxe/xD50NnEySQwHEoZCoQES4GsiSotQyTccZkRsQ7L0BQD8PRmsF1cEGhvXAsCJidVyquM/i4uKLhk7dmyEaahjhjGNiP6Uat5vQddErrsLvjmRvsiWBAu2xCgkAZVauTUQYK7b5eoSoJk/FBoHRA8CUaaZSwaZ5rfLy8u/bKVwaNotRHRbVzIj9swu2b9HNSX6xnuckx7z+4sHo/gKsWNLkAT8vDYsTumO2Kglfm2yTcCCZNqOHhOHTphQ9nlvPZG8gpCFpJ9aqn2nyAbvpSOZyaKbfNUUCcRMfCsixX1Tx5fOzwumdyVQHQj8AhHLAOCM5AGUoD/ejIg7oCWQ7itAjCVwC0a1s/djAuBUnr0BYEOi69hdAEROT+IGxemmxx57rLJ+/fpjJMBrqSRMBPCeGYtdNGHChHj6lt/vPwqEuBQAJiT4HhjNkLMfeJqpLotkcGN7gpvfUFd3w5QpU+q7KtnVq1fbG8PhC6Vh3AfYeYozEk1zu91Pth13qaYdbQE4DwD+1tU55dv3igRWhXX9uv+8884no0aP8dmU+J5khtgtvG8lwQhVwNHJmXAAdSysnuj1juP3p8tl8fLgdIeVnuAALVbfG6Li0Ml5BaHLcu2RDuJ+2JKSHRmmevXIHPaRTpnSt5EAwgRITTreOXl82QP7yNr2mmX4Ne2nAHBXFhPmDzIX/l++qXNcAD/LdW6XK64gpCs+n2+Q3W7/USQSucdms11EinJMgkp6wK76iD9wl5X9PYmG6fP5+ttstqGI6JWMRwAwKMVlET+jE//aj0NAvMzjdD7d0fpYceHfhw4dim0zD9K1i1sTpKzJIICxQQBMGz58eKikDedHlaZdJABWZiH3fNU9JAEj5ca+uKrm1zbV/K2UuNSI4g1eb9mmBQtq+gmrUVLoEM8AkEUS7DRB/MCG0u9yuZq7Ou0lgeAPbEh/jUcmEmzXEU6f6HL9t6v9Zto+b0HIVFIAsKCmpl+RaW5P4MRn0TJftSXXPb7JTUPCji1RZez3vaUfJHN+8xLqfQlomjZRAnBkdDr3QDYTWuJxuZjdMW2EdVUgMAERFxXa7UMvvDAOb42aph0hOYAw1SIg5V+FELPr6upiqbf+QCBwsET8JOFiYOz5OMASIyQKwfAGcX6G1JLkf9gZDYeHtQ3sSrpMDCl5Xi14+IhhlPJCKcSR5U5nux9vVihsDsemTIMXCWBueRsXRyI4svXas5F2vm6PSoAAdd2k9YCiYcemYWfMnFmi+3yvOoR1+0oAbJhY7mSr267iqw7eZlPoN6l/I0nN9abtsGkJnphsJ6xpawsaopsvsVvpFBXp/ySRbEYclg5SPtu+s6mfVxCykJbv1Vcdtu3bmZO7I5S3LHrcf6rGJHxi6OIysFi+ro/ubLq2spIBano1ZWf/kXZmK10WCJysInLabvyDSkSxHBgSTSS62u12P9HeqBznIBHf6VdYeHTqLT0YDF5gAtSk8j0wW51AvN5VVvZIyv5Afyh0NpnmagCItvHhJ4GT4kGJiTmkQjEHd2zbVvn555/HRo0aZausrIwEg8HfSIBfpHGXsCuF4xr+3iTE7yc7nfyuQ1KJZXKw4QD3E0ASBTFpxWjr+kg9V+tBVU/1XHLJR6nyqQoELhGIoQwsEZk9zHytbpOASfDOO2+sO+nWW2/lYNf4GcXW49GjTz06Fmv8KDVDhX974umaiwYWSrYgtPqexkysqix3js92YqzA3nbbbThq9JhLbQow70wcwVQSfKlHwoe1HT/b/rOpn1cQspEWAFRr2uuY8Ldm2XS/rh42cckkT9mkvFLQd7aBpmmnc7R1yowygTCOV0eA90jKn6mq+l5ZWRkHI6ZV9uLETytWjAPT/B0h3upxOvmjuKsEg8GBzPNgUvwGxnEHXMKc9khENf2Li2/kAEZ/MFgJRL6EMsMuWXZtJGmiOUjxBQR4GxEZ6OgWVngE4u8k0UeAqALRz5jVEwCY5IbxFjpjaAwjwNYEs2R/doclXCo83/ZKe/JjpWNtVIgJ3rIytj5AdSDAwYqtbp19Z2fs9zOJSgmr9Gj4Mq/XGyd04308d3nosCsnONe3lY6vOnS8VchnTYBVCoILU9JZIwb9eVKF+8eZSnSZv+ZMIPMXEzxOZ5UWmi+QWnPGSDmyLXR3pn3nUi+vIGQptcX+0DlWoHlC0KFZNt0vq/MGMwl21jUrJVdcWvrpfimEPrrohD99RWJ6GSsH/JEVAJNdLpeWydL8gcCTgMgH3VKPy1WZrg3f0usaGy9HgDnQQuAUBcQQEtmlaf5MCPFtQlzMt37OeeSMCQD4JAGVHGYrBiJullKy6+KGuBIvxN1AxDEG0wDi6Wl7yvIXlQDnvL1u3dpktg5bbxQUixDo4MR6MxFlvk4vSkASNuiEE2qj1jVD7ZF7ec9LwD+QhGEIuHZ8ednc5HR8zz3X33vhhXVL/MFLrYI4OHWXAqpL/MFEjzOjoNSnlwW+a7eIBUTUIASMTl1uPK83LIZz7ENviaHPKQg1NTU2KeV3mqVs8rrdn/WWIDIdJ24uBWBs7fbSvTLtar+oFzHFv+olXXnNeCf7XPOlD0kgEAg8QIg3JG7/SdbFzmYYRaKz3W73v5M3q2AweISU8nBQ1W2esjJOY2xVqjVtGgLMA8SlHqczrYKQaIB+v/9IECKIiJrb6bwpEAp5TKINenPzW7aCgl8AEbNLJgMTv1AQR0spR0Qikf9a7HYXSrkGhfAl8Bp6+3xLWlHajrvToigHlpaWMjfErrI8GDxOSPkqIuYBlDrbdXvod8OEj4WADQLh/OQUiGijCfjSBLcrafHaNTtfddBnU4gzHXYFz0qA5ytcrgvbLmHO2rUW+xdf9Js+fvwuroal/pprrMJ8OJ05Ls5wFlMO6gp8c7Zi7O0XqNP5rV271pKM+mWtzNbc/O1Nmza91xkDVqcdd2OFqoBWJRDKu7HLfaor3lRhA9+2q/L4Jl358+Xjy27epxa4DyymasWKQ4VhMENjv0RWAq+qU54DAni1f1HRuRxLwMq8w+HA+oaGR3Zs337NjBkzGPFwt1IVCFwrEP8OREs8bjcHM3ZYAqHQZSTlApPo3PFu98tJRSQUCp1lEv0RAUoSuAfs16hBKa/xeDwbZ8+ejaNGjVKtDsdKJNoIiJd1NlYv/M5n/VK307mbe4392ieMGXO8IFqJiHnwtV54GF0ZAgEiOuEj9dsLfxo7vtic2SY7hfvmdNht9Y1vWlulPsJnKOWJHo+H3Vu7ysKlK4+WwjhickVpaMkLLxRGamsLChTLnRYB7eJ2mCZcOb7ctcty0ZX1ZNK2zykIbSfNh5Cu62NJCEt5hibNTBbelTpV/uBzQtAFXeljX27L+bp1YZhis8AV3nLnRRxwvi+vtytr8/v9wxDx4DcikbdHASgMTNSV/jJtGwgEzidExp4YmWjDfvIk30Fn3dzmcblma5o2zeVydYpfwVwEoChTd27f/kh7SkTqgDU1Nd/STXOVYbGcO2Fca2pbTn+0Ohz/RIDjOdWSEP+GRGFViPtM07S+8cYbG44//viDVKuVb3F/7GwhvfC7YVGUEaWlpVvbG8sfDL4IRLkxR/bCAvJDxCVAEYMunVTh5jiYDouvKjTVrsr5qYeeLvGqiR7n46kNfYHAYWDinVaFjuczAAgshHFK8l2AYIn6skmHx4qtcHVYFyd7K8re6mwO3fV7n1cQeKEtEaSjj1YU5X/dkVvaVeFVB4I/wBbilXxJIwHeVNubxXVCpY+mT3By5Hm+tCMBpgDu37+/JQnLy+71qmefHTr+4ou39LTQ/Jr2OwD4VWKcDomVUubySDQcviUZvNXVOQZXrjyOYjHGU6glohNIiEOByAVSzvV4PPPa9p+wLhwOiFcBEQeQsQVkGBE9Rqb5my1btjQNGzFiCgJwzANzpvSFM27+m0VFV81uw/CYXFtA01YSwEVdlWW+fc9JwCBYFq5XrpwypbRT0K2lfu3PFgE/Sm48RiCtD9NZ07zfuMyfXPbM8CJVf0EIODLtrIlMQiFNSRtNKZY26XBPkUUcO2SA/cVM8Dq6SxJ94eXJaC3+YHAsED3cJOVZXcG3zmiwzjRE3zODrA7jRQQ6rjv62xf7aDZw3mUVzhamvHzJWAKsICxfufLAtjfnjDvIomJ1IPAzRLyTAYjawRNo21sTSHm2x+N5M4th2q3Kiv/JY8asIoCzE3EQCgcmmlL+vW779ufTWRtYobLZbNcS4nWIeDQHcyHiLSbRhxbEA4UQL5umORgRT5QADwJAR1kH3bGMTII7uQ7f+j6IhsPT26ap5TMauuMx9GwfUR1u9o53MQR4p2Xp/7N3HWBuFNf/vdldlWvuFQymBdNMM706CRjfqVyzcAE7DsXJnwRSgZCCCSWFhBBIAoZQ3XW+O0krnW3aQQgQwDYGQnWwKW7gfk1td97/G93JnM9XJJ10J513vs+fbWnmzXu/We2+nXnv97z+qxRGT0d1nK8TKijRp5EQvvG/9998TwSpVlcHjmQyf44xUaX260Yk+EhisQuocdoU1OSLow1f7kxk161HpVLskDMOQq2qXioBPEayXOacOvWdFO1N27Bar/enjDFRl8FoHRAQN+1mXb5tVlmxuEEbLUsREE43CdpfzsMSYpQj/rIdS6h4qIltcfGGLh7Cb8qMzSguLhbnqAcdGS31eMYpkpTfqMmhlmjjzlGmvAt0ZE1A3CpJtDmiwQSFYQUQ/5wDq9/VDGv/b1Yrz4DX7y9Boqvb3qJrnXZ7nGegS+Q8fv9FSLQKADYoklTR1NS01Ww2y5yx86KKsmbalCl7fH6/YIl0AOLouF2IGOJEm9qKRomdi3gjIPoYEMcT0WY8mE65oyOQiGNwkP4E8AZwvo4Y+xIBjmAAeQQwAuDrILgsvVwOabV0wlVE8LcjDxv9TEdmzI7ALHIHTpFlPml6+dexAstrA/dgtPnXwjms9fqXM0bTiGArYusRn3gQh3Vcpkh0IQIMa+H82BlO59b+Bj1nHIQFCxYoJpNJ6k9vqv1i1fjqLmHIbwDilzPGijphc+vvte23+REgEuHoqXTaegxI6zcljYkPQsDr83kAcSoCfEacz3U6na+IioaKokSsVqse39oUb/G62TzcBOwmzvFYQipQGHyLIUg6QFTn0GSWYIggKxBN/CUOVuP/1wje1kNHn+1ynSTiHva32tpakQkxvsxufz6R5fGuXDmRwuHTGGMvixRHSZLy42f9gUDgHM75bg5QBlbrUxAMCsbIM8UDutRun+zz+Y4ixGdEDAYiCh4FkWHxndr6+sGsqUmkb17QzfFESs5BIjYZfbIXgVgWgc6erCgtEUGEXcZViWdBVdXK4Xv2jNwrWBjjFolU3h37mkpNEi5DIApG5avzTNpSItyhE/80osPtQOwLIqycUVEisnX6veWMg9DvSHWiQOuF8JpFsu4pk4EvzkYd+1on8SBojOCjjTu23JBNmSd9jUMuzice/BE5/zqT1vxwF2xtuEJVbYzg15KoyIgJBzXuh0MEsDZH4PoZ5fZHO2LkVdXrnPaDP+8OS3HTFd9feumlXDzo2/VFn883DhGH2Gy2d9auXStvbGw0FwSD0Xi6ociY2rJliyUcDpOiKLIsy0du3br1/dFjxnwGiF2WZW6rJCmm6ur+aTgQufgDSEBnAuKNEdPhV1ccGDzbfujTT6/OHzQ4etf2Jrp73kz7TvFdTU3NsCA331Vg5tfFs4WinLl1zq2EcoBFGv/5/vvvU7ZVtTUchAQuikS6rPAGJknA6xmDgkT6D8Q+UQ4fhTnMVqLs874k8xiIWPaHTQuW+c4YlYdvhjR0N2mwqFARuwA00irxRxs1ZZBF1p9TWoOqenXfEDEPQV351oyyqS+2t1PcRMvb5YQnioEnEDgHOfcD4gdAJB7sixnA4ihjWF5S8nFXctochN8Dotgt2CgxdoPNZtvj8fl+iYh3JTq/0e/QQkDjbE25o/jsRFlh3W6SyBSoCXHLdwfJLS8g4kSBWFSnX/x3/bo/HnnqqUVzy8r2ZiOKvfqhZ6NB/alTrc+/nCG5+lOH/phbJ/gwrMPiHWbp3hs7kMH0hz7GnKkhUOMN/E1i/AYxusMrcJhaTwk6pl+lNJFO8FpLVHJdVVG8OSUBHQaJYMezzz5bCQaDo9FsLoRIJGKxWD7rSEzUca4n6ustQ5uaHiCizxjAQofDISij0aeqSwkg1eMxY/cgHYuaxTKEY6DpVK2FWayiYyKqxut5rPCoxTKjFaKeiAYwq8JuX5LI+P7qYzgIaUTe4/c/jETz0igyq0WJi0cD3Lw7ghde24c1yrMalBxUbsGCNUr+kK+OK7DozyLC2EyaoBOE9jXLJ+RLjVs7VlnM5LyJyna73VazxfIFIA5LdIzR75BEoFHjuLrC2S0zaKfA1PrUVxnCeTrHGeXO7suR9zeyhoOQxhUQ6S2ChzsevSIq06XrrSuNaqZFFBHsbY5CHcr8J/2ddpoWgw5BISKG5imP5+giSXlNQhKR9BlvIgYhokGYiN313ttv3pNtZ64en+8WRPx9J0AYOwMZvzpyZwIiCka49NtpzuI/JHrUELduWW3dVAn4/L1B3XHdTOeX2Wy14SCkcXUWuetOLLTq/42f0YZ0+QoZtd/ISOcAYo80tmlUJaOidA4f7ThszCmdUY1mdGJDeJcI1NbVHfP2G29sSvSBK5yD5T7/z6wMfpcIxXIGoOdRndbtDiu/ylf005Ar3sF5+qaejgWEHoJddV9L9ESzSSrWdGUVRPetT0cJ3JqampFMlrchCjemd3EWGcDLEJl9CITCwYIRLtfkpmRVc7vdQ81m8win03lAGfBk5WS6v+EgpBlhjy8wD5E/HBPL+WhFUfaGNb6ZIYkSsznfohz8WxulWTcmwCiW88bmkAGiiJjdbhc0zQnRWi9YWD1m1GDTp5g4vXJG0Ii/lovARcFRQAS7vty29ZiuMmAW1fh/U6TAzZy4ta2iIxHBR0Ed6xsicpWZgp9/Z3pZSlVDPYHAKch5Txwrxk5CRq6E3BLKCdZFdGn5lWXFf0xF82W1dcd8+HbiDn0qc6RjjOEgpAPFdjJEGVcZca34qIXzwwTZRa1X/QNjcHOap+q1uNjit+Wnxy+Enp4uOsED5Q77Tb2e3BDQbwgITpFhow5fqMjkAqKsugeI7dqmKNynNSq3Wyz7oh3jFKo96uuyBGd3Bp64donTPklij3PET0HXW5Do4+3bt78WdzhqVPVUBeBCDaCIIb5TlJ//fDAYNHHOJZ3oQQCYdXCMZr8tlTFxdiNAGsfqckeJK9ljhuw262vtsurmkCugdafnElUdnkf4JiKN1zl3lTudVW5v4DIz44KUJZtaOKqDP6SxNQxhj8RoIkMEGbkFEWYhgrmN+rPj0chdTrv919lkiKFLcgg84Q5cNsTKV2MWb6NHdWpijIU0Dg8C4wvjpd8XVgeuLTLxgzgUukUAcTMRfY4ALwDAzwHA3NZf+BRfAIDY3ROkTYPbPhd8CvvL9SaHbqe90y0vDSoZItKBACd8vdRecp7hIKQDzUNExgN1debDNf0tCeCEFmJnWXje/0hqfkVCOrGvINA47JAQP9YJ3iKg4xjgsZxwjyLxM8W+gU647Z3C/CM6KyCzqNr/Q4tE3wxG+K2KIt1qlWl/TQWdw1/LnfYf9ZUdxjzpR2DRorqigiJ9GyK0pxpO/0Rpksg57dNQmsMkWM84V1lrJcdMtXQfIcQ2NgDxNSDahQAWaqVVjhE8GS23EQhp7I9XlpXckqgVIt1x657msg3vlFTPn38AsVeiIvq0n7GDkCG43USSWfXvJoD3Sx3285Z6607PY/q6DE13gFgiikS4fLqrtPj9jvMtr1Vf1gGbwxpbZZZo4szyGG1ol+3v7vqCMZamHRKCRXSK6uCpLLWX9YUdxhyZQeCRJatOGlEYfUPUAcjMDJmRKm5WPR2BZWbm3kklol0S4gS7vZVVz6uqogz1T3on1Rjd3wiIeJmQDvOnl9kTrjnzVM1zw0ZYIk2JBOP2t31ifsNByMAqPFHlLw9r0r7R+ZoHEPL3ROicz94tfOuk05v/YWY0m77e4kzb7OLGGSW8VQb+v2jI+pzLdZkohXtQE6QybZHu+PTq1Xmzp0xp7kmJJ6v91wwx0T9FP064bWsIz7ghQYKQnmQb32cOAY/Hc5HVal0XLyUdn6nap74tI8TY3IzWAQGidYB4Wi+PGDr6MU3A+QRnW/Edn893BCEKhsf4UYexDLmGAAKENTbLVVqSFNHRsppVp+Yr0Q12u70lF0w2HIQMrJI44x1q5R5oe0PjhB+UOWyx44Van7+aIZWne1od8Kl31q75bqJpbonOv0BV80Zw3CwxipXN5USRr0LWkfO6cEASlWv0Sw8C1dXVY1BRztRCoWdkq/WEcrv9bSG5ZhSRnYIAACAASURBVPXqkSwaPf3LLVteiAfoLapSL7ea4F6ZGc5BZ+i38ZY8AAA/Tc/qHCDlIwZwRvzB4PV6TwfG3jCOGjKAdB+IJKJtwWaaNGNG4hUXl1f7v71355aXcqlGjeEgZOBiEjnmS7z+qWaAn0gMzmUI1r1h6abZFVP/vlxdNUkB/SEZ6Yw07uBQJIqV08ptNek2x+12S2Ep7+4iE+0/Z9sXZTfNLi8RN1Kj9TMCIp8aAPaZzeYZKMs6co52u32JLxBwRkOhNxoahu4pGNp0CwM4TkKYhikUWOpnE/tq+vcAoIoBrNQRRflpEYib1vsjIT7JI5GfiXoT4ndlzsubRpwfyRDnEMAJfWWoMU/vEBDbQ8EoXjOj3PZ4opIWL/YPkSzw2w/fXXNTul/iEtUhlX5p/QGkosBAH+P2+H5jZngbiRLIoeBYl8vVtGDNGmXw5i+rLRK3p8N+AmgxSdLQTJ1rCfpZUKwfmGU4Uuirc1hX7rSf+eSyumNIpssAoUEi+GR2Zcnr6bDHkJE4AqIcs9PpbOxqRJVHfcgkwfcSl3jI9hSBhLOdNtsigYBXVcXb/aR0OwkIUG02mea0P/bx+/3f1onuBIAJAGBtW4EvkOhBQvwlAIw8ZFclCw0nwFBTEM++ylXyrlBPOHvpIOrKQlPT6yFno4HZoNPyGv8jVoVmhYKWsSI24PEq//lDzVzUsE9LKhUBNjc3wLhZs2x7MmXvk25/yRAr+YX8EMelVzptM+M/jthnUv49sysSj+bNlJ6G3FYExE2Ls7zrrSa6P5WyzIcijgTwWqndfn7cdp+q1hHA1HRjgQD/dNjt18UL+LSXX1tfP9gSCg2eOnXqZ15V/QNw/hhK0gdiVzLdehjyUkOAE2hhDSdOL7d9UFOzeiRJ0ffDzTRhZltp59SkZuco46LL/LrgstpAjVXmpfuC0kN7t8OPd++eGp1winq2SUGfhNBrDnyd0F3usE3PZJC3iEUYRfQOAI7b1qwd//0ZZZ/GoROBj2PGnGkZOxYgV4JvMr/s/TeDWI+TTpv0b7MM5xoPlsTXgQB2I+fj4zsyXq93OjC2NHEJCff8d57FYguGw/9et2bNqZ1tOfvq6r7Jdf22CGNXmXX9Q0A0AaIMRGmpqJmwpkbHAxAQJNzNIXbujjxcLyrXVtX6q00ylUcZO6uypGRN+87VHrUSLMorFVdcsS1XYTQchAyvnLhBV3lWXWeStIdCOgs0RaXvXOu6YreY9nF33YjhVv2L3mY1hHV9oqu0NLbdlcn2mPeZsdZocPjMSud+Otql1er8KMHaUIQ2FlmkKcF9X/1j7ty5oUzqYcjuHoGna/wnD1Io49fDgFwHok/Dw4ef6Dr//KB4w29oaroWAB5Ks60aB3iYAcwIB4PjXC6XoMje33x+/zUE8DcE+HLdmjVHj7HZpPG7dpn2EZktkUiBJEmDwpp2mMTYOTqHCYD4ic7pE0mCD5HYeEb4eRS1vYAYYRx+JTG4Ot1HJWnGIzfEIUbDGl35/qACVfDHLPV4LsqTpXokkKKIx1TYbBuFIUtqAlc0R+gzObhjU35+vmAD1XPDwIO1NByEPlq5hVXq3HwTPBDRoSq4b+f/xR6iRLiwWp1WYMK/M4yxuSXdOEA0GgyOcLlcnaY1Ji0wyQFVHv/D+8K45NorS/71eLX/aBPCb0Ka/BPTIAwnkkKZ5HRG9x4QeGBRXdFhhfqTMgODqyL1q+VRp802DxCpLSVxA6S/ZgUnonDEah2zZ+PGlnHjxrGpU6dGqv3+4xWAegAYLaqpI5HD4XCsTNUUQas9fPRhqsxoSqoyjHExpquPw5z9weWY+iRiK8HRCo//XkWin4l/hwEOd9ntWwYaVoaD0Icr+tAy/8lj8/gzIc7uu7LU9qf41I8tXHn8sMHaesGylqw6GrFXyu3FF/UX1aeITSiy4DHljpIHHvN6C7UwniqBabvEovLcSvuHydpj9O8dAtVev1dm5OidFGM0Es10OByx44WVK1ceH9b1G4HougyUbw8QwFAkOhkQxe9FMJ22j00S9SRmImJQRwxGWlpeTfaNdFFVwFZg1m8AwAsRocBY3eQQIIIvd4ekU77rKt7RfqTHo85GCZ5CBGrWzYfPcF6+NTnJ2d/bcBD6eI2WewIPBcO46DtXFr/Sfmq3x/+ERaY5RMkFjmo6qOVOmzPdDoKgix7dBEWyzIdHkb4T4WxjActb3mwO8qEA4a4yJsSxiUnSLzTpwVWC3z7Zm1kfL8eAmm6B23fEKCtuRIABU1q8vxYIib7lcDhE7Yb9zauq6wHg1P7SqW3eHzrtiTP3HXCPqfVfY5HpAWp9ETFKWne+kBGNwwcygyN1gtc0Dm9DJHh7x6JhYuiiat9ZhSZ8sSmMT82qtP1fP18XGZnecBAyAmvXQkVMQmcPc7f7PRMzbapXJNofRZ2IaqEou+nKNHMSPFrjP2G4As8woFFBHTyahqOKLHQxEYRF8UedcOuukHzWNdOm7OncFreVK9YlEQ2XEEofzamc2lMJ3URMNfr0gECN1/+OxCiTdQoOmTVAgDri/CdOp/OjuNHeQOAy0PVVkKbso07ATKQOhGDguyU1J4FwkafuZBPXRjNJ+rvC6Lj+XFAikTKNmzWgVRYJRKxHvzahj8bxt2EZ7ldaWkIdY0M6U26FNzAprMNFs8pL/tKvymdocsNByBCwqYhdXqv+warAzeJCTbRxghejoeC3U3lTf6qmZphZUQ6XAcKV9tbjAHFmWTj88DsA6CvhCFgUPn5nGBYPM0nnAdIRQHSKSaLpBCgB0Uad2P2NYXhlbltOcFzvRdV1h0eHWndaGoInzHAWizevJKxK1HqjXxyBKk/gr2aJfkhgpMOl8arYCwDznXb7X4XMmpqaYZKibIYUjgLTqBMA4hqnzXZWKjK93pXH66AHJEbHtBtPGofnZQbfTkVmgmN0nXA9UYzr4W1EXheNyi+Gm6X1+cP1IbKui6qamW6RKIdnkMHLEsBEIrqMcyYDwmtI5I7o9MH0CsebySgRC0KvqmKp3H+Tmae/+hoOQn8h38m8i6rrzi0y668l4yAQQLhhj2nY7Nk911SI3eS86nUMaQwBOwIAyhnSYM5Baw5Lp13lOrC4k9v97KCIHLnoqvKSGP9BvAlynp3N7OShBbiSIQ3iHKNRoioJ2YJyR/G/RRCPSLU7ZuJZcyJce/eaSucB6T9ZBPmAUEVE2+9paPxcYjhmQBiUTUYQ7SoqLDx88uTJobasBhGpPq7fVETcJyNeWlJSIpzulJqq1g/XqfklbKsuSwRNIQ2+l6fAQkoze6RQUDxkghpe7SotWbx0qW/kzJnOL9srvmDBGmXE6O1rM7n7xYneQsZ+UGqzvSrmJiLmUdVtGrGbpjlty1IC8hAYZDgIWbLIC5aow4fnwSJFginJvGoL/ng9Ejm6oqJCvNl029xut8lszdsMQAdwL+iAgSEF+aWTJ0/WepLR/vt/uv0lw0w0ExlORiTxcNKDUXgaAF5mWnAZl/NvurKs+A/pjo9IRsdDoa9YV9lifYkBnI14QIDboWB+xm3UAc4vt9tfExP5AoFbua7fnS6SsySVDxHRnaUOxz1Jjjuou9tNkmIO/EPsOPEo3BdR+J48xK0ZsQsxGtHgW9NKbS93pfeiZb6zCvLZIgT6Rm9t62S8phNNKW8XU7JggZo3bBSbB0AlEY1+MNMIqO4UdsNByMDVmIrIBe5nB40wh/4nseTTHTng+miw5ZzOAmna67J4hX9KvplWtV90ItiKFKs01yVdb3f2PL7Ce9UwM3uIiIAhWoggwhG2NwQtk5mkRxnT7tkbbfnhUN00RDNZNGrGhkR3O1LB8VAeU+tTNzKEow5lDDJhOxLNczgcj8Rl+/z+HxLR3QBQmIn52mQeEI8gXgTEtrjNZvsoEw53rLhXOLwtnQ6C0JOI9AjHmdOctqqesBLb9ctqAr8wyyRq2AzrqX+i32s6lFeU2mv39yfCFR51sSLjDPGZzvHDMkfJib3B1e/3D9mRnx+cO3nygOKAMRyERK+yPui3qLZuapGsC3rXpJpg94pE4KeV5fb7uhvo9akbAOHY9n3COta6Sm0V3cUIiB/u0yvUkjnTHAccNQg5ImvBYo4yORxujkjSYLBaG/73xhtNgh3uiRXqhEIZ/ylLdAoiWqH17CQY0rEOI9o9LlfmyZ2SAjKHOz/l9l04yIKrECE/h83IStUR8UaHzfZge+UCgcBonegjIirqI6W/fMtmGzu/LQc/3XO63fUFiqVpK8P0OT0RHR41oXm+w3GZcDwSuq0trvKXF1hI7EKm5zpGgGBYOm96RfF/4pgJW02Wpl3xwmVhDc5xldlF7Y2U2/LawAzOefSjd9fW5FIxpp4MNhyEnhDq2++x2u8/CjT4tSzRd5KcekdEZzWNwejd351RGgv4qa+vt3y5O3SKplNzoVVXAeDojjKjOjxQWWr/UQ9BhPjoEu/I6zqcHQpZYntbOOHtg3QeXfLcqPz8ZghH2Al5Et5lUeiCjvNqHDYFNbj5qgr7iq4yO5K0/5DuPr++Xp7Y2PS+hNCvkekDcREI4IORw4adef755x/AeOjx+eYh4sMZt5nodcGRwAB+Zrfbd2ZqvqUe/215UmxnpNdN5/BOudOedErokhXqBEXB30gIkyUkQRbV66ZxWKaHj57jcp0UiQkjQo8/4Aagb2k6PlhZapvfiyBqXLLCf5vVxOdqxN7SNP3JGRXOQK+VzhIBhoOQJQvRUQ2Pz38XItlFGdgkyVm26AQfImAhIh2HAEM44A4kPqzj9mGEo5dk/J6rpGR7sjDEsh1GjL3XKsNViBCKcLjX5WyN9n5iiTohPw9+R8jWI9G5EtAIJuHEqM7vApIGRbhWo8ggNYXZsGtc9tpqr+95ieFROsGevWHpr0pwZ/Xs2bObn6ryTQ0RvDfP5fjccCJ6XqFqr1olM6jsuafRI1kEYnUaEH/utH1d4nc+ETvd738OACYnKy/B/uKte7PDZhsfZ+9LcFxK3Z5a4T19kJm92VseDZ3Do40M7piTIrOgKDRGJusUqwyBZAK2uzOaA/65zG6LsR7GmwjCFsXzUgKrbZDQVbZYv5IQRNl1COsw3VVqX94bmdk01nAQsmk1OugiHoo+37NjOItUMUiOH6FHswj0JoYjZtl6VwHS7fNfH4mgYuLNi7qie37K7TtCVljJrDJbp5z2qqrmbW/AEw4bwv77ha5LljA/dk6l8x3xVnz47pbDKMKOQimy+VqX83892pXjHerq6sSWdZdEVN2ZV+vzVTPE8hyHIKvVR0kqdhQX76c+VlV1OAcQkfHp3rlp1IguRU3bXF5e/lVfgeJVVZGlkVocC0GDTvSWFjaVu9rqzaSq9xKvd1Q+Y4K6OE76JcKcQoj7y2EnJZoD7Ijq8MPmPQXeuXPTFyfgdrut5jzrdiCIHTVxgjfKHPZzklIuizsbDkIWL05cNeEoLPeoV5gYu1ZidAUA5KVBbT2sKCNdV7QWjsrWNv+JessYS8upCshbvztjisjUSOgsM1vt6UkvbyBwMRGZTIx9OHXq1C2eurpTyxJIaVvgDpwy2kpvg8GD0BPEvfse8XVHScl57c/U3ap6mAmgBgHO7p1wEEV9mgGgDhE320tKbk707L6X8+4f7vb47zBL9JtU5LVE6NoZFY7HUhnbcYy7pu6bFpP+vNhBEORsGuFnOuePKgzuTDWQUjzsdE67dIYXxnlfeqvrQrf3+CIr+y8AyEKWzmlpudMxs7dys2W84SBky0okqId71aqhGI7+zMTglg6c7QlKiHXTiMOLToft8vgNyP3eeybXSW1ndMlI6oO+bverVlJ2ffFlVDrhxg586H0wfZ9P0bpz5Bv51ltv7Zh4xhkXlTscL/WkRLWv7kcy6gOSza0n2/vye5FNYJKkw4qLO/Dyq+pMBFicsi5Er2uyXDnUat05efLkcH85wj6fbx4lGVdBBJ+HdXjawob80em8MKVsqI641dbVTWW6Xic+5xxuiYaD97///vvaiadOWm+We80Wqu2L4sTZ5bYPUl6vtoHLa9VfWWS4s+2/weaoZJtZXnwARXdv5+jP8YaD0J/opzi3eIA86fEMGgwwGGR5PBHM0gg9sq68qeWRZg7rJwPjHgAY0tkUguEUCbYCQpQAJGzlMhkGBLsBUOdA0RDhj2c4bdkSbINPVwVutVDzn3tK5UwR0qwdJo4ciouLG3pS0KuqIsOkpKd+xvdpQeAWrmmPlJWVCabFWPP5/dcT0YIUpe9CogpHAo5givITHia2zBWL9RmGcGECgyiowY9lGeoq7XZR8TJtTQQ/S5I0LBQyhzZsWLMvnhmw3Bu42ML4i70tX60RbNgTUs69tpdHIctq/CfnKfSO2OgQlXrDunTfVe0yJtIGSD8JMhyEfgI+09NWe+suYKiLMtJJRxK36UY6wAVxgphM69uT/EXV/p9GdVw815V8QGVPsrPxe5GBsrexsWRwYWFAsPh1paMIkrJYLD/jiHcmGcyajWbnik5hQKwhxL+uf/PNN8XDy+v3O4DIm6ABHIhENsIGYGy1jPh0SUnJZwmOzXi3xbXq2fkyrEbxAtJ905rDdNrMSsd7GVeqbYLq6lVjZLO2EYiSrnzbUceIhjdOKzswfTVZOxaoat4IHX2MkQhUDUd0eEQ2sX+Ul5R8nKysbOxvOAjZuCpp0klQw+5tbKpP8G3goFmjACek66yutyYtqfFehqCMm1Fe/HhvZQ2o8UTo9fnOJMR6RDRK+fb94j7usNmura2tHSopiqAQ7raSJiLuBs6vCoVCz2fzbli1V/2VzPZvnXeJakMIL756WtcMiZlYjhqf+rKU2A5Ht9PrBG+WO+y9ihuZP79ennBKcJLVpC8ngsMJYDNDODzKcQUHeFpiNKjCbl+SCRz6QqbhIPQFyv04h0jlkcyheTKDozjRMQzxFAIYiQfWnD9IQ07wRdSknJYtQYxPLg9USBLA1ZUl1f90u4de63JldXBlXy65OHJS/f56ArikL+c15gLettV9n4R4t070CwD4eRwXItqHiIK+nJDoFR3xwSjAh64U0//6Em+3J3CKWeJvd7eVL6KFW6Js6szyElHaPS3N7V59VBgjR149zS6OETptK2r931dkuh8ABAdLAwJsIIDTk43J4oAby+y29kWrkrZB/PYWVdeVF5j5n3UNn4sQNsmMj5YQDuOEm0mHpa4Kmy9pwVkywHAQsmQh+koNUUTp9NNPPxkY+73GqVBCOL+zqGACqC2127MmZe6fy+tu3jzSeh9ceik/rjawuGnHltnz5s2L9hVu2TyPOGYwWSyCgrdXN7tstjGbdSMijoiL9Gj0bklR4uWh9zKAk4PB4PZp06aJGu/CmcipVuVRnzNJ8K3ulNY4BiqcNlu6DKv2qFeGdTx8ZoXtz93JrPX5PmSIx3OADdFg8FxrnnUrJzAnowcB8GCYnzMjDcXkqr3+F2Tkl3zVIB+5xdT01Tck698LzDBL53hbNGR+ord8C8nYlc6+hoOQTjRzSxaqqmqNEtRLeGB6lngz0Dn7XYWz5LbemqSuXj2BRyLXIdF6u92+yBcI/ERG/Hcz4kYFMb9s6tRPe5pD1KmwgHbKHNfUf/fU91D8Ppb14Pf/RVACi38fihj0s83i4R8CxFeRsd+Bpn2padr28vLyXYnq5V25cqLjiive9fn9IsVwBHB+p9N5YNXDRGWlq9/iau/FhWb2UndkRREd5kwrtQtq5LS05bXq7URs/fTykm7jOaq8/qUmRtOJcM36wvzzJjSGTrdIPKRrVCtKWSfyIyCArXsKCo7pTf0EwfFSaGG/D0bodlnGaUCkaVHteS5JVCDj/RHC9WZG0zjRc+VOx9VpAakPhSSCYx+qY0zV1wjEgmwIVrc/04sxkmjsxOm9SAMSOxVnnHHGpRzxKbHNqnN+tcTYeOL8IZMsHz116tTdK1eulIuLi0VKV7dNOAijzS081YJSPckfKN97VNUOAL9FgNMGik25YIdIfUSAKBE9Vupw3JiIzsKRExwXjPMfAuc/YowV2duOHrKINRQ9Pv98RPp1Z0cNRLApEgoe155mPRHbu+oTy1ywWP/ZvNf0/Z4KulXV+KebFFrarOMNM0tt/4jLXKLWD1d485MmRj1m9BDgq6V220E08MnY8LTbd5TVxA6vdJaIMve0rMZfblHgd5xgI+r5M4LQbLNK9FtxzFTmsOfcDp/hICRzNQzQvstqAt+wKtwN0JrxQACRkCadOL2s+JNkTPZ6vaNQkm4hIvFDOLGNkU0EbT0MiFuJ6EIEuBwA9gDA50hU5nA4Nokb4h133CHNnz8/Vm7a7/dfxBEHkaYJJjWQJOlTIjpOkqRdxcXJ6ZSM/gOhr8fvPx+JBKVs2UCwJ0dsEJtu4rhrNzL2E0dJyVKht3jgFRQUDIpGoyGQpOuRcwshHgZE4uz8EkA8Aog2bd+27ZRsPS4Tv02v6n8VEc7tuBZE1GSS5eGJOPmJrKN4qZhwyhk3MD20oKcAzuU1/rstCt24L0gTZ7scm9rLX1z93NF5SrCGMZwo6i50NrdOuKiF4x+vKi15NxHdOusjsFnhq/tHNKo9NLPSKeTQcq/3YjNj9RxwF+dwq0Z4oVXic0WGw76oVDw7xzgSDAch1atjgI2r9foWMIbXx83SdKgrd9rsiZ6dPlFfbxna1LQGAE5KFBoEWEgAgkZ2EgCMI10v1XW9QTaZbgUAUayqNZUJcQ0SnVxYUDCku5S/ROcd6P1qa2tPQ0l6DhEFP7zxG++bBY87CTIDuJy3xhz8GoguAgBRJKhT9lNE/Jx0/eRs3h170u0/c7CVXuuYRssBdjc24yWzp9sEk2BaWpXH//B76/N/MH/+5NjLQlfN61Nf1gibKpy2qZ31EeWXwzq8JyHtAiBRypkJgjgEeCWssefee/vNe3pbdbHKF3Ayol8xhEdL7SWPih2EJ2prB1t007EWM38RASzi/smJ9iLB0KaoNOt/775R1dt50wJ0gkKMm0eCQA30bjXewGWI9HMkbkaGFwt7CaXfOkumzo+zLcbOuuvqzgyGdJmNGf62q111O6/Xezww9mGGcNpBjNlLS0pez5D8ASdWpLg2NDf/A4iuG3DGZalB4iitLQak21TH9uoTwA9K7fa/Z6lJ+9Wq8flfkpBi94XYvYFgZ3OUTbLIdG9Uh99OL0+fk5AIFiu86mMSwpF7mvW5stkanl0+5aB6FU+4A6MFb4pHVRsRMD+sgc9VZitNRH5PfZZW+0usJrp+/dq1ZR0f+FUe//lmmf4djtJzHODDKIeFFpmOZyDfvG933tnprAXRk569/d5wEHqL4AAaL3J6TzxxhyJb816UgER+MNcJPokQ/oXptN4k40IEDoSsEYG+sS9Ej2x8z/7TM85QLyXEauiZWCVltBBgdygYO+800hsTRFFkN5itVlG/Ii1lcxOc9lDvJo4aYrz8iezecE07p6ys7I1sB63W5/cwJGfMOQCI6sSeCkVhoVXhDwPRtnKno9tsh0TtE47t9l0Np8yodL7V3RiPqr6OAGdxwveioZbTuoqDeHJZ3TFDC/iGCMef/nfdm39Nx9v7oir1WwUWuCESVK7trCiVcBKXVPnP0hmdq0v60xYuT7YocKOEcFFIUSa4rrgiZ4rOGQ5ColfuIdRvea3/KpMEf0CkzxBgeFulOs4J1muEd29TWGBYiP+uQKEfA9EjgDgDAAozDFELEO0igJ1Mku6Nn/NmeM6cF+9VVRUA0paGlvOA9I0BsYJiiKiLgN/WN24SW9zis9jfbQ/aJ5w22zV9XZApFQgWVweOtMr8GYnh0Q0hukzwFCx0e48tsrIYY6DGwfPuW2td8TiiVOaIj1lYvWoMQnTyVRVdEwzV+lQRFzFJ8LlEOK6qdJSI49CDCrk95X72CKsSGbpn3Kj35k2a1Ou06L+73QWDpbwbC2T9wa6OhRYsWKDkDRtTVmTGv4R1/KeJ0Q2IMEzYF9XpV5Wljrt7g09fjjUchL5EO4fmEpzsAIdDKNTIigZHXgeE4zlhTZm9ZIY4V1tcq/6gQMEHugoCyrCpezjAFaU225pEYyQyrE/Wivf4/VOQSNTUSHjbO2uNyV3FxINLxCGIuARrzFEA+EyWpOPTFeDXF9C43e6hJJlPuLLC+YqYb3l13QUWk96aeowQDevKiS5n79+OxUN4qJz314Ydo783b17nD/Ul1b5rzTKzy4wcgLiPEY212+0tmcZhodvvMFv4epfD8XlXc7k9gScU5KXIUAEiUaI65hy0OlL4uonRN/tC13RgYTgI6UDxEJCxrMY/TSH53xUVV2wT5sZonJua3mcAx/WT+YKdbtK6devWp2PbsJ9syPi0sbiRQKAYiP4EAEe3sc9lfF5jgoMQEEF3saMHIoowgPMcDse6XMZp8Qr1uHwzfNRW7A2QaLbD4ViYDpuqPP6LOPBJV5Y6uqxQKt7Uh40a+3eZ0TURLi0Dpv+iuwd3OvRaUhO4jAGdPb3c1ukuwAK3e9Bws/UFqyKd39TUxJgp71aTRL8RHqLGYZnE8PKgJp05o6xn/pd06NtbGYaD0FsED+Hx3kBgEnC+ElqPIfq6ibcxhog/RqJHgsFgLOq5oKAArVarPnly91HQfa1sNszn9XovQ0nyURoK3bTZo4v0rba346a2vw83nJCvV1tse3MiET2v7P8UcY3TZjsrG66J3ujgdpMkW/ybJYTRCKCHovKlrvL0kJktWLBGsQzZNnKOyx5Lde6qLapWywoUeBIRisRpTpCzcz9an7e2pyyIVOx2r1o11BKJfhol2KgDr3Q5nftjCZ5asXKilUf3MjMNZsgWlDvs54k5ltf4f2810c1EgM0R/DEBDZpVYb8jlfn7Y4zhIPQH6gNkzhht8xlnfAKI4/vRJOGcN1JrCpP4t0QATcT5/YokPW6z4sgQ6QAAIABJREFU2QTngtFa31zR8+KLg1hT01MA4OgFKF8Q4nUUjX4ky/JXkiTpb7zxRvSSSy5hjY2NYwnxVQA4rBfyB8RQ4RwIGuaDjnc4n+F0OpcNBCOrfb4ziDMnR33hNIfjk0zEU4jKpu++G6Qbb+ycVG2Zz3duHuKrouSycFI1Ti9UOB2dpj/2BvMVtWqdIsPU2CQc64Nh+fqrXa1HKsKhGTRy+/cAWF2RGTbHj47E5yPGbJ3Cif1c1+E11Fp+0xPHQ290TPdYw0FIN6KHkLwYW+KZZ24kgCOz1GzhHLyTZ7E4L7vssn1ZqmOfq+V2uwdZ8vLmUiuhUvsH+TsA8D4CcFE8AAD+R5yPZ4iTCGAEArxGjL2hh8MPdUcj7PP5riXER/vcsOyYkIst97aHVWyX6wC1iBa9tW7dHONYLPHFqvYFHpaBX6kBPA8EoaiO/unltpiDJZzeZTUrf5Vn0gVFdTx7RDzAq6Y5bVe2Jl2k3oT8Ko//LFmieyVsTf8WTThCOqfdQPhkWIcnATAyvbzrEs/iOGTIkCE8XayTqVuU3EjDQUgOL6N3OwTERT967FiRRjcyy4F5R0L8gc3Wt2VpsxwTUFV1OCE6CaCMEf0pGAy+3NkNLHaTrKpSEn3zqampGSbJ8kpAFDEPO4DofUD8BAGGEMC12Y5LSvq17hQQtGYpdHVf/TAcDJ6aKI4p6TEABy3yBE4pYLwGEY6Nm9cSQduMCpsIvo0xVioW61bWLhgQAL4KB4Nju3ogr1BXT+DBfZ+5XK5gd5BV+9RaGWO7bQc4ekTAIzq7Jhjlz4assGdeEgGSS72BSTOcJYJULuub4SBk/RJlr4Jr1qxRtmzbJt46J2Svlvs9/g3r1qyZYLy59d1KiRv3tGnTouJta1FdXdEgXf+mhjhOIvojxVky+06djM3UVs1R3Eu7u59u0BHLy219SyiUMaP7WLAoilRkZr9EpBmIUMgJviRO94SQln/81ls7Tj71zHtNMtxIX+8ifOmw2ca2z3J6oK7OfGNb7Zcan++XYS49N6O0c/I1sTt60uln/sbE4FedZQBpBEvGDB927fntyOK6g2T16tX5uxoj42ZU2D5aUlvnmNVDMao+hrfL6QwHIVtWIgf1EOyJhPg6Ig7KdvUFuYtJko4uLi4WOx5G62MEqqurD0dFGV9mt7/i9fs3YfYeSyWLjNjC7vY+SgC7ZcRjjXiYZKH9ur9wNsXOy2J34LQCC18D2Jq2SwTbtzI88f9stj3uWrXWLEOMKRERdhTmF4yNByvX1tYObuFs4qwK57960kJkaO3a1XSUbIL/IoKom3FQa4qia1a5raonWfHvxa5aBE3zp5fZfpjomGzoZzgI2bAKOaaD2+0uMFut9wLArD4gSEonOs+Rrn+3tLT0i3QKNWQlh4BPVT+h1pTLAd8Q8R+F+fm3TJ48WWR5GC1FBNy1/msgWvLktGnA3TWBX1hMtD/NUOO4QZZgQYuG/zYj/7XMQFRyJJ3gw2goeKFgXxUOQkMDSXPmdF2CWxyl1aj+pxjAxQxj7KPmztQVD80ox79VOJN+2Iuh+2Mi5tfXyyeOHMlcJ50kODKyshkOQlYuS3Yr5VXV+QBwe3Zr2al2Ii3vcafdvr8oVQ7akNMq+/3+oznROwSQn9OG9Kz8SxrRT8rt9vUGmVfPYCXaQzA6hmRtdxFJj5gkmt5+XFTH1TrRSwrDMyRGleK7CMeKaU5bTVfyH/N6CwtBmuxy2nxuX903Tag/n8hDUefwaLkz9ftIVa16qU44XZFwSYWzpMddjUTxSXe/RLBI95yGvBxFQGzzmfPybEh0b86+ASK+67TZJuboEuS82l5VFTfrAV2KGgGeQICb7Xb7zpxfsCwzYLHfP8Siw3d3bh/9wIjR25ZL7MBriQN+DJxUTcc1ksyP0Tiex3W6Y3qF482Opgj661qfGpAZfpsTvYqIguUyUX6KXRqHpc266c54oagVtb4KHWRd0/X3ZlXaN4ggblHGu8arfg8Qzi532L8b16HWpy5GhPFEuOOrsaOnpYMGOhNLZTgImUB1gMr0+nwvQbtUn1wzU5TW5Zw/hkR/cTqdYsu3VylQuWZ/X+vr8XjGRSKRne0jxT2quhoBLu9rXfpiPkKMMqJF69auvdYIhs0M4qIAmWy2uJt08/ctUvRcMyNvZzNxgrfNsnTx3hBVSESfXllhq+/Yb8kS76j8QiaImJKmIdc5voxIX0U16cFmDL9dgPJdMqNpiCgDkQmQva9zGiNJuAmJDg9GaHp7J6Xa53tAAryqIYIzZlfaVmcGrd5LNRyE3mOY1RJ8Pt9RJEnfdxQX39IbEpNY+eCmJvEjuzCrDe5auZeRqDZWcZKxPCIK5VksfzL4ETK3mq31PCASTzWL7UBZrdsBYEjmZu03yXtRUS50XHHFe/2mwSE0sbiWonLBdAn5IKtMD3RiuiguF9wVCh4xpKAgr6K4WDgCB7wQiBiAUxub6xlSUvc0AuANQTp2tsuxScxb4/PdDSA/P6TQ+upLO3bwswsKUBCHHXnqJUX5phYLNDfvaJ9uGeNEGDXWyYmauS7LxPjxuyzswSM4Pzui01kup/2+RYvqiiZMGBmclIYCU725LAwHoTfo5cBYr9d7MTD2N0CcH25peR4AmlIh6/B6vRcAY62FWXKsIYAGiA8C0WACmNtWNIcxgCkc4GxEbCrMz3948uTJoRwzLWfUjaXEbt36MSAKUq0Bd98hol+UOhy/z5kFyXFFq71+B2j49tCheVt27mt+0yTRaR1MorAONbqOK4no+MbxY37Z2TZ+tdf3F5nhj5KBQ+P45wqnTZCMCZ8Da3yBPwODx0UK6+Jq/2QZdF3EnZgVnKJI0r3FxcUN7eUvrvZfY1XofkRYUGa3/6yurs48derUyDJv4EJFox06w3PMCj0IBI1hnT0SDlP1uFH5H361t3m6JNPrlXb7hmT07U3fAfdD7Q0YA3Gs2JJTCgrGjxo8eGs4HDbv2LGjJVmiljZCJEEpekSOYhQCRAmIBB++CFTcCBArMnMsfc3hIMpJb0PGHgfOX3A4HP/JUVuzVm2fz3cEIYo37IKsVTIFxQhgzvq1axcZxwopgJfikAUL1LwRo/E/yFlZNKqHzHmwCahdvYvYsxt2coDgF7J03O433tBvv/123jFgdFmN/wSFwUpZonEHsV52ohsn/LxBi5wxp7w1G6K62nuBpOC/AHCnxulumeEdiEBRLjItYdPeFm67ZoZza3tR97nd1sNl8yURTd5ylavk3fh31T7fWUiwlDE8pv2DWSd4qSUqXaWjKWiRQhNbivJfK9odHI4KnVnuKOn0iCVFWA8aZjgI6UJyAMsRTobFav04ZwMTv14bnQA+AYBXEEBwtYtUps7a+qKCgrP2NDWdlG8y/W/KlCmijKwRr5CGa9yjqisQoCINorJBxA5B5Oew2X7Ym+O7bDAkF3Wo8vrLOSc+cnCBf2dDs9vE6KDgV/GwDkWkbzOmXw+AwcpSm9hBjLUFS9ThefnyMAvXxpgVfEGkOXaHgzhaCEX5tOnlzv1ZEctrAy6LzJfHx3GipiiHuyO6vEhCfpMZlHt1jFwDiIfrhMPCOv5hTmXxW9W1vqsjyD+eUVr6uhhb5fHfG9HoEYUHN4I5/zIz41VEpCOwqEa0estn0jVDj6BvSDp3yRI2SYzmMvGCQ/C6rkO1oKFmGvvS5Sr5Mp33KsNByMVfRh/rHKu5MGnSDUQkSq8mHdDTx+r2NF0YENcA0QXddNwERO8AolMUgkKADQSwFRA/AiLhVKxkALW5UtO9J0D68vu28tMv94B/X6qU6lw7igoKjjCOpVKFLz3j3M8+OyjaGL6cNPZegUUTpG2d7U5FBMMiAgRbInC1DpE3LbLJxcPBx1wu1742Xhfxll/Yg1bUEoGKGRV2EcsETzxRbyka2vyczGL3EiKCvYiQF9boBleZ47GOshZX+4+ONORvnTt3cki8dIXBfKwiS0qezCkUsm52uVrrxQh9FEt+JRGfBAgnI8DIlij/niB5qvH575MQfgAQ2w09oImCdVEN7p5WZhdp6GlphoOQFhgHvhBBNMIU5SGgA3OPc9ByDkQ7AbF39SOItoEkzXGWlDyXTo89B/FMWmVxczRbrSIeRhS/yc17EOK/nDbbJUkbbwxIOwJLq9XKsCZtUxQ4pkDRHwSAos4mCWvwksbZBp1hoFDmt0d0nO0qLXlXXI/clD/XinxoBGCkgjQPEHcBoQmRRKDtYCFPI/bplk9xQryq5LIa/8lWhURNBXOU4zpO9GeLBIsBcbfDZhvWUYeltSvHW2Ttp7pOG0O6/FqBSX8VWp0KjQAljdMvKxy2BQsXLswrKBzygKzgXM4pKtgcdQ4fcZBmyKi/gghCp06bIIcqd9hPSBfIufnjTJf1hpyEEKivrx/c2NQk2O9E9LlxzXyNGmcA19rt9icSAtLotB+B2E6C3y/ItnKRcGv77oKCo+YaQa1Zc0WL60kc8yz0eo8tRLYhVou0XRPFlfa00AVzp++PLTqA1TDeVQQMWq1WvPTSSyN3vPgisxUW4uat2z7XCRuIaCyPBMe4XK44KyY+7faNL7LC/yI6ewGJ3WeS9ZrYw14He0vD7n/Pnj27OS7b7X7PxEybbpUYbtoUal4xVraWB/ftrB4/frxWWFiIn2/eftOOL7f8VXAnqKqaxxH2NYfp+4jskjyFrmp7Een2/osAKx12e3G6Fsa42acLyQEsx+Pz3Y2Itw1gE3tjmjiyeB05v4OI9hQVFb0b53/vjdBDYawIfh01dqwHAdJ2Q+sL3EjXzy1tOzvO5HyBQGD0LllunD1lyv6HTCbnGyiy3bX+MxUJ/sSQLo3bRAARkySN6JhRkIjN7rq6EdOmTt31dG3tkHhwYnzc0qWecdZ8tkkj9kil0/Z/NV7/WxKjU0XJ72AUvn9luf3hROborM9Sr3fsRw7H9tsBSFXVSRykCwlgMiL/JnbNRLraabdfkeqcHccZDkK6kBzAclRVvVQHeAahQ5TwALY5RdNEIOMqZxo9+BT1yJlhqqpezgGylijmoBsm4geF+fkTDScwOy+xJStWT5BlTYFI8ybZbL1DYngjAMkEGB1UkF+U7pgRn893LiC+FuFwc6XTfu+SWv9VEtIlVgmuiXB+WqXTKardJt3Ejkh1tXpiZaXjPVEJNRyN0jVOZ6MQJHY5WqJ0I0P+cwlhRHvhxGF1qdNwEJIG3BiQOgIej+fbTJZVIrKkLuWQGblTj0YnlLelQR0yVqdoqKqqwzmAyOuOnfPmQHtPZqykpKTksxzQ9ZBTUZR0LvwybJ07t2yvML7K57+FESlRLu1TGB8BCJ/JDKgpiusie/M+FAGDop8IxG77mycDmojN4pLFBaCduz0UvHFwNE8JMd2aZ2KXhhoKauLye5K5eLF/yKxZtj3xfiJeAbg+sWHnlpXDR4/9jwbSjVc6i19pL2eFb9VJCkb/2/4zznF1mdNm7CD0BLjxfXoR8KjqTCD6LSKKKnzGzlM38BqkOclde75A4Gri/J8AnZfWTU5an/T2Oe12keFitBxA4O9ud8EIJf8ui8xvpHb3rpAGv26OSgsKoGmfJuVdKzP4FkP84z7U3i8Mh8PCtGnTpkUfWbtWtu7aZeruqGdhdeBarSFvUaIOQRtsKFIfHl/mG5OnwKgZlc63Wp2Uenn+/Mma+Hd9fb1lX2Pjtn0hOHWOy/F5e7hFnEKUYJOEsD/gOhSFR68sT72IVMflNG70OXCBZ5OKHlV9HFvZCI3WFQKITzlttu8YACWOgFdV1wPAqYmP6MeejE11lpSs6kcNjKmTRGDJipUTTUw7x6TAI2JonNSk7e8WhFhmQOx5yAk1zmFjlOAZXYHf6C18sEmm85lW5HW5Oi/bvbh21dk64afxwk3dqSeIkhpGjIie2BgZ1xTa1/Rdl0vwacAT9fUW0+6G8wCkoze8u+YJQbwljhr8fr+1s5Rqsetx4imTpppNpMZ1D2us2lVWEqtkmY5mOAjpQPEQkuGtqzsddF1ckIcdQmYna+pTTrvdcBCSQM2rqn8GgJ8kMaT/uiJ+x2mzPdV/Chgzp4KAqCezu6XlMF3XCTnezxA3EtF4ZHCFjB3KjxNs4ghbNA3XBBuVXwWDn0bmzZsn3uo7JUyLZ1HE9RJ1SNoXKROfL1oR+F2eQtMjOpWOGlLw3uTJkwWrK1Wp6lxdk/61L6jvG5yHL4wclH9GIjEuVbXqnWYZbgUAOa6UTuymckdJZ7UpUoHM2CpOCbVDfJDH778IibK2hnk/L08IOD/N6XR+1M965NT0Xr9/JRCl7ew0k8YTwAOldvtNicwhMjWuv/56zWBaTAStfumDbveqIaY87SxRhZFzzEdEhRHnOsAvOGEUkZp0Di1mGaJRDlsZ0EiGeCwH2qvr+C9FBnHsehQC7CGAnboOZh3xDOLwIgEIKmUdET4wS2TViQ3mGkcdpVfMEN61O2oZVQi4o1kJ8nyzWdFa2MiZlT0X/FqyRB1uyscrGENFR/of0xElxhcyotsdDseT6ULS2EFIF5KHkJzVq1fnhyORVyhXtoT7dm3+5rTbf9i3U+b+bD6/fwkRzcgRS94JB4NnJFL0LBAIHNnc3Lw5kb45Yvsho6bYwj96wqQTLeyoj0Ow+TCLol2iSHQ5AA3WOf5HlugtjeMg0MEEjKzIcBBxWh+MQkvL7q2vhMeNY4dF+RQG9E1EuBYQtxDR68EI3DOz0v5huoFc7lHtCmNU7ijxp0u24SCkC8lDTI7f7z9BJxKFd4xrqHXtxS7fPKfd/ughdimkxVyv3z8NiASnfU5cTwTwokmSriguLo4Fsxnt0ENgYfWqMfmK5pGATo4CLti1bcstguQojsTS6ror8036Mh3wgz3BlkvisQZ9gdT8+fPl+fPnxwIde9Ny4sfYGwONsZlBQJyxmS2WTwBxTGZmyCmp4izxTqfdfkdOaZ1lynpV9QP4urpmlml3gDrCGYzKjB1ZUlKyPf6NoOw1dgqyedkyo9sjS3wnDcljtm2fs/uHHxkdPNPp/NLt8x2lAP6HEy2JEL9vRmnpF5mZ/WCp4jrUzeZRM5wHVpFMZX7DQUgFNWNMDAFPIHAKcv7vrrjPDxWYRBGrUocjNwLssnhRvKoqgl9tWaziftUQYMu6tWuPaF/i2auqi5x2u6DENdohisDTT6/Ot1j2ccmUd8EWE3v5xgR3mOJv/HV1dUURoiNlosE2m+3ljjCKIHGm61/Y7fadXUEsZEQ17ek8q3XOZZe1FoBKtRkOQqrIGeNiCHhV9X4AEGfuMaKRQ6gJ8ndRwi2iMzaxvKTk40PI9rSb6gkEzkHOXwCAvLQLz4zAXeFgcFT7HYOa1atHji4sbPxy165zSm22fyHiQaQ73lWrjoVodLbTbv9NZtQypOYiAh6f7wlEPB0QF3DOmxjArcDYnRLAf1taWj4FgIg5P/9c8fs4bNSo5ydNmrT/KKOjvdV+/9Ey0cek6xf0lhLccBBy8WrKIp1Feo/X738EAa7NIrUyroqISieiJSKbw+FwxHKrjZYaAqqqntdGt9xTud3UJsjMqJ3hYHB0ewdB/BZEDIVwDLxe7xVOp/MArgRBetPQ0HAjMPZzrmnHlZW1sv0ZzUBABH4Hw+HfIaIFAQ4ngMsBQBJFJAFAMCx+AgDCQfiIEH9QarOJKrIHtVil1Ly8KiAqA4BbnHb7H3uDruEg9AY9Y2wMgVWrVo0JR6NvAxzIC55meOJvY1mzU8ERJ5XZbGvTbOchJc7tdo82W61i9yWXnAOxRlvfWrt2XPsjhp4WzquqNwHi9UB0IhHdUOpw/KOnMcb3Ax8BkQo7euxYLwBM7cFaAsTnwi0tNpfLFenCQShoiw0biQAf7Nq584y5c+fG6KRTaYaDkApqxpiDEPD6fG8C4qQMQhN3EESAmPCs+79xfonT6TT4IHqxEuJNGxhb2QsR/TV0R1FBwdhECG2Egm63u8Bitb5BACeI/xPRPaUOxy/7S3lj3r5HQOwwrVy50lRcXCwe7jFuI0He1NDY6APEbp2DGI8G4vWh5uZl7cpNH3wfbj3CErVNYo0BfMNut+//f7JWGw5CsogZ/TtFwFdX903S9RUAMCSDEIkflfiTHbsIhoPQ66X2+f1/IaIf9VpQ3wvYuX3r1rHt09q6UqG+vn7wvqamfyKAvV29CZ/DZis1CJT6fuH6ekZxfBCKRkXp6ZuJ8wmMsbscNtuDQg+f338b5/xOROzpnqYB4pVANEdC/I7N9nVhp/b2eL3e6cDY0rbPiBCnMs6bHQ6HCCZPuhkOQtKQGQO6QkAEaUmRiPBWizKIkkgpzIodBA4wpcxufyaDtg5o0W5VPcwMIAKw5FwzlAA8pXZ7eVfUu8KetgeDHYhuAIDz2l23e4iIR0KhsV1tFecaHoa+XSPg8/l+Roj3tuvRwIl+oDC2Tyc6CgBEoHe3DQHecNjt57ZROndZcdLr95cAUXuiJHG8IJyL65w227Ke5un4veEgJIuY0b9bBARzXETXL2aI9wHA8AzAlTUOAkrStxzFxSLy3mgpIOANBC4Gzl9KYWh/D/FbTKbpU6ZMae6oyJo1a5Qt27bdETtuIzq97fsDfgcIsBaIfuBwOP7T34YY82cOAfEw9/n9Is5kGgAM6zCTeMjHn7+JPIdFoOITh40Zc+vGjRt5V3wbXdY0IXrW6XCIwMekWiKKJSXQ6GwgIBDw+/0n60RiS+wqQByfEVQQoygKlbRGj/d5YwDn2+321/p84gEyocfj+TZK0rM5ZM5ORFywa8eOu7oK/PIGApNI11/vdssYsd5ps30zh+w2VE0SgUAgMHrUqFG7tmzdKsjkxiU5vLvuVSBJv3MWF8dKQ7dvPp/vKELc2Olgov847Pbzkz3S6pcbaxrBMkRlOQIiCGdvY+MPGOKfMnA0IHYTROuXIwdFko4tLi4W6UdGSwEBj6pWIkBVCkP7dgjRh8TYj0yMvdgdtbIo1zu0uXkDEB3erYKIM1LZ7u1bo43ZUkFAkBRpuv4QAHxOiHOASOwcmFKR1dUYRAwRwNxwS4vfbLX+WjeZ/lw+ZcpXqqpe3pYu3NnQ9xw22ymGg5DOlTBkpQ0Br6reA4g/AyIlbUJbBYmgRbFd19dOwuKigoLvJBrFnmabB4S42kDgNMb5QW9CWWbcS4okTUmk5kIsIr2paVsPR2tNFpNpdGfHE1lmt6FOkgiI9d/X2LgBEUcjUTkhitTFdN/v4lqJl6MGlKRZMsAL4vr0+f13E9FtnalNAFE9EjmyoqJCXJ8JN2MHIWGojI69RUBV1QkcYDEAnNFbWQeMR4xmwPHoVkWuaceWlZUZuwe9WMgYyVZd3dnI+Sv94OD1pHkLANymSNLDiTgHcWE+n+96QlzQjfAqp93u6mly4/vcQ4CImE9VtwLiKMF8mO6dg04RQdwHRG4EOIwTTUZEa1fIcaIflzkcPQZEth9vOAi5dx3mtMZt1Mw3pWhEPLAnft3G0x6FuJ7ShFKcsvNhnLHTy0pK1qdV6CEorC2QS6RgnZ8l5otr6r+k69elQlPbFnvzThdVKTWN6JwKh2NdlthqqJFGBDx+/y1I9Ns+cQxS0BsR/7BuzZrbkiH3MhyEFIA2hqSOQC/OncWWGiNBZfv19LGqen39gySA1ccdfbTjpJNO6pTNLHV0Ds2RbemOHwFAfhYg0JJnsYxNpcjN/Pnz2elnnimydzp3gBHfd9psJ3eXGpkF9hsqpICAz++/noi62zlKQWrah9Q6bLaKZOIQDAch7WtgCOwOAW8gcAVwngpznnAGDrpexdkatsYf9NUOgqZI0qnFxcXvGyudPgQ8qvovBLgofRKTktT+2uIc4FtldvuLyUgQOyF+v/9cDvBqV+MQ8bcOm+32ROTW1tYOlmU5YrfbxVGH0bIMAb/fPyQcDluY1ZoHmnYaQ3wSAAqyTM3O1LkPOP+j0+n8KhFH1XAQcmBFB5KKtT6fiyEuT9ImUbBEtK4IdTp1HpKcI9Huf3Pa7aJ6pdHSiIDP55tKiHVpFJmoKC6qbiHi10GuiIucNtvViQoQ/Xw+37mEKDgdOo1YR8TmUEvLES6Xa3cicr1e70TGWL6RRpsIWpnr4yaSXIjxbClQVdXOEa8BgEuBKF/EHSTAgpg5BVOQTERBRLzfabd3GtDYXqThIKQAsDEkdQTEm5GkKNuIyNImpf3DPRZTQCRox2MnCfHrs7uAH3FzD7fJy7SjECGAp0vt9utSR8AY2RkCdXV15oiuL0OA0r5ACAE0EkdWrdfaAbtPBPBGJBi81OVyBRPVpafgRAZws91ub8+ml6hoo18/IiAcNUJ0IeJsaHUUDuvrgOhMmB+7/jk/2+l0dptFZDgImUDfkNklAr7Vq4+iVjrm+BtbrGhJ3FmI3bAZ04FIBCSKFCFx8xY7CKJ/V9er+F7sLogx8ZTH3l7bWuxHhLgdiATRSRSJLnY4HGsS2ZozLoHkEejF8VPSk7WV6xaOp7njYAQIIcCwZLb3Pao6FwEe70IRDTg/0ul0bk1aUWNAnyPw7LPPDgoGg4MI4PeA+O0MV6ntc/vEhNj6IuZz2O3lojx5V0r09ibaL8YZk+YuAh6//3wkEmlt7VtPRwiib8cMhq5ASAcvgnhw3IlEz8my/FaE6P/bOxvouIrrjv/v7K5k2cIxEFoXUz4KCTVJwV9gSKDYYGIsvbcrCyJoAFOnSUhcPhxOgKQljigF2oQeEhIKBHL4SqHRwZb2vV1hpUlUkqZ8xMYQsAvkUCcxBgcDrj9laXfn9sxq18jySvv1dqWnve8cHfvYM3fu/c3o7d2ZO/d+NEW046Kmpjf9S378a97pugsU0FtFTdOBrzkczxc2rF9/ejHR3l3x+HzSOmfqZAZeH+jrm1XMjkQVGchQwwg4jrOKiS4D8NEJDmdfKBD4k6ampl3iIEyT6fKrAAAUOklEQVTwmfaLeY7j/CMTHVrmtrBcBuaD2+wq5HNsNTh936HYwMUUAz8F8zopxVv9FbUmFpsZYN5YwPwWqly+I6ecTqc5YohY1pnFRHt3xWLnEHOu0t9mJba12LapdCqPDwg4rvsAA5/zgarlqUiUYGAlpVLP9/f3/zpX4bB8L9ryFJDeQmAYgWh392ykUsPvgZsdBLMWC8mGaF762aChEasAmqMKRWTOmQutFLjP1FawLOvXxXwwyAR7S6DLdaMEhD2Q2p8JGMz3jhta/MscKz3GWn8tEon8oRgdOru7T1SplLmqOXwNvxyx7dPkWKoYmmPbNuq6pj6IOVqolYeJeV44R36OfL88tQJI7KwSgXg8Piv5QXrd8o4DmE0Z0+wW8aFrubBdCWP51lQicVpra+t7VcIgw4xAwHGcu5ho5SiAch0LmH/LBrWaP7NnqoXuIG1FIHBJQOtNlmWZqnklPdFo9GQoZfLwm4x2DzPwyqRQ6LHFixebK2Xy+ICAE4v9DTM/6ANVvVRxR39f3wltbW07hwsVB8FLzCIrL4GO3t7G+j17tgPI3mLIBhjm7TtKA/OBMPzDILsrkeuM+YAoc6QQAK60bXtrOQpIX28IRF33awBuH0XaPiYKqWwVz0En0OwSmXdZMZk1jVNhtv/Nz5Kltv1TLyy4//77Q380Y8ap06ZMeUnqdHhBtLoynFjsFmZeVd1Rx3w0cxPsdru5edXwgEVxEMZ8bmpLgeHBXMycOugOegk4mFnnuItsHATjHJhEMyMmMCGia8OW9d0ShpUuFSAwyll+drQUTNT14C0XM78lJcnKrJn0+4+Ba1ps+54KmCMifUSgs7d3WmD37mVM9B0fqe2Vqub36vsRy1rRzqzaMzcbxEHwCq/IKYjA2rVrj9ifSGyjD6qc5fr2X5CsTCPT33xzPHD2m3n5p3MpmL+PFtvAzNe1hMN3FzOgtK0cgY6OjqMmTZ68mZkrnXZZM5Ay61AHAictlbLdlZtUn0h24vEva63fA/MtRHS8T9T2Us10HJbWelEkEvkXI1gcBC/xiqy8BFY7zpwg0fohDUe6apZXVqbBABGFmHnwTvvglnP6m6X5N/N/edZ5PGLbVqGDSbvKE4jGYs1gdjMjVfQdRcBLtmXNGe0ueOUtlhHGA4Go614NwHwwmi8V2SPQ8aBa1XRg5p0N9fUzsuXIK/rLVzWrZCDfEHAcJ8JEXWmFCw8iLM4+ZrNdVsiNCCP33ohtryhuAGldSQKZCo9fAfDNzI2VwQDEwXkt9LbLARWzO0o54lRSCvi4bduvVtIeke0PAibLqwoGTS6Lk/2hcUW0/E3Ysk7O3uQSB6EijEXoSAS6HOduIkrXMhghdqBceMUEPe4jZjscDv+s3EGlv7cE7l+3LjT97bcfJ6KLMsdE2WOkYt9Z2SycZrvU5LlIX3slot+lmFcm+vrctra2A7n2vbVCpPmNQNR1TSXOb/tNb8/0ZX42Eg6flZVX7C+bZ3qIoNojkP5mGI+/AOZZQyLOC72KVgiwQrMtDsrS+opIJPLDQgRLm+oT6OzsnKWCwVFzxY+m1ZBAxIOuPhKwl4BP2rb9UvWtkhHHM4Eux1lBRDUbsMpEN7RY1p3iIIznVTqBdYu6rjnju97cXhj8Ild0tsOR6BSUUyFTHtqMvXNqY+PxCxcu3D+BcfvaNHNlcPrRR/8ewPQyDDE5583aSBJRXeZY69qIbd9XhkzpOkEJuK57hgbMMUOtfnm+JWLbt2QTe9UqhAm6vMe/WVHXfQTAsoymQ7PYlat8dis5wcx1g0fVOZ83TdElVuryiGXdWu6g0r+yBBzX7WRvKzxKue7KTpnvpTuu+xwDZ/jekNIMeDZi23LEUBo76VUOgY0bN9a9sXnzNmY+3HyjM+V26dAER6UMYRJ99DHz5EznQ64+Zh0SJnqMmKfs3LFj+bJly/aWMpj0qR6B6Nq1J1Ei8SIDXlx7vC+VSNwsGTOrN39+HGlonJQf9S9HZwKeD9v2/KwM2UEoh6b0LZqAE4s9BOBKZu4DkP1AL1rOsA4MouSwOu3ZI4cDmRSJ6C7NfNikUOimCy+88P1yB5X+1SEQdZwfgaitnNEYuGegr+86CUgsh2Jt9K2ZYk2HTmcqqNQnm5ubnxMHoTbW+rizMuq6N5tSyplYAJOjwIsnm4s/V8BjCsxkajaY+u6k9beLLcTjhYIiozQCmZwIJl7gmFIkELBNAze12PajpfSXPrVHIOq6JrOqyYlQUw8DL7fY9qlDjZYdhJpaAmNvbFdX1ycoEPhlRpN85XgLVXj04jyZ5EkpolmtlvVKoUKl3dgT6OnpmdKfSDzNzHOL0MY4jCYm5XkFfEHyHBRBTpoi6ro3AvjnGkRxecS2/00chBqc+fFiclcstoiYTTlV85iSvPUe6DZqNkYCkhp45cX16+e2t7dnnQkPhhURlSZgrsZGY7G1YF405MZLuigTAVs18KK5tgjgL9K6MP+fIrpEa52UnaJKz87ElB+NxS4F8xMeW2feO6YujPkzm/7d7KCOl4yNL09tbJwzvMCY7CB4vApE3OgEXNf9sAZ+C2+CzrKD7RmtIBOYd/fv3398W1ubxB34cIG6rjs5RXQOtO5USj0IrR9n5v5QKLSpqanJOJnU29trMmcGFyxY0J/NAudDU0XlcUCgKxb7CjF/yzNVmDcpouWNjY2btm/fnjrqqKN4YGAgsH///plQ6leejVOGICZ6uMWylg8XIQ5CGVCla/EEOh2nTRGZbSyT0c58EzRPuetwFxFdz1p/hoka6eArSqYwwwW2R+V8i7dYenhFoKOj40MA9kigoVdERc5wApkdqxgBTSXQMYHSv2Slvq5DodeQTE6jgYGBadOmvTlC6W+Kx+PHaq3rAJygAXMFvJycHyWoPNiFiS5ssawecRBKRigdvSAQdd1/BfCl9KLMXaa5pGGIyCQ8ujeo1B0Jrc9XzLs00UwGnhnYt+85+VApCat0EgI1Q6C7u3tqQuvPE/At4ygUYzgBbjAQWLFly5Y/XHXVVYli+mbbRmOxH4P5gqF9M8HcZpdsxJL1pYw1rM+tEdtelUtOURA8UERE1DCB9vb24Ky5czfTBxHp5ZZ6zkXzS5Ilr4YXmZguBEokEI3FWsG8epTuWwBsB/A6AY0MnJQpALZXAZ+ybfvdEodOd4vFYjOTWj9DRGanLP0QkSlBfTURnViO7BH6ajA/n0omrZFyg4iDUAHqIjI3ga54fD5pbdKYZp9iCisVhjUQmBMCsmfThfWRVkJACNQ8gY6Ojob6hgaTCv4Lplz8ECDvMvD28CuAlQAWdV0TwL3IBN5q5kdA9BwBD3twDDtcXRPY/UjEtj835Kj3EJPEQajELIvMnATcePwGrbUp4Zv1jk2afE/XYGZL7m8jtv2ATIMQEAJCoBgC6YJyjnMOiC4DMA9EbigQuKOhoSE1QhxBMeLztnUcZwUT3amTyVMSicRbdQ0NbwD4YwK8yhmT1eEnYcv6VL6AXk9fznmtlwY1S6C9vV3NmTfvCWYuKyNeIQBTzAtaw+GnC2krbYSAEBACuQgYZyHfB6iX5NLOSSx2GwWDnfVKbepPJK5mZnO08JcATvZqLJPFlgKB1khz89p8MsVByEdI/t8TAq7rnp9idomoISPQqyRJw/V7sr+v71IJSvRk2kSIEBACVSbQzqxmx+OfYeAjmnlNAIiVmkk0p+par4pEIgUVqhMHocqTX6vDrV279oj+RGIDgGOHMCjNSRisu2CuSaYfMhcigC0MvKGYV4XD4f+qVc5itxAQAv4m0NnZOS1QV7fEVKUFs/lCdTaAi71IKkfAbwiYZdu2SdqU9xEHIS8iaeAVgWgs1gHmTw+RV3S558yW3xeZeREPZiQzkb5dEcv6d6/0FDlCQAgIgbEiYG57zZ49+0ilVHBzIPDuNUuWJBzXfQ1E5tZEOc++fuaZbeHw7wsVIg5CoaSkXdkE4vH4cUmtXwdgEoOY7/3aFFEqVrDJbRCxrLOJSNImFwtP2gsBIeA7Ao7rxrm05E1ZW7UCzrZt+5lijBcHoRha0rYsAtFo9CQo9WrmClHRuwfZwYn5hnA4fGdZykhnISAEhIAPCKRTjQNbCDiiVHVNIjkFHG1Z1o5iZIiDUAwtaVsWAcd172Dgq0aIKaDEgNk9KHoHgYD/tC3rvGpGGJdluHQWAkJACJRIoKOjo65+0qRnQDSnRBGm29Pb3nrrgmKzPIqDUAZx6Vocgajr3gvgi5lehdZhSCIQWMDJ5FwiWglgMoCvS56D4thLayEgBPxLwHXd5Rr4QakJkxhY3WLbJtCxqEcchKJwSeNyCDiOcxMT3QHAHC+YtWd+8u4gMPPqlnD4YpNL4dxzz1XVSFhSjp3SVwgIASHgJQGTI6Gru/s00noVAZ8wyZOGyB84ENc1GLRtbnX9Dsw/A5GpnLtvxvTpd8+bN6/oGhHiIHg5iyJrVAKdnZ3HUzB4jylsYgorZVJ8FrIGX5va2Dhv5+7dn2+or//+4sWL9wpqISAEhEAtEujt7Q3u2rNnk6kACaKvIhD4DySTTwE42vAgoPuwxsaIF1+kCnk51+IciM0VIOC4bmcmbehKDfxiqNebdziiFWBeRczN4XD4hbztpYEQEAJCYIISWLNmzZGhUGiSbdtbjYlOd/e5OpVqV8w32ra9zqv4LHEQJugCGo9mRV3X1GGYrYAVGjDXHQuu5kjAg1qpBwf27t3Q1tZmttTkEQJCQAjUJIHe3t5Ju3btmhmJREzyufQTj8enNzc3b/MSiDgIXtIUWaMSiMZinwVzIKHUhpDWvyoCV18qkTi+tbX1nSL6SFMhIASEwIQk0Ok4FxHR5S22vXSogeb4YcfevR9ptaz/8cJwcRC8oCgyCiLQ2d19YkjrulQqdRSUehrMqUyipHzrUAeVmuG1d1yQ0tJICAgBITDOCJgjBqPS0qVL3x96nJBO0xwM/uKF9etPa29vLzuRXL4X8zjDIur4mYDjOKcDOFMTvaOASxmIDDlmGG0tDtQFgycvWbLEROTKIwSEgBCoeQJR172dmP87HA6bYk7pJ51UiXllxLbv8CIOQRyEml9m1QFgzsz27NkzOwXMUcwNTLQIwMLMTQaTejnnWiRgPQMvpRoabmxdtOi96mgrowgBISAExjUBirru+nQZaK1vQSCwmbX+M0V0ZYLIusiy/tcL7cVB8IKiyCiYQDQavYCIglAqbu72pisyDBZeH54PwSRSuidsWdd64QkXrKA0FAJCQAiMcwLmlenGYusYGJ5dcWt/X99xXpW7FwdhnC+EiaRel+teAuAGcyMhkwcha16uss/7ifmUcDi8eSIxEFuEgBAQAuUS6OjoCExqaOhh4PyDZDH/MBIOX1Gu/Gx/cRC8IilyRiVgPF4nFruTmVeCaAMBczMdRk65TPTzfqUubmtq2i54hYAQEAJCYJBApvCduSo+9DP8VQVcZ9v2j73iJA6CVyRFzqgEuru7pyYSiYs10U5FdB2Ac4Y4CMZJGCnl8i5SajUnk98deudXcAsBISAEapVAJpui+eI07QADolURy7rVSybiIHhJU2Tl3UUw8QRdrvsT+mBrbKQYhIN3zoDPttj2Q4JYCAgBISAEgC7X7SSghZnfVkAPgPvD4fCzXrIRB8FLmiJrVALpsqX19RaUWgjm00Fkrj2mAxXzFW1i4NIW2/6RIBYCQkAICAFgdTx+XFDrv2al1kaamp6vRDC3OAiy0qpGoLOzc5YKBB4wMQggagPzh9KVx9gUHxvxiEGDqOv97dsvW758+f6qKSsDCQEhIARqnIA4CDW+AKppvrtu3WT91lt3ATgdSn0cQJC1Nlccs6WfD1GHgK4X1q+/yIusYNW0VcYSAkJACPidgDgIfp9Bn+nvuu4ZGngCwBQwH85AMEcOhANWERAL23Y4cwzhM2tFXSEgBISAfwmIg+DfufOl5msc52xFdKsi2sDM12SMCOYyhoEX6wIBu6mp6U1fGitKCwEhIAR8TEAcBB9Pnl9Vd2Kxm5j5FACfBmDSLAcyOwQfrEfmLYrorGy9c7/aKnoLASEgBPxKQBwEv86cf/WmWCx2Qgp4CMwmS+IVJkaRiEzlsaE7CTsCRPMsj3KK+xeXaC4EhIAQGBsC4iCMDfeaHrWnp2fK/v7+J7VSTypmE7RYn3EODkqWRMDdYds2SZXkEQJCQAgIgSoTEAehysBluHR1JnJddz4CgWNZ6+8xsBHMrxHRVQCSB3YSiHb2M3+szba3CjchIASEgBCoLgFxEKrLW0bLEHBd98MJ5lODwJlQai4zWyYeIZMXwazLfma+XhH96f6+vpu9qk4mEyAEhIAQEAKFERAHoTBO0qoCBNI7CfH4jZnbDF0MfEwBxzKQUkrdl9L674ko0J9KzW+LRF6rgAoiUggIASEgBEYgIA6CLI0xI9Dd3X1MUutlzBwi5pM0cBYRPc7M8wFsJKKzmfk0IloztbFx+cKFCyWT4pjNlgwsBIRArREQB6HWZnyc2btmzZojA8Hg7SA6HMDPiejLAF5n5meJeS8TfTOj8m39fX3tctQwziZQ1BECQmDCEhAHYcJOrX8MW7duXWjrtm1XQOu/I6UeYpOKGegh4DjN3ATgz8kUdWL+LYjWQOvvKKUGbNt+r6enZ/LixYv3SaZF/8y3aCoEhIA/CIiD4I95qgkt29vb1Te+8Q1EXfcfiGgZgGPMBz8zv6uUep+ZZwA4zAQwAng0SfRPAa3Pi9j2DypRyawmoIuRQkAICAGJQZA14AcCmSuQs6HUXzHzdgDnATgLWt+GQGAuA99TWr8ZDodNkqVsqWg/mCY6CgEhIAR8RUB2EHw1XbWhrHESnnrqqTpmPjyp9flm14CIQg319Y/u3r27vrW19Z3aICFWCgEhIATGjsD/A8xT3upFGO37AAAAAElFTkSuQmCC;textOpacity=0;opacity=50;" parent="1" vertex="1">
                    <mxGeometry x="200" y="165.38" width="400" height="219.23" as="geometry"/>
                </mxCell>
                <mxCell id="67" value="&lt;b style=&quot;color: rgb(230, 230, 230); font-size: 23px;&quot;&gt;Kisaran&lt;/b&gt;" style="text;html=1;strokeColor=none;fillColor=none;align=center;verticalAlign=middle;whiteSpace=wrap;rounded=0;" parent="1" vertex="1">
                    <mxGeometry x="537" y="350" width="80" height="30" as="geometry"/>
                </mxCell>
                <mxCell id="68" value="&lt;span style=&quot;color: rgb(230, 230, 230);&quot;&gt;&lt;font style=&quot;font-size: 16px;&quot;&gt;10, Mei 2022&lt;/font&gt;&lt;/span&gt;" style="text;html=1;strokeColor=none;fillColor=none;align=center;verticalAlign=middle;whiteSpace=wrap;rounded=0;" parent="1" vertex="1">
                    <mxGeometry x="363" y="350" width="115" height="30" as="geometry"/>
                </mxCell>
                <mxCell id="72" value="" style="shape=image;verticalLabelPosition=bottom;labelBackgroundColor=default;verticalAlign=top;aspect=fixed;imageAspect=0;image=data:image/png,iVBORw0KGgoAAAANSUhEUgAAAEAAAABAEAYAAAD6+a2dAAAAIGNIUk0AAHomAACAhAAA+gAAAIDoAAB1MAAA6mAAADqYAAAXcJy6UTwAAAAGYktHRAAAAAAAAPlDu38AAAAJcEhZcwAAAGAAAABgAPBrQs8AAAAHdElNRQfnBQoNCinQTQ07AAAXAElEQVR42u1daVxURxKvmsEjgDIDCJ5RMQIaMaKiwazijUZ0N+KZJXis94F4R0g8NoJGMYcasxE1StwgMXghClEhxo0kavAiKhBAY6KCzHQPzAMUZmo/zLwHmcnsAGpYI/8v8+O97q7q7nrdXdVVBUI1QXrSk97GpsRTc1lzedEi8KdUSp02jaZDN+jm5gZu4A3ecnl126vHI+IKpEBKRQW+B1/BVzk5FIp5mLd9u10fhySHpM2bUYYylFVUWGsGrRUgIiJCFPrwS/xSfDycgHbQ7rXX6rr/9fh94GpYBav277eLUm5Wbh43zmp5awWK0/k3/JsxY9CdvMhr/35R8qAb5mHeihUUpTuuO56Y2ECQx8vjHzyo6wF4VlBupwvUBTZqJIuSz5XPDQigJCKiyEjoCgNhoI2NbCEoQPHaa7bRSlTioUO1JiQo+VQ+de9erZYxxoi07fhJfvLjj+t6AOrxW2iHsUFs0CefSPOUw5vz5nv2WKsns1aANkEZlCkU4t+ohiIoys2t6w7X47fAszgX5/70k/TgfdCDvnLeag3tLn6VX123TpKs+4wYXbpEdC/5XrKdXV13/FmH4Ywml4vzIs3TWlbICvPypBU8iB1lR0NCDIf5Ro3E+lbPAKUnWRgLa9tW/xUex+MZGbSSUijF3h6+QDd0+/ln8CI1qVNT4W0YDIOf3jMAjsPO2Lm8XN9NN0w3bNu2Jt2dRjiNuHatrvmyhqKIooiiCHd32QLdHN2czEyrFWywA3a4cqW8EalI5ednVQBEaBM442zwYFxM5+jcvn2UDr2gl5NTXQ/AY0d/eBle/uQT+wvKTGXmrFl1zU51IR7WZQugK3Tt0EF8TokUTuHOztgTRsGoKVOkeZsFoRAaHV1tARDBiBEjhaLhJgzEwNGj6Q74g3+HDjCAltLSp9AO0BYOwaElS0Q7BvrKPpN9NmyY3VWHEIeQ5OS6Zu9xofiffCqfOno0LqJNtCk+HoeDClSM1TVfdQ7tEj6QD9Rqxb2zOJqFsbB+/eqar8cNoaEmWBM8dKjYT2EOb8fbFRXZ1DVjdQ1sS2/QG0lJBAAAgYGyK+AMzjt2CKd5DI/ZsEHvDSNhpEbzR/Ej/xCv4/Vbt2zfdujj0OfcOdP3RLc33d703HOlM+wX2S/y99dtQo68QQNL7ckuQgIkODhAkp70tHy59MKWRtGopKQabwF/NpRkqRJVia1b6+Xyo/Kj586BK0VSZIsWdcZQPuRBnl5vMxnjMf6FFxqfUUQoIvLyxNfa9fwYPxYZCfPIl3xXrKh5+xiGYXfvyj7Xfar71MfnmV8BbN2dRjiN+OUXw2nay0t+UlesK37rLbLHCIzo1QtmkD/5V6pNTwwauAAXunSBv8FSWNqoUYUGzsCZdu0MLysFAC9QJEW6uRFAAiQAwCUcj+N//RUYzaJZ9+6ZtbsdkzH5wQO8ScEU/P33ugmy1rLWERH2byvKFGUqVV2Pfz2MEKaxsWxsXJykx8/l7/P309JKxmrWaNb4+GhzWAALCArS7mVhLKysTCoXxMN5+MCBdc1/PR4R2iD1BvWGLl2EZdybexcXSxNs6fcAD+WhiYkGQ5DMqkW3Hk8JhDGMGHXrpk3n0Tz6+HFhEldwhUajXcayWFZurmiZrbfE1qMe9Xh0SGqgZEqcTUpSzplD3UEL2rZtnzgHCtgKW+/fh+74HX4XF2cX6JDtkL1lS3U9Wp52iGoofS+Ty+Qffgi3oQIqXnqJboMTOKFFNR134iScJAgwjQqpMDbWbptSrVSvW1dT+ii0ZLEsNjiYsmAYDLN+f/ykgSOhGIo/+MAuVfm88vmFC+uanycN7Xt8EB+UkAAz6Ev6MiCgtu3gD0REAQF2fo6Ojo6JidWtZwNemIM5K1YAEBAAwHsQC7E7d4I3TsSJ+/Y96QHAPXrSU8+etBsRcd06CoE4iJszh6UwYrRmjRKVqETOnzQfdYZsWktrO3eWxmM4IuKbb9IyIKAffrA4bqegD/RZuZLW0lk627cvTJfdkt168UXD2+oLAIg2YclGLHDOeY8ef1T/xftp7Qm2g+14+FDko8izyLPIs2PHP5yPZSyLZS1YIN6jG07lH3xg0MO7dn3cdLUJ7AA7cOGCpN69rT6pPjlxorV6Br6+/lqat9M8hsdMm1ZT+jb0Dg2mwWlphj+HDoW1dJgO79unDWKT2KTUVCiEX+AXoic18EI4f4O/8dJLEA5bYWuDBiBgFEbdu9fkWpNrTa7l5YEMZNb9lmoP8XZTeKBx0jidPg0rIQdyunallbSJNgEAAAcOACfAD/xmzxZasr+zv0+fbndHOVE5MSbmkRkox2/wm/x8ABpAAwDAGQfhIFdXq/WKMQIjXF0BaC7NBcDBdIpO5efXmH5x98Lzhec9PbUlbCFbeO+eVQPEk/qN4lP51JIS4bRarVaPGPHkpvy30C5gYSwsOlr6kpqybWxbQYHkCWXUxyU+jbeH4uHtkenHsvPs/K5dUvtGutbqCX3ZT+wntVqsV/KO5qzmbK9eNaVv0yTd2cfZ58YNdalapVZ5eDSskEXJom7cADtaQkuaN8fJMBJGxsXRJLgCV27eNG0At0A2ZPfuTQegITTs3x8D8SP86MYNmkcbaMPhw2bl94AGNI0b027gwBcsEJ/TQF2gLrBnT/vuTo5OjuaeONKAB2BTbBoQ8FxmWUxZTEwMYsvoltElJbWdAMyExbB4zBhpiUugCTRhyhR7P6Wj0rHS0lbSSOOh8bh0idT0PX3v5UV35VnyrOHDDZWio2stAbfwPt6/dw+AXqAXAOA5KqMyyyuAuFUJBfwmv1nFV9NXf1R/tBYrgCm0s1kaS8vJkSTS6AlkqbzQl3POly+XvqAlLISFfPGFpfKcc865Umm6AojPLfJ1nhGj3buleo2ZH/ObO/eR+2vCR9lyzjl3czPrp7FfUj/d+UV+cdmyR6ZvPHOYmngtlS99UT1ePb5NG1O+ifIojxo3rin9p8aGjHGwABbY2kp/++BhPGxvX2cMuUJ7aI+Pfp1+hw7RoSpfrhMFUmDz5paKU2d5Z3nnyvc4BvSg5xyxPbbHsrKakn9qBOBPiyuyo7KqS7cc38F3/sch8JA+V59bRUDsIQzCar/0W/UHoFZ60lPHjgb18Hd8yNaCP/i3agUASZAEAB9DB+igVFpSJ8kXRsGopk3hLByGKicEm34wCkZ162aoV1RkRseF9tAepRJWG//+i4GukGRBbf0YpsJUvd52MYtn8dev1/YLedKg3brluuX5+SgqO/dpCA1p1oyIkikZjajUwigGW2NrFxfJbtMU4zH+CQoAuiMibttmOAz9ToFw48SLDOZDMAQPHmxwWL9wway8ycRXPqfDdDglhUjsmQnyIRiCq9AJpyRKmj8fCAho/nyz8rNgJ+wEKJmrbK9sX1xs0C4mTpQfk8lksuvXxWIV8Nt+lY+ndEpv06YMOK9qfqrwh22wzd5eHHjaSH2pr6Nj2cHfPzNUFzoPAIDnnpPGdwhMg2kNG5Zs0gRqArt1M5xJKl3SKnpREAV5eEjj0ApaQAuNBgAKobDm9M32MPEQCBvBEzzd3PCfOBAHarWQRvtpf3l5bTv6h8MXx+LYBg2kOIY/OdAXQzH02jUcp4vTxQ0davu2U5lT2a+/WqtnfQvoCymQ8tpr9huUSqXy5Mm67mh1oV1WVXs5caKu+XnSoDT6gD7o3Bl8ZTNkMxYvBoBX4JVFi6zVe3Z8ApfCDbiRm2v/sdJX6VsZOPG0Q1TD6TgR0fr14A9xENe6NVytXv16LeAZx7OzAqzGo3jU1rb4n8yVuc6ZgzfhHtzr1QtOwUJY2KkTvAj9oF9lZBNehkzIzMuDGByGw86fh4vQHtqfOmVnp1AoFJZv6Z42/GkFAGdSEiW1bGnwcwCQTNsAS2DJRx9BJ+MlTydYBavM69MAGAADevSAUAKCMWPAqJ0YvHDT0sgd7sLdqKgmKxW7FLsOHKjr/tYWfxoBEG3kJa15HI+LjKQz4AEeoaFSAS0wYERwHi7BpfR0SMX7eD85GX+mGTQjOxsPw2SYrFLpS6EVtFIoMAJOwIk2beAY7IJdgwfT+5AFWX37wr9oCS3x9TWoT/Hxws+smBV/8UV5FEZj9KxZCoVCoVA8PTF3T70AEN2Zfme6ra2g5jP4jIMHIQs2wsahQ6UCQ+Am3Dx4EDrQCTqxcqX9XsdljssyMqo0MRNm/s8R8QKvyMiSyYUjC0e2bEkbbLJtssPDyY6cyXn6dPoAtsP2ceNsltJ1ut6zp+HSys9PDDip6/GxhicuAKpEVaIqsWnTRlNsZtrMHDYMXqL+1N/LC+R0l+66uIAOW2CLggIIgS2w5fRpuxEODg4Op08bfAIt2x3EWzpBzafz6QcPQiPjxP8LF+Pi0lIIpebUfOZM+zRlpDLys88gTaxniK0r+dSuo13HAQMgALtgFx8fOItf4BcuLrQSjsExlQq66gP0AdeuVWyVzZDNSE62VSgUCsWdO/A3SICEuXOLu6tValVsLB6XRcmi9u+HjbSElri5ka88VB6anFzcvbh7cXc/vybpTdKbpBfWwkTzeCH1O8Qe7fHyZbgLC2HhnTtmBWt6G2hOyHArJcawmUbfWvsV77mFbWwCmxAebljazYMfxfdS/YNsI9v44IGB7qBBpoKi/Q8fyocuWmTwgbx/v8Z+Ci1ZLIvdtKkgriCuIK7SsCTeHgoytpatzc+X6o1gd9ndgwef9MRW9zZW5NO0f49NANQqtUqtcnDQfswiWMS5c2YDmcNn89l37ghj2F/YX/btE5NNiQxLjhimArGS9+P9zpwR2y8lRozatTN1ITPcIcyYUTnxhq3BzKHDRNC0vuwiu3jggMGlats2oQffwrd8/rn2OPfhPrdvm9Xz4pP4pB9/FK9lRXqlcnVjdWNfX+0VlsJSKiqk8ivUy9TLRL+BP0AAGnJ37n7livhcev8d82Je77772AVA/OLFiZIYMUa0CKG8E+80ZYqYy8ZiOyY+eeKXJ7XXiaWwlFOnzLJhBfFwHn72rJjPUPwVv0DTFUIynBiXRMv9Mq4cu9Rqtfr11wVvdp6dV6kkftrxAB6QkWG6IoiCLdH9N9vOtp8/b4mOmOJFTOBQXMQZZ2PHih4+YoLO6gpATX8fWQCEayyFpaxcaZp4QAxxqq1ki4katP9is9ns0lKLW4bJFyZOmFTOuFI86pcous6ZbSE5LIAFbNgglit5R9VY1bhVK9OVoCi3KLco18ND6td6FspCv//e6kRd5hP4hF9/LWmiaaZpNnOmKV9mAmBcuaSVVXRkMTqaWBUAYQXbw/ZkZ5t6voiCIP3maDw0HkOGmH4ZlhitLYQ1zIf5hIWZTbxxzzX9QsQlUCpvXPoeFz+GIM4JE0x9BAtHFo4sHNmkicRHSxbLYk+eNN3KTLcu04kW5rP32HtZWdp7LJfl6vVm5T5ih9ihnTulDK7VPANIW2el4KazdJ3OfMDXsnVs3f79NV1KREGwdGirLaSzhcmWoJ3HXbhLpc+h6EYuvTd+gcKYgriCOMseNjWFtDV8yIjRzZsSPRdNa03rytSsQgHLZbmrVlkctwoWxsK++qo4XZWoSqyMC6gUNG2QNsjFRZxwU4EQV15hBe/Ne2/eLD03hpn/Pt9yuZZxb+4dEyN+GOZ7S98KXYUuJARX26yyWUUEDaAH9PD2Jg7u4F4ZhowZ0AyaKZV0HJzASamkAJyKU7/9FmV4Fa9Wqm+ir1/jdQAAln3+LMK4uFbMoHfpXTENWrdu0Im20/bCwrLlvD/v7+amW6kHPQwYIPoT4FEogZKbN+UdGvo39Le1teTrV1M8eFOj0WgAQEB3dL98GYAyKbNtW3yNiOiVV8oUnHN+4ULFaegBPYqKYDhdoCpeEdgF38A3fvxRP1VXqitdsKCBIF8mX/bggbiCOCc4JzgnFBfb77Xfa7+3oAD2wl7Y+49/CKV8NB9dUkKzaCftnDePngdv8F6zBsIpiar4Y8Ab4A/+GRmwA/bD/ip0ERFR/OKDJc+KWvu0aYfwIB70zjtwkLbQlrfegm+hBEp277b3V7ZStpoyRROsCdYEd+gg76O309tlZEAQREJkzZ0WnxWgOyRBUmGh8H65rFzWvr3LeJfxLuO1WvG9ZPBaY6uyVd2/D0toJ+20tcXJoACFRkPR2B27HzlipyhbX7Z+9mzE5v7N/QXBGt3a3waeodt0u0pKkp6wCla1bCn+2eC7clbOSkvBFxkytbquB/j/Hg3x3/jv/Pxm44RxwjjzoFjR/R3jaB7N++67yjfEiK1fb69UXFRcDA6u7sQ/MkoOFjUuaty7t7Snreaj+WhBEPfsx0ZHPFWfZfEsvrxcSudmPJVL5dwNplrTvVJUsx4XP5JfvjtLZsmFhdLeu0t9RH3k1VclfrJUiarEl1821Y7Ew1tt6QtTuTN3Pn1aatdoEHtc/av+QIj6tpi5ooaRLdWFmd5/kV1n19PTLQ7QUJbP8lNTpQEyGp4eFz+SViTyY4yoMvXLNwiek5OpOljbGEPxjGAaESTaDx5X/2oMM71b7LDJqbimKE5Xq9Xq2bPNTr+/MA/mYTmMWtKzTdWoIB7Ow9eurS0/whh1b3XvYcMkk7PUriEJs8XxMZ72fysASUk1ze1jmrRbGMZUTMVYnaeKkVYC08gdo54pHOLr+fqPPipdplapVc8/b6kdSY0z5rk3UzN38fl8/tat1R6wRfwT/klEhJn69Tb34l5HjohJmSzWz9HmaHNcXSUTqqn+bozrtzaRJe6aPpo+PXua1d/FX+evHz1qaVzEFURoyDawDVFRZv0wWkwfdf5Q+JKFsbC33oJJ4Aqufn61bmk4hEBIgwaGmD/L7eAK+BQ+zc6mVvAz/MwY3ILxMN7ZWfRCNqtgTJyIAcCBf/01/AxX4apeb5UfB3ABF0T6EhpCQz8/8T9pmPGzGb6Fb3NyIB1GwIhffoFMnIyTmzWjQ7SAFnh6GiKAfmeCJ+Kb+ObZs5hCnalzNWITW4EneHp7myXZNvop4MsYgiHXrtEp+pQ+LS+Hg7gcl3t4wCzaRFVN1uJ49IVMyExNBQ0UQEEtorc3Qhqkff01SgacM/ACvODoWGsBqMdTBewO5+CcSoVCFB/NR3t7w2zYBbt8fOqasXr8QZhEDuRgnou4Hs8YsDidpbAUPz/ZAuyO3V9+ua4ZqscfA30wbaANaWlouLbl3HB4e3wGnHr8f0MKKxcTLeA8eAle8vMjwAzMePVVWE3xFG9nhyHYETt+8w040uv0en4+CTARJvboIcUOGjOCgBcVUMFV83gUY7SwFDR6AnbAjocP8Vu4Dbcrb/PoFWgDbf76VzE4El0hBmJOnoTZkAM5v+NlexVd0MXLi+JpLs319BQjf9AOYiH2hx9AjZ/j566utJmyKbtfP1iNgRgoCAjUhbocO2ZpYJ6V/utfp9W0OjXVrF1rDiFmlrkE1pQ1Xb/e0oCKYeKmrlhm5UwsXNaylYl0JT6MfFW+N/otiO/FoFcreNb6Xx8a9ozDugAMp420sUUL8T4dK3AmzmzatNoULsAROFLFUOEKHaCDTCa2J93TG59brGcFIl9Se0a+H3mE/uT9N3cImY4ZmJGVBUCe5OnmBmWwFJbGxFS8LSVSGAJDqhA+ha2wVWYmABSBeV4P0P1Hdlt2+9YtmVq3Q7fj4UPaDdNgmoNDBRAQ/GZJEvPx7YAdDx9WuOIr+Ip5VjKJrhbn4/zsbDGfBB2iITRkwoQKAAKaMMHAd5UKYzEVUzMzwdo/vX3W+y/lDRQzWBpt+qbXvqLNvrouYEJvdpVdnTTJYj5C43Mxd7G19kS6kouTqcuYyLfRK1d0yrTW7rPW//8CLu3PE4AF5p4AAAAldEVYdGRhdGU6Y3JlYXRlADIwMjMtMDUtMTBUMTM6MTA6NDErMDA6MDBPvtp9AAAAJXRFWHRkYXRlOm1vZGlmeQAyMDIzLTA1LTEwVDEzOjEwOjQxKzAwOjAwPuNiwQAAACh0RVh0ZGF0ZTp0aW1lc3RhbXAAMjAyMy0wNS0xMFQxMzoxMDo0MSswMDowMGn2Qx4AAAAASUVORK5CYII=;opacity=80;" parent="1" vertex="1">
                    <mxGeometry x="243" y="270" width="54" height="54" as="geometry"/>
                </mxCell>
                <mxCell id="74" value="" style="shape=image;verticalLabelPosition=bottom;labelBackgroundColor=default;verticalAlign=top;aspect=fixed;imageAspect=0;image=data:image/png,iVBORw0KGgoAAAANSUhEUgAAAEAAAABAEAQAAABQ8GUWAAAAIGNIUk0AAHomAACAhAAA+gAAAIDoAAB1MAAA6mAAADqYAAAXcJy6UTwAAAACYktHRAAAqo0jMgAAAAlwSFlzAAAAYAAAAGAA8GtCzwAAAAd0SU1FB+cFCg0RGV+i9g0AAAajSURBVHja7VtZSFVdGF37OtftN8uigtCuQpqVEZaI2UAZgVAqPkRFJGkR0UQzEVQPJUGTRQQRZfUSQVREA4FogjSSJUpzVyslK0GxtLx3r//h/HXUc+482u96u/vs833fWmfP377AAAbwv4bwhhHKsDAgNRUiPR1ISQFMJjAuDiI6GoiMBIxGoKMD+P4daG0FzGbw7Vugpgbi0SPg5UshpAy0GC6SNhrJwkLyyhXKjg56hM+fyXPnyNxcytDQQHOzT5zJyWRJCdna6hlpW2huVuzHxweaax/iGRlkZaVvSOvBYiEvXaJMTAww8YQE8vJlUkr/ke+Jnz/JY8fI4cN9wc/uIEjm5oIXL0IMHuycWrduQVRWOuc6JARYvhwYP965+g0NQE6OEHV1vhBCh/yECeSPH85/KauVMiLCNR85Oa61BrOZjIryJk87I+727YArzgwGoLiYvHnTufphYcCSJS5FS6sVSEwEamu9KYK+LzY2BqbP68Fiody/X1lv9IhRhoVRxsVRJia62vqcEKC7O9C0FXR1URYUqHFFRZGrVpHV1cpM0QPy6VNy40bKIUO8IEAf4wHDypVqTBkZ5IsXjt9paKDMzv4LBDh/Xo1n7lyys9P5dy0WculSRzyFPQGUqerDB6ClxX0pU1KU/UBLi2LL2S9gsUDk5QnR3EwmJYGPHzs9Hf+BxQJkZQlx/777LUCuX+8+eYCsq1O+yPHjbtuQd+/qfmTZ0UFWVZEPHpC/fum3hPr6voNnTxg8IecPUE6bBjFvnvZJaSkwapQQWVlCpKeDiYlgebm2XnIysGhRvxUAIjdXW3j1qhAbNghDR8efaobGRoicHKC+XmvD9lgQ/AJg0iRNEbdu1dVKdHUBu3Zpn0yZ0o8FGDq09+8fP4ThzRvb9Z89c2yjXwnw7Vvv35GRpJ3ZgLGx2sKvX/uvAHzypE/IBrCw0GZ9UVSkLayu7r8C4PZtLckDB8iMjL7FlMuWAcXFWhvXrtmyHtznbwCE4fFj8vlzYPJktdRoBKqqKM+ehaioAMLDgdxcYOFCrYVPn8Dr190XQERFkTEx7lMICQEAMDLSdTvt7UJYreChQxBlZRq7oqgI0GvyPcCjR4XBYnE57ODYC2zaBACUoaHk69euv282k5GRbn234BCguZkcNEiJZ9Ei1993vBkKcgFIcvNmNabbt51+TT59ShrcH+SDR4D2dnL0aCWmlBTnDmqsVjIz023ywSUASXnmjBpXSYnjF0pLPSIfdAJQSsr58wGAMiKCrK21Xff9e0qj8S8TgCTN5t9nfZTTp+t3BSkp9bbOf4UAJHnqlBrfvn3a515o+s4J0N6unMS4MzfbgsVCPntGPnyopMP00KMr0GAgy8vVZ3V1Xk2a2Bbg2jVS3V6S+flkV5dn5D9+pExLU22aTGRNjX7dqqo/9eTYscpaoa2NUufcwPsCtLRQ/vOPtu7evZ4JoD31UdLwenjwoFc9aTRSRkd7lbxtAfQ3Fcp5vbuQ0tb+nmxocCSAp7CzUiK1ZcOG6Vf1JHUtBHQ2ScoqTuckh3px+USAtjZtWXo65fTpveMRAvDs6Bxi3Tpt4YoVgLa7QejF5QOQ9+7pN9mvXymLi5WEZFYWeeOGZ/3/dzc4cYKcOlVJy+/ebXNglYcP+0cAuWWL58R8gdmz/dQCYmLIlpZA0+2N6mqly/kJZF6esrMKBrS1kRMm+I28KkJhoe28m7/w7RvljBl+J/9HBJmaSt654/+bYr9+kWVl5JgxvuLmUn8iKyqAWbOAxkbg5EnfKV5QAJGWpvgxmYSwWn3my3nyCQnqeLBjh2999Tz/y8kJNHclKHnwoNoslSMq3wkQEqIug22f6XsDTnUByvBwiA8fgJEjgc5O3RS012EyATExgNUKjhsnDC7cLvE2yMWLAzsL7NnjK27OtQCWlwNz5gBNTcCNG/6TPjNTuWP06RMYH+9WhsdTKIPff9Of3LLFv757XqW1fc3FEzjODXLNGgghAKsVqKoiTSb/KfDqFcSXL8CIEeDq1fayvO7C/m1xGR4O8fEjMGKE30jbhJRAQoIQZrM3rdpPHYmCguAgDyiXsR1kgt2Ag/8LVFYCM2cCr16Ba9cGjvy2bRDZ2UBzMxgXJwzd3T53SSYlqWt/JU0dKJALFqiDYX6+n5weOaI47OqiDGw3IIWgfPNGiefOHT85bWpSHF64EEjyajw7dyrxWK2++v9Qb4fy9Gny3TvKiRMDTV6JJzaWrK8n792zd/d3AAMYgEv4F6t2oniXgRRUAAAAJXRFWHRkYXRlOmNyZWF0ZQAyMDIzLTA1LTEwVDEzOjE3OjI1KzAwOjAwn0LskAAAACV0RVh0ZGF0ZTptb2RpZnkAMjAyMy0wNS0xMFQxMzoxNzoyNSswMDowMO4fVCwAAAAodEVYdGRhdGU6dGltZXN0YW1wADIwMjMtMDUtMTBUMTM6MTc6MjUrMDA6MDC5CnXzAAAAAElFTkSuQmCC;opacity=70;" parent="1" vertex="1">
                    <mxGeometry x="545" y="265" width="64" height="64" as="geometry"/>
                </mxCell>
                <mxCell id="75" value="" style="rounded=1;whiteSpace=wrap;html=1;labelBackgroundColor=none;fontSize=16;fontColor=#E6E6E6;opacity=70;fillColor=#FFFFFF;strokeWidth=2;strokeColor=#CCCCCC;" parent="1" vertex="1">
                    <mxGeometry x="220" y="430" width="400" height="210" as="geometry"/>
                </mxCell>
                <mxCell id="76" value="&lt;h1&gt;&lt;font style=&quot;font-size: 29px;&quot; color=&quot;#000000&quot;&gt;MDN&lt;/font&gt;&lt;/h1&gt;" style="text;html=1;strokeColor=none;fillColor=none;spacing=5;spacingTop=-20;whiteSpace=wrap;overflow=hidden;rounded=0;labelBackgroundColor=none;strokeWidth=2;fontSize=16;fontColor=#E6E6E6;opacity=70;" parent="1" vertex="1">
                    <mxGeometry x="263" y="450" width="90" height="60" as="geometry"/>
                </mxCell>
                <mxCell id="77" value="&lt;h1&gt;&lt;font style=&quot;font-size: 20px; font-weight: normal;&quot; color=&quot;#000000&quot;&gt;07.00 AM&lt;/font&gt;&lt;/h1&gt;" style="text;html=1;strokeColor=none;fillColor=none;spacing=5;spacingTop=-20;whiteSpace=wrap;overflow=hidden;rounded=0;labelBackgroundColor=none;strokeWidth=2;fontSize=16;fontColor=#E6E6E6;opacity=70;" parent="1" vertex="1">
                    <mxGeometry x="229" y="505" width="118" height="60" as="geometry"/>
                </mxCell>
                <mxCell id="78" value="" style="shape=image;verticalLabelPosition=bottom;labelBackgroundColor=default;verticalAlign=top;aspect=fixed;imageAspect=0;image=data:image/png,iVBORw0KGgoAAAANSUhEUgAAAEAAAABAEAYAAAD6+a2dAAAAIGNIUk0AAHomAACAhAAA+gAAAIDoAAB1MAAA6mAAADqYAAAXcJy6UTwAAAAGYktHRAAAAAAAAPlDu38AAAAJcEhZcwAAAGAAAABgAPBrQs8AAAAHdElNRQfnBQoNGRt5dR0pAAAOsElEQVR42u2daXRUVbaAv31DgqIyShMmGYQQyKAIlTApJNJtYzM0MaQVSQAHbFnQrdLykCUQxHZoh1amRlwPaAZlShABtVFAiaAkEBGSEJKHTBGDAs2oBJK73w/qFi5dWXXrViUpl/l+n2Hfc3adYZ+9d0EttdRSSy211FJLLb86pKYFCDTxb+19Ss1mzcx9xlQkOpql+k/o1EkayFRo00aH62Ro2FCyaADXX2/V09s5A+fPy1vyHJw+rWf0GTh8mBHyOOzfb3Q2n0Hz8nYMj3lejOPHa/o7A8UvUAFUVQ0j/q28yeidd+r3RjEydCid2YUmJPC4rkMiI6us9wW0gH37JEJaw5YtOoMTkJmZM6PLNbBlC4iImGZNj5Jdgl4Bbt36RR81mzatOzr0MWT8eDVlEoweTVN9B1q1qmn5PETSBo4e1TgehIULzQWhieisWbtyO/1ZjBMnalq8ygg6BejTZ88e1UaNLu03StEpU3iKfjBmDMspQq67rqbls829RKAXLjCI9jBvXlmHy0eRZ5/9UrqKyOnTNS2eRRAogKqqiKsk/wikpXFW+sM//iGjdA385jc1LV3AKKY9HD8u5WqiTz6541zM9WIsWVLTYtWYAsQVF49Ts359MsqWIW++SSZZkJJS0wNSbRzn9/DOO2GtzffggQc+/TQ2VuS//61uMapdAVyzC5JUo6JkgRqwbh11NB3atatuOYKG3jIE/eor42PthAwc+PkX0e+J7NtXXd0b1dVR9475yWrGxclRswX68ce/+om32KZrkfbtK+aSCdu2dW+U96Zq797V1X2VrwDdv99brNqrlzHSGAgffshhzYB69aq6X82UdPj6axmqim7fTrgIUlTEKMaiR4+Sxlzk3DlPhcWMRW+4gUXMRVq3plQVjYjQCTRBeveWV/kLtGhR1XJfPTwah5D+/bM7dokQ+fzzququyhTAs9SPNyfB1q24qAeNGwe8o+/kj1BSIoa+AAsXSn0WwNtvB3opjSvOT1bt0oX/IwPuu09juAdGj5YkTYeWLQP+XWF8BidPGhdYA7ffXlVbQ8AV4Bb9QlUbNqzbLWwY5OYGfKl3TzgbzSdg2rTzXxib0aVLC1KiVotx6VKgv6cyuqzMT1YzLOy6cI2AtDSOcQKZPj3gK8VkWqMHDlQ8c7EIunXbldvdJcaZM4FqPoAKcOU6F/fXgmGQkcFnmg5Dh/rdbBx5oMoppsPs2dcukyh08uRPJGq1GOfPB05+P8V032o0qywZee45yaUUxo4lm2gQ/8dZmYauWpWdE50hRuBuSwFTAFdJ3mHVkSMliXOwaJHf37uJHDh3ziiUDTBixA5X1GqRd98NlLxVjWvj3i2qQ4eC1IfFi+Vp6v747cHxuNwuF2HEiJxXorqLLFvmb3t+K4BluSubH3IPFBb6bcBJYB564gTvaH8YMCB7f8wfxdi50185u922f56aN95Y52+XDkOLFqwLMZBWrSoS9K+gWmdAxUy0pKRCQpshx47ltOo8XuTkSX/7dbXLe05Nl0tSOAbvvccW/ozceKPjBptxFkpLK76+GIpGRvq7JfitAHFN8zaq+eqrtKMF8vjjTtuxfvHSXRuhiYlOJ77H0fxkNTt0qFirBpKaKrOYA0OG0IDjcMstthvqzhF0926dowOQtWvN7tIalizZtSu6ROTAAV/lshSBN7gL2bzZ3xVB50g6+tJLOa6o1WJMnOi0HccKYD3ShO0M3QwHDzq21bv3eFkpcTB06I5vo9qLrF1rt7r1/KvJxkxk6lT+oGfh4Yc5wz4IDXX6fT+jAZ3h8mV9n0nwxhuht1WY6IwZ2/fc8ooY335rtxlra5B35ThkZDg9I+izlMH583QJ2Q5t2zpdsRwbgqzXOb8faQbLDzBrlq8T7yrZ21S1Z099WwYhu3fTR3fA2LEBn3gLd7vSi5Ewblz5gJAyyM93ZRSsV/OOO+w2k/O7mASRNWv0NXbBnDlOxfGsIC3Lx8H48U7bcaAAV97jtTd3wahRjgf0HrbCN9/QLmwXOmWK3Wqu2XvvVU1JkS/ln7BlC8epD+HhjuVwinsvl2vM08jGjXGu/Dw1hw2zWz2sWZ1O6OTJlsHKqRjyv5IFo0db8+JrfZ8rWI4YFHIYWrd2PIBJCjz9dHbHjrPFOHvWW3HLoijtZCAsXsx0boW6dR33HygsOX6v5cjSpXZXhG0nIx8S49w5UnQ2On264/7n0xhuuin+5vwM6NvX1+o+K4DHA8cpbkOOZcDxVtza442W0hIyM4Nm4n/Kf6gDYWGyyGyMrFhhnZG8VbvwmIyDf//bY+ByiMYzxYndxfctoBQgMdGpoJbJ1q7lznO468hX0KyZ036rDfeWFDYv9CTifWuzxkGzeAYWL3bc7x1EQkKCr9VsK4BrWH6yang472o6dOrkVE7LVu+tnHWd85zqf2nczNvwyCPd1+/Zo9q+vbfiOslYgHofl0rJ408QFdUr9ssJatq3w9hWAB0pCWh0tFP59AlmwrFjdh81tJ/ei6SlVdmpvqpxbwnGByGFkJrqrfjOpZ0/EiMvzxonn/tzXycrLoT0RKKi7FazrQAy3jyDREQ4HpA+xML27XaLm5/I32DIEMf9BQsJWoDa/w4JlzWo8+dfraN1fFmh7Z8BVkou2ratU8Fkr4yHwkJv5SyTrSTpeoiNddpf0LCFSOTWW3sczU9W9f4crh14HfE+TpVyrZHsy+urfQVoroeR+vUdC/Y9m1Dvp1zj5vKPkCBy9/YX99KsWWZH1MZ3bdGJ/twGaMg8sD9P9reAzTT1y3a9nfqI9+db/S1zoXlzxwMQpJhrjGLEu5+A9tZU9EeeSr7yPpd9madq8wm0i3zIWFCtaTkC/l0f6xg0+L7L/i0gke/AuQOGrDdL4IYbvJZrr+HoN9/U9MAEGiPX3GrndC/bZAnifZwqZQChvsyT/RXgG2mDejfZVkqEsdROKJeOD+mE+LEHBhuWRxMhhYgNm38RZ1E/TOwp2gzs+wfYV4AUvQ05dMipXPov7WfneuJ51nS/xzseiCBBX5TVkJv7eeuo1SKnTnkrL3dKXX8MbbyuFWB/nuwrgDtM2rFgn7IHevWyPXBuRwzH/QULd+sKsPMdV3wqeUXXIvbH6adIIUPsXLctbCuAFR9/dUnzUTC3t6zHvdoLlgcOd1EO1eftGzDcckv9iong/dGrx9G9U9DoaMfP2+55Kcsqvx3Nz7dbzbYCeBIj3CdPoX6sBG6/em/FLNcrncYymD/fcX81hMZLD5g7N3vdLa+IHDzorXzFfGOmnXGplGhWQH7+7ju6firGd9/Zreb7NdDFt8jmzY4FHcvNMGqU5VfvrbjlemU5Qzrut7pwO7qYU+u8hv79796Kd5hZPE7NunV5RH6HpKU57re9DAbf58V3fwB3RgzHgroTO3gCKrxg+dzpv3QIJCUxjd1QVua4/ypCM1kCFy+SZPSHpCS7iSGaLLtUiowc6W+EkfzWHAVr1vhaz2cF8KRCcWfEcCzwSwxEZszodtvOHDUbNPDab6uY70Q++4x0uRVNTQ0WRbAmXn6QA2hqqt1YPiuQxHxcG8O0aY4FGMMpOHJkh0QDW7f6Wt2BJfBKDhwrFYpjwd2HHWPcNRcQ70ulRXZOVLQYq1YRYcRBv341tjW4l3r5wXgQEhKyO0atFmP1atv1P7lUirzwgt+hZLulFBYscJqbyLEp2MqB44lmdYgVQnU1ksYe1i/t0pOXJ6KxsXRgGMyaVWW3Bne72kbS4fXXK1aEGmhsrK/Ru3HF+clqJiczX9Ph0UediuOJnPofVsKsWU7b8T8wpDivlZovv8z9fIBMmOD4gyw/90f4D5qYmHMwerIYOTm+tmN54HgcMaz3+BdJRrp2tS3P00yE3FzpLPVg7VqeKG8DS5bYPdX/lPiigpZqxsfrevMgbNrktzv9KA7Ciy9mj40eJDJpktNm/FYATzRw49AfoLDQb989d2iYrqQF3H23U0X4KVff4ysi0ZYty98P+cuPn52t0DDLZGvXcucNz8Q/YKYjGzZwiZ7QpInjBi13+qS6BWhkpF2v6soIWHBo/A17z6uZmqqd5RDih3OjG8+KgJ6FtDQroCJQ8lY1nqV+nb4FixYFLMvZY4TC8OHZw6M7ifjhQ+gm4PkBXCV5s1VXrZIk+kFyst8Nui1cViSNFVDh8asPEqzbTMjYa19Enn/e3z3+ZyyTdFixIrtj1GqRe+8NVLMB9wcwB1+MRx96yEp+5HeDbo8aKyTr0pzybKSw0NUrr1TNhx+2a1AKNFa/8fH5yapjxoT86ZocZN++gE98Lh9AcTGEhaNjxgT6O6osRUyPrnl3q3bubF7HUMjK8nvvqwRPLqBHARYtMhsYp9Hlyy0v24B9z9E9T6sZE1MhIV248gvMBP8NOJXiPguZ15uLkD59dk6JPS/ihwm+Eqo8SVRccUGRao8erDPboh99VG0ZP92HJb2OvrB9O8fpiRYVyUpdjBw5ogONVnB1C7EcVjRF0tCbbvI8y1qvc9UUg2idfYy2xmC0f/8dEV2+FmPHjqrqr9ryBHoSJcyUXGTDBmZoOngPnfrVkMP3cOqUeUEbwaBBO+vFdBSx70bvlGrzCbSuc8ZU/R769rWSH1VX/0GLe483nzEToVev6pp4i2p3CrUig0IfrLMKunbVx6QvLF9e3XLUOD0lHdasKbt8eQLExVXVHu+NIEgWfQXXhPydqvffL0V6CV5+ucbi/qsKy4DTmjthwoRA3eP9JWjcwq2sV1byIysHzlWD0C8Ly1ZvmWw9lrsgmXiLoFkBKsNVsm+WapMmVioUT0YMd2KEmpbPg/tZ1nqdsx5pAmVSriqCXgF+jvsvY9wZMTyJEcpJhcREDjEY7EfH2sbyhfyWr6CggIekOWzaZDY3MyAzc2dM9DrIyqr9y5gaxpO97KWwcCQmhiJzBEREWPd7HqET0rjxT0PdPIEvb7AfPXXKshdIuZTD/v1lCy+/hubl+epzV0sttdRSSy211FJLLUHH/wMALuwO3bh8mQAAACV0RVh0ZGF0ZTpjcmVhdGUAMjAyMy0wNS0xMFQxMzoyNToyNyswMDowMJXKS4UAAAAldEVYdGRhdGU6bW9kaWZ5ADIwMjMtMDUtMTBUMTM6MjU6MjcrMDA6MDDkl/M5AAAAKHRFWHRkYXRlOnRpbWVzdGFtcAAyMDIzLTA1LTEwVDEzOjI1OjI3KzAwOjAws4LS5gAAAABJRU5ErkJggg==;" parent="1" vertex="1">
                    <mxGeometry x="322" y="530" width="20" height="20" as="geometry"/>
                </mxCell>
                <mxCell id="83" value="" style="shape=image;verticalLabelPosition=bottom;labelBackgroundColor=default;verticalAlign=top;aspect=fixed;imageAspect=0;image=data:image/png,iVBORw0KGgoAAAANSUhEUgAAAEAAAABAEAQAAABQ8GUWAAAAIGNIUk0AAHomAACAhAAA+gAAAIDoAAB1MAAA6mAAADqYAAAXcJy6UTwAAAACYktHRAAAqo0jMgAAAAlwSFlzAAAAYAAAAGAA8GtCzwAAAAd0SU1FB+cFCg0iAiGsWtEAAAFsSURBVHja7dM9SEJRGAbg9/jboPgz6BA1JeLP1CYEEbQ7GKTu5eCWIOLgYoNTDm0RTgoObkkEEk4tCkIE10ChIEglm0rEwXsb2hry3LF4n/l9P77zwQGIiIiIiIiIiIiIiIiIiOj/EwBwn/F4zGuFghh4PDIl7VRVkWo2g+1qVSbfP49EoKTTeLdYpLZ6WCzwXC4H5r2e1Pz9eFw7jEZFy2iUmn81nQLFYmA+GgkAUNZrNbSSSV2nUzRNrYRC4et+/7dYWzOZvJ+TCV7cbj3jxe5wGHjz+VblHi/9fvVVUXBgMOja/65eDx4lEt+lJ6dTVxkAgkJgx2ZbFds6M5sxXZ37SZvIdZY3DofuxwOAz24HABMAGLZzOTXjcqHh9UqVL5ZLzd1ohPPd7qroRmY+75+kUohls9rCapWavzebidt8XiYaanQ6ykephEoshmPJL7A5HotBLqf7aERERERERERERERERERE9Ed9AdqeZ+Fi7OZ0AAAAJXRFWHRkYXRlOmNyZWF0ZQAyMDIzLTA1LTEwVDEzOjM0OjAyKzAwOjAwq5vXoQAAACV0RVh0ZGF0ZTptb2RpZnkAMjAyMy0wNS0xMFQxMzozNDowMiswMDowMNrGbx0AAAAodEVYdGRhdGU6dGltZXN0YW1wADIwMjMtMDUtMTBUMTM6MzQ6MDIrMDA6MDCN007CAAAAAElFTkSuQmCC;" parent="1" vertex="1">
                    <mxGeometry x="342" y="510" width="64" height="64" as="geometry"/>
                </mxCell>
                <mxCell id="84" value="" style="shape=image;verticalLabelPosition=bottom;labelBackgroundColor=default;verticalAlign=top;aspect=fixed;imageAspect=0;image=data:image/png,iVBORw0KGgoAAAANSUhEUgAAAEAAAABAEAQAAABQ8GUWAAAAIGNIUk0AAHomAACAhAAA+gAAAIDoAAB1MAAA6mAAADqYAAAXcJy6UTwAAAACYktHRAAAqo0jMgAAAAlwSFlzAAAAYAAAAGAA8GtCzwAAAAd0SU1FB+cFCg0iAiGsWtEAAAFsSURBVHja7dM9SEJRGAbg9/jboPgz6BA1JeLP1CYEEbQ7GKTu5eCWIOLgYoNTDm0RTgoObkkEEk4tCkIE10ChIEglm0rEwXsb2hry3LF4n/l9P77zwQGIiIiIiIiIiIiIiIiIiOj/EwBwn/F4zGuFghh4PDIl7VRVkWo2g+1qVSbfP49EoKTTeLdYpLZ6WCzwXC4H5r2e1Pz9eFw7jEZFy2iUmn81nQLFYmA+GgkAUNZrNbSSSV2nUzRNrYRC4et+/7dYWzOZvJ+TCV7cbj3jxe5wGHjz+VblHi/9fvVVUXBgMOja/65eDx4lEt+lJ6dTVxkAgkJgx2ZbFds6M5sxXZ37SZvIdZY3DofuxwOAz24HABMAGLZzOTXjcqHh9UqVL5ZLzd1ohPPd7qroRmY+75+kUohls9rCapWavzebidt8XiYaanQ6ykephEoshmPJL7A5HotBLqf7aERERERERERERERERERE9Ed9AdqeZ+Fi7OZ0AAAAJXRFWHRkYXRlOmNyZWF0ZQAyMDIzLTA1LTEwVDEzOjM0OjAyKzAwOjAwq5vXoQAAACV0RVh0ZGF0ZTptb2RpZnkAMjAyMy0wNS0xMFQxMzozNDowMiswMDowMNrGbx0AAAAodEVYdGRhdGU6dGltZXN0YW1wADIwMjMtMDUtMTBUMTM6MzQ6MDIrMDA6MDCN007CAAAAAElFTkSuQmCC;" parent="1" vertex="1">
                    <mxGeometry x="440" y="510" width="64" height="64" as="geometry"/>
                </mxCell>
                <mxCell id="85" value="" style="shape=image;verticalLabelPosition=bottom;labelBackgroundColor=default;verticalAlign=top;aspect=fixed;imageAspect=0;image=data:image/png,iVBORw0KGgoAAAANSUhEUgAAAEAAAABAEAYAAAD6+a2dAAAAIGNIUk0AAHomAACAhAAA+gAAAIDoAAB1MAAA6mAAADqYAAAXcJy6UTwAAAAGYktHRAAAAAAAAPlDu38AAAAJcEhZcwAAAGAAAABgAPBrQs8AAAAHdElNRQfnBQoNGRt5dR0pAAAOsElEQVR42u2daXRUVbaAv31DgqIyShMmGYQQyKAIlTApJNJtYzM0MaQVSQAHbFnQrdLykCUQxHZoh1amRlwPaAZlShABtVFAiaAkEBGSEJKHTBGDAs2oBJK73w/qFi5dWXXrViUpl/l+n2Hfc3adYZ+9d0EttdRSSy211FJLLb86pKYFCDTxb+19Ss1mzcx9xlQkOpql+k/o1EkayFRo00aH62Ro2FCyaADXX2/V09s5A+fPy1vyHJw+rWf0GTh8mBHyOOzfb3Q2n0Hz8nYMj3lejOPHa/o7A8UvUAFUVQ0j/q28yeidd+r3RjEydCid2YUmJPC4rkMiI6us9wW0gH37JEJaw5YtOoMTkJmZM6PLNbBlC4iImGZNj5Jdgl4Bbt36RR81mzatOzr0MWT8eDVlEoweTVN9B1q1qmn5PETSBo4e1TgehIULzQWhieisWbtyO/1ZjBMnalq8ygg6BejTZ88e1UaNLu03StEpU3iKfjBmDMspQq67rqbls829RKAXLjCI9jBvXlmHy0eRZ5/9UrqKyOnTNS2eRRAogKqqiKsk/wikpXFW+sM//iGjdA385jc1LV3AKKY9HD8u5WqiTz6541zM9WIsWVLTYtWYAsQVF49Ts359MsqWIW++SSZZkJJS0wNSbRzn9/DOO2GtzffggQc+/TQ2VuS//61uMapdAVyzC5JUo6JkgRqwbh11NB3atatuOYKG3jIE/eor42PthAwc+PkX0e+J7NtXXd0b1dVR9475yWrGxclRswX68ce/+om32KZrkfbtK+aSCdu2dW+U96Zq797V1X2VrwDdv99brNqrlzHSGAgffshhzYB69aq6X82UdPj6axmqim7fTrgIUlTEKMaiR4+Sxlzk3DlPhcWMRW+4gUXMRVq3plQVjYjQCTRBeveWV/kLtGhR1XJfPTwah5D+/bM7dokQ+fzzququyhTAs9SPNyfB1q24qAeNGwe8o+/kj1BSIoa+AAsXSn0WwNtvB3opjSvOT1bt0oX/IwPuu09juAdGj5YkTYeWLQP+XWF8BidPGhdYA7ffXlVbQ8AV4Bb9QlUbNqzbLWwY5OYGfKl3TzgbzSdg2rTzXxib0aVLC1KiVotx6VKgv6cyuqzMT1YzLOy6cI2AtDSOcQKZPj3gK8VkWqMHDlQ8c7EIunXbldvdJcaZM4FqPoAKcOU6F/fXgmGQkcFnmg5Dh/rdbBx5oMoppsPs2dcukyh08uRPJGq1GOfPB05+P8V032o0qywZee45yaUUxo4lm2gQ/8dZmYauWpWdE50hRuBuSwFTAFdJ3mHVkSMliXOwaJHf37uJHDh3ziiUDTBixA5X1GqRd98NlLxVjWvj3i2qQ4eC1IfFi+Vp6v747cHxuNwuF2HEiJxXorqLLFvmb3t+K4BluSubH3IPFBb6bcBJYB564gTvaH8YMCB7f8wfxdi50185u922f56aN95Y52+XDkOLFqwLMZBWrSoS9K+gWmdAxUy0pKRCQpshx47ltOo8XuTkSX/7dbXLe05Nl0tSOAbvvccW/ozceKPjBptxFkpLK76+GIpGRvq7JfitAHFN8zaq+eqrtKMF8vjjTtuxfvHSXRuhiYlOJ77H0fxkNTt0qFirBpKaKrOYA0OG0IDjcMstthvqzhF0926dowOQtWvN7tIalizZtSu6ROTAAV/lshSBN7gL2bzZ3xVB50g6+tJLOa6o1WJMnOi0HccKYD3ShO0M3QwHDzq21bv3eFkpcTB06I5vo9qLrF1rt7r1/KvJxkxk6lT+oGfh4Yc5wz4IDXX6fT+jAZ3h8mV9n0nwxhuht1WY6IwZ2/fc8ooY335rtxlra5B35ThkZDg9I+izlMH583QJ2Q5t2zpdsRwbgqzXOb8faQbLDzBrlq8T7yrZ21S1Z099WwYhu3fTR3fA2LEBn3gLd7vSi5Ewblz5gJAyyM93ZRSsV/OOO+w2k/O7mASRNWv0NXbBnDlOxfGsIC3Lx8H48U7bcaAAV97jtTd3wahRjgf0HrbCN9/QLmwXOmWK3Wqu2XvvVU1JkS/ln7BlC8epD+HhjuVwinsvl2vM08jGjXGu/Dw1hw2zWz2sWZ1O6OTJlsHKqRjyv5IFo0db8+JrfZ8rWI4YFHIYWrd2PIBJCjz9dHbHjrPFOHvWW3HLoijtZCAsXsx0boW6dR33HygsOX6v5cjSpXZXhG0nIx8S49w5UnQ2On264/7n0xhuuin+5vwM6NvX1+o+K4DHA8cpbkOOZcDxVtza442W0hIyM4Nm4n/Kf6gDYWGyyGyMrFhhnZG8VbvwmIyDf//bY+ByiMYzxYndxfctoBQgMdGpoJbJ1q7lznO468hX0KyZ036rDfeWFDYv9CTifWuzxkGzeAYWL3bc7x1EQkKCr9VsK4BrWH6yang472o6dOrkVE7LVu+tnHWd85zqf2nczNvwyCPd1+/Zo9q+vbfiOslYgHofl0rJ408QFdUr9ssJatq3w9hWAB0pCWh0tFP59AlmwrFjdh81tJ/ei6SlVdmpvqpxbwnGByGFkJrqrfjOpZ0/EiMvzxonn/tzXycrLoT0RKKi7FazrQAy3jyDREQ4HpA+xML27XaLm5/I32DIEMf9BQsJWoDa/w4JlzWo8+dfraN1fFmh7Z8BVkou2ratU8Fkr4yHwkJv5SyTrSTpeoiNddpf0LCFSOTWW3sczU9W9f4crh14HfE+TpVyrZHsy+urfQVoroeR+vUdC/Y9m1Dvp1zj5vKPkCBy9/YX99KsWWZH1MZ3bdGJ/twGaMg8sD9P9reAzTT1y3a9nfqI9+db/S1zoXlzxwMQpJhrjGLEu5+A9tZU9EeeSr7yPpd9madq8wm0i3zIWFCtaTkC/l0f6xg0+L7L/i0gke/AuQOGrDdL4IYbvJZrr+HoN9/U9MAEGiPX3GrndC/bZAnifZwqZQChvsyT/RXgG2mDejfZVkqEsdROKJeOD+mE+LEHBhuWRxMhhYgNm38RZ1E/TOwp2gzs+wfYV4AUvQ05dMipXPov7WfneuJ51nS/xzseiCBBX5TVkJv7eeuo1SKnTnkrL3dKXX8MbbyuFWB/nuwrgDtM2rFgn7IHevWyPXBuRwzH/QULd+sKsPMdV3wqeUXXIvbH6adIIUPsXLctbCuAFR9/dUnzUTC3t6zHvdoLlgcOd1EO1eftGzDcckv9iong/dGrx9G9U9DoaMfP2+55Kcsqvx3Nz7dbzbYCeBIj3CdPoX6sBG6/em/FLNcrncYymD/fcX81hMZLD5g7N3vdLa+IHDzorXzFfGOmnXGplGhWQH7+7ju6firGd9/Zreb7NdDFt8jmzY4FHcvNMGqU5VfvrbjlemU5Qzrut7pwO7qYU+u8hv79796Kd5hZPE7NunV5RH6HpKU57re9DAbf58V3fwB3RgzHgroTO3gCKrxg+dzpv3QIJCUxjd1QVua4/ypCM1kCFy+SZPSHpCS7iSGaLLtUiowc6W+EkfzWHAVr1vhaz2cF8KRCcWfEcCzwSwxEZszodtvOHDUbNPDab6uY70Q++4x0uRVNTQ0WRbAmXn6QA2hqqt1YPiuQxHxcG8O0aY4FGMMpOHJkh0QDW7f6Wt2BJfBKDhwrFYpjwd2HHWPcNRcQ70ulRXZOVLQYq1YRYcRBv341tjW4l3r5wXgQEhKyO0atFmP1atv1P7lUirzwgt+hZLulFBYscJqbyLEp2MqB44lmdYgVQnU1ksYe1i/t0pOXJ6KxsXRgGMyaVWW3Bne72kbS4fXXK1aEGmhsrK/Ru3HF+clqJiczX9Ph0UediuOJnPofVsKsWU7b8T8wpDivlZovv8z9fIBMmOD4gyw/90f4D5qYmHMwerIYOTm+tmN54HgcMaz3+BdJRrp2tS3P00yE3FzpLPVg7VqeKG8DS5bYPdX/lPiigpZqxsfrevMgbNrktzv9KA7Ciy9mj40eJDJpktNm/FYATzRw49AfoLDQb989d2iYrqQF3H23U0X4KVff4ysi0ZYty98P+cuPn52t0DDLZGvXcucNz8Q/YKYjGzZwiZ7QpInjBi13+qS6BWhkpF2v6soIWHBo/A17z6uZmqqd5RDih3OjG8+KgJ6FtDQroCJQ8lY1nqV+nb4FixYFLMvZY4TC8OHZw6M7ifjhQ+gm4PkBXCV5s1VXrZIk+kFyst8Nui1cViSNFVDh8asPEqzbTMjYa19Enn/e3z3+ZyyTdFixIrtj1GqRe+8NVLMB9wcwB1+MRx96yEp+5HeDbo8aKyTr0pzybKSw0NUrr1TNhx+2a1AKNFa/8fH5yapjxoT86ZocZN++gE98Lh9AcTGEhaNjxgT6O6osRUyPrnl3q3bubF7HUMjK8nvvqwRPLqBHARYtMhsYp9Hlyy0v24B9z9E9T6sZE1MhIV248gvMBP8NOJXiPguZ15uLkD59dk6JPS/ihwm+Eqo8SVRccUGRao8erDPboh99VG0ZP92HJb2OvrB9O8fpiRYVyUpdjBw5ogONVnB1C7EcVjRF0tCbbvI8y1qvc9UUg2idfYy2xmC0f/8dEV2+FmPHjqrqr9ryBHoSJcyUXGTDBmZoOngPnfrVkMP3cOqUeUEbwaBBO+vFdBSx70bvlGrzCbSuc8ZU/R769rWSH1VX/0GLe483nzEToVev6pp4i2p3CrUig0IfrLMKunbVx6QvLF9e3XLUOD0lHdasKbt8eQLExVXVHu+NIEgWfQXXhPydqvffL0V6CV5+ucbi/qsKy4DTmjthwoRA3eP9JWjcwq2sV1byIysHzlWD0C8Ly1ZvmWw9lrsgmXiLoFkBKsNVsm+WapMmVioUT0YMd2KEmpbPg/tZ1nqdsx5pAmVSriqCXgF+jvsvY9wZMTyJEcpJhcREDjEY7EfH2sbyhfyWr6CggIekOWzaZDY3MyAzc2dM9DrIyqr9y5gaxpO97KWwcCQmhiJzBEREWPd7HqET0rjxT0PdPIEvb7AfPXXKshdIuZTD/v1lCy+/hubl+epzV0sttdRSSy211FJLLUHH/wMALuwO3bh8mQAAACV0RVh0ZGF0ZTpjcmVhdGUAMjAyMy0wNS0xMFQxMzoyNToyNyswMDowMJXKS4UAAAAldEVYdGRhdGU6bW9kaWZ5ADIwMjMtMDUtMTBUMTM6MjU6MjcrMDA6MDDkl/M5AAAAKHRFWHRkYXRlOnRpbWVzdGFtcAAyMDIzLTA1LTEwVDEzOjI1OjI3KzAwOjAws4LS5gAAAABJRU5ErkJggg==;" parent="1" vertex="1">
                    <mxGeometry x="504" y="532" width="20" height="20" as="geometry"/>
                </mxCell>
                <mxCell id="86" value="&lt;h1&gt;&lt;font style=&quot;font-size: 20px; font-weight: normal;&quot; color=&quot;#000000&quot;&gt;10.00 AM&lt;/font&gt;&lt;/h1&gt;" style="text;html=1;strokeColor=none;fillColor=none;spacing=5;spacingTop=-20;whiteSpace=wrap;overflow=hidden;rounded=0;labelBackgroundColor=none;strokeWidth=2;fontSize=16;fontColor=#E6E6E6;opacity=70;" parent="1" vertex="1">
                    <mxGeometry x="518" y="507" width="118" height="60" as="geometry"/>
                </mxCell>
                <mxCell id="90" value="&lt;h1&gt;&lt;font style=&quot;font-size: 29px;&quot; color=&quot;#000000&quot;&gt;KSR&lt;/font&gt;&lt;/h1&gt;" style="text;html=1;strokeColor=none;fillColor=none;spacing=5;spacingTop=-20;whiteSpace=wrap;overflow=hidden;rounded=0;labelBackgroundColor=none;strokeWidth=2;fontSize=16;fontColor=#E6E6E6;opacity=70;" parent="1" vertex="1">
                    <mxGeometry x="504" y="450" width="90" height="60" as="geometry"/>
                </mxCell>
                <mxCell id="92" value="" style="shape=image;verticalLabelPosition=bottom;labelBackgroundColor=default;verticalAlign=top;aspect=fixed;imageAspect=0;image=data:image/png,iVBORw0KGgoAAAANSUhEUgAAAEAAAABAEAQAAABQ8GUWAAAAIGNIUk0AAHomAACAhAAA+gAAAIDoAAB1MAAA6mAAADqYAAAXcJy6UTwAAAACYktHRAAAqo0jMgAAAAlwSFlzAAAAYAAAAGAA8GtCzwAAAAd0SU1FB+cFCg0nLfcKk80AAAZFSURBVHja7Zp7TFNXGMC/01seIkWZPNSgknrpRGCWl6PExPFQXj5GBswwU8Uag5j5gCkbm4pmMqcOJ1HEJVblEWPDwlC4BV2AjMg7pFoUqEUTMkmUx1Tk3d6zP7ANIhWE0qrc33/3O4fzPfjOd14FYGBgYGBgYGBgYGBgmIGgfF8Oh0ji8YxtiNYgYW8v7djevr6+o8MQ+timAxUVmOXqamzHtWQDEABA3evqgsVyOY4qKyPI4uIgZVUVQhjrWx2iXBsb4cSyZcb2e1xDNz58iI9fvDgQn54ejp4909u4BQXW1qwMd3eWC4tlbCfVLWw2axuHAzUODpDB42ErgQDRbm44bYRt6hcv8MDJkxZfnTrlh/r7pxwAYzs9HpTC1hYPRkWhZpEIZrm7axuylUpWtVAY3FJZaWwbDYa0NSiI+rO+nqIwpiiMqcDBQerXhARj22VQJBKCoDz27KF29vVpAxGdlnYYT24Kv/dTQBeFEXw+8sjLA76jIwAAkJmZ1U4xMUcQTRvbNoNx65OFCynF3bvaTFBcufKumWD0yj8V1nS1tdGK1auBrKsDAAClUPj5rpycUsxmT3QMRPFiY9FSPz929b59a7ra2iQSgpj9WWoq8l2+fNKWberoQPKiIvN/cnL8kEo1XncqOiQE1kREoN2LFmET9M7TEpHW1jjZ01MrIDMzX8q2bYuKUqvHD8AX3d1wwNIS1cTHhySfPl3MX7FCnSKTTdr5kVTV1sLmsLBQXnv7WM2lmM3u25WVBes2bdKLvpFMMAhsFJaYCN/4+6ttJBIAgOdJDQ2W5Nmz4DPJ3aE3m41uubriAhsb8PH2htisLIDg4LG69j04ckTr/ImXL+GPO3fAp69vSo5/R5LAd3QEpVBoyQeQSCaWCXqlFJubU94SibY48by8Rve54WFhQSl6eobbZbKbbnZ2+tD99+V58yieTDayMEokBKGr/7QUQT/U38/uT0zUCoQ+Pm8ojnBzA6WFBQAA3p2Sslb+9Kk+dAdu7ew0TQoIQOGvprFSKLTki8W6gvBBrwJvC4LJhcDAiQRhWgJAKczM1A7Hj2u+af6b+3U6Vy4HsrcXAAClJSVRClvb6Q4CJ/vSpdFBQNKTcXH4l/BwfSlGLgSB97u6AvuVQ6eKi0NLxi6ClOLYMVAmJQHAcBH0lckgY+onvNfsGbVEooysrO7NMTGawqhdBvWpVIsxl8G38UQsDo0RiQCmIQOGHe/sRCKpdKIbocKI4GAUFhkJCYsXT6vjmiUSAOCnvXtD68+c+WAPQ5PhhoeNDVteXY3zuVwU1t1NuJLkR7kK6GJ9fUcH7bR9OwAALuRwVHO2bp1RGaBBanr/Pv7L2RnIkpIZlQEa8JaaGgAAyOVyZ2QAYP/gIAAA5JuazswAXHZ2BgCAoMePJ3xx8LFQUMDlAk8gACUAXl9WNqMy4DBmsYjfzp0DJUGg3TTNepCdbWybDAalsLKShly7pjkmS23FYoD37GVoOsCrra2xeOVKEG7ZojmfoHCZjOCtWrVW3tPzwbwN6g1SKh1wio7WvC+ykZlKpfcn1/cNUq2Gb8vLkVlaWsj1vLyRTSjfl8Mxve3pib5//SqZziNJ+P38eQAASD10iOVZWUmLnJxAmZ4OAIB7Dx4kaquqDOUDTr1wAedzuUDevs26mJz8mkxUXs4SHj06+m/oezTN8n/yZCC3tXVjRXf3OyksSnVx0RYMKjISAKBoqUCglbUGBRnKeQAA6lBNDUVhTCUUFmplPzc1URTGVNzVq5Mdl00prKwg3strdBFUR5mbo7uvok8eOCDdoFLh0p07tR0WLVhQlBgYqGtgbPP8ecj+2lrN9003O7vBFXZ267IbGjSywtwlS4haJ6eJGEq7DN8eQa+/v3Tljh34axsbeDT8yxZ8GuMijm5bxrTvP4zVG+rrEbWuogLiBIKp/X90QIpEoTyxuK7WxOTpnNZWSLO3xyUBAWH3S0sLI+bPRyktLZqLUWOAvmxsZKHSoaFpU1A3vOfu9sIYGlUqVIQxcXD4gsSkmabRpwa+rx8F/nFoCEkks2ZZWEzhGUwHJv/29ATFNjVpvgsKrK1Nf5g7d6380SON7LqtvT3rkoODsQIwO6y52Vi6GRgYGBgYGBgYGBgYjMr/wQm386wCi30AAAAldEVYdGRhdGU6Y3JlYXRlADIwMjMtMDUtMTBUMTM6Mzk6NDUrMDA6MDAfiGxlAAAAJXRFWHRkYXRlOm1vZGlmeQAyMDIzLTA1LTEwVDEzOjM5OjQ1KzAwOjAwbtXU2QAAACh0RVh0ZGF0ZTp0aW1lc3RhbXAAMjAyMy0wNS0xMFQxMzozOTo0NSswMDowMDnA9QYAAAAASUVORK5CYII=;" parent="1" vertex="1">
                    <mxGeometry x="408" y="520" width="34" height="34" as="geometry"/>
                </mxCell>
                <mxCell id="93" value="" style="shape=image;verticalLabelPosition=bottom;labelBackgroundColor=default;verticalAlign=top;aspect=fixed;imageAspect=0;image=data:image/png,iVBORw0KGgoAAAANSUhEUgAAAEAAAABAEAQAAABQ8GUWAAAAIGNIUk0AAHomAACAhAAA+gAAAIDoAAB1MAAA6mAAADqYAAAXcJy6UTwAAAACYktHRAAAqo0jMgAAAAlwSFlzAAAAYAAAAGAA8GtCzwAAAAd0SU1FB+cFCg0iAiGsWtEAAAFsSURBVHja7dM9SEJRGAbg9/jboPgz6BA1JeLP1CYEEbQ7GKTu5eCWIOLgYoNTDm0RTgoObkkEEk4tCkIE10ChIEglm0rEwXsb2hry3LF4n/l9P77zwQGIiIiIiIiIiIiIiIiIiOj/EwBwn/F4zGuFghh4PDIl7VRVkWo2g+1qVSbfP49EoKTTeLdYpLZ6WCzwXC4H5r2e1Pz9eFw7jEZFy2iUmn81nQLFYmA+GgkAUNZrNbSSSV2nUzRNrYRC4et+/7dYWzOZvJ+TCV7cbj3jxe5wGHjz+VblHi/9fvVVUXBgMOja/65eDx4lEt+lJ6dTVxkAgkJgx2ZbFds6M5sxXZ37SZvIdZY3DofuxwOAz24HABMAGLZzOTXjcqHh9UqVL5ZLzd1ohPPd7qroRmY+75+kUohls9rCapWavzebidt8XiYaanQ6ykephEoshmPJL7A5HotBLqf7aERERERERERERERERERE9Ed9AdqeZ+Fi7OZ0AAAAJXRFWHRkYXRlOmNyZWF0ZQAyMDIzLTA1LTEwVDEzOjM0OjAyKzAwOjAwq5vXoQAAACV0RVh0ZGF0ZTptb2RpZnkAMjAyMy0wNS0xMFQxMzozNDowMiswMDowMNrGbx0AAAAodEVYdGRhdGU6dGltZXN0YW1wADIwMjMtMDUtMTBUMTM6MzQ6MDIrMDA6MDCN007CAAAAAElFTkSuQmCC;" vertex="1" parent="1">
                    <mxGeometry x="220" y="552" width="64" height="64" as="geometry"/>
                </mxCell>
                <mxCell id="94" value="" style="shape=image;verticalLabelPosition=bottom;labelBackgroundColor=default;verticalAlign=top;aspect=fixed;imageAspect=0;image=data:image/png,iVBORw0KGgoAAAANSUhEUgAAAEAAAABAEAQAAABQ8GUWAAAAIGNIUk0AAHomAACAhAAA+gAAAIDoAAB1MAAA6mAAADqYAAAXcJy6UTwAAAACYktHRAAAqo0jMgAAAAlwSFlzAAAAYAAAAGAA8GtCzwAAAAd0SU1FB+cFCg0iAiGsWtEAAAFsSURBVHja7dM9SEJRGAbg9/jboPgz6BA1JeLP1CYEEbQ7GKTu5eCWIOLgYoNTDm0RTgoObkkEEk4tCkIE10ChIEglm0rEwXsb2hry3LF4n/l9P77zwQGIiIiIiIiIiIiIiIiIiOj/EwBwn/F4zGuFghh4PDIl7VRVkWo2g+1qVSbfP49EoKTTeLdYpLZ6WCzwXC4H5r2e1Pz9eFw7jEZFy2iUmn81nQLFYmA+GgkAUNZrNbSSSV2nUzRNrYRC4et+/7dYWzOZvJ+TCV7cbj3jxe5wGHjz+VblHi/9fvVVUXBgMOja/65eDx4lEt+lJ6dTVxkAgkJgx2ZbFds6M5sxXZ37SZvIdZY3DofuxwOAz24HABMAGLZzOTXjcqHh9UqVL5ZLzd1ohPPd7qroRmY+75+kUohls9rCapWavzebidt8XiYaanQ6ykephEoshmPJL7A5HotBLqf7aERERERERERERERERERE9Ed9AdqeZ+Fi7OZ0AAAAJXRFWHRkYXRlOmNyZWF0ZQAyMDIzLTA1LTEwVDEzOjM0OjAyKzAwOjAwq5vXoQAAACV0RVh0ZGF0ZTptb2RpZnkAMjAyMy0wNS0xMFQxMzozNDowMiswMDowMNrGbx0AAAAodEVYdGRhdGU6dGltZXN0YW1wADIwMjMtMDUtMTBUMTM6MzQ6MDIrMDA6MDCN007CAAAAAElFTkSuQmCC;" vertex="1" parent="1">
                    <mxGeometry x="289" y="552" width="64" height="64" as="geometry"/>
                </mxCell>
                <mxCell id="95" value="" style="shape=image;verticalLabelPosition=bottom;labelBackgroundColor=default;verticalAlign=top;aspect=fixed;imageAspect=0;image=data:image/png,iVBORw0KGgoAAAANSUhEUgAAAEAAAABAEAQAAABQ8GUWAAAAIGNIUk0AAHomAACAhAAA+gAAAIDoAAB1MAAA6mAAADqYAAAXcJy6UTwAAAACYktHRAAAqo0jMgAAAAlwSFlzAAAAYAAAAGAA8GtCzwAAAAd0SU1FB+cFCg0iAiGsWtEAAAFsSURBVHja7dM9SEJRGAbg9/jboPgz6BA1JeLP1CYEEbQ7GKTu5eCWIOLgYoNTDm0RTgoObkkEEk4tCkIE10ChIEglm0rEwXsb2hry3LF4n/l9P77zwQGIiIiIiIiIiIiIiIiIiOj/EwBwn/F4zGuFghh4PDIl7VRVkWo2g+1qVSbfP49EoKTTeLdYpLZ6WCzwXC4H5r2e1Pz9eFw7jEZFy2iUmn81nQLFYmA+GgkAUNZrNbSSSV2nUzRNrYRC4et+/7dYWzOZvJ+TCV7cbj3jxe5wGHjz+VblHi/9fvVVUXBgMOja/65eDx4lEt+lJ6dTVxkAgkJgx2ZbFds6M5sxXZ37SZvIdZY3DofuxwOAz24HABMAGLZzOTXjcqHh9UqVL5ZLzd1ohPPd7qroRmY+75+kUohls9rCapWavzebidt8XiYaanQ6ykephEoshmPJL7A5HotBLqf7aERERERERERERERERERE9Ed9AdqeZ+Fi7OZ0AAAAJXRFWHRkYXRlOmNyZWF0ZQAyMDIzLTA1LTEwVDEzOjM0OjAyKzAwOjAwq5vXoQAAACV0RVh0ZGF0ZTptb2RpZnkAMjAyMy0wNS0xMFQxMzozNDowMiswMDowMNrGbx0AAAAodEVYdGRhdGU6dGltZXN0YW1wADIwMjMtMDUtMTBUMTM6MzQ6MDIrMDA6MDCN007CAAAAAElFTkSuQmCC;" vertex="1" parent="1">
                    <mxGeometry x="354.5" y="552" width="64" height="64" as="geometry"/>
                </mxCell>
                <mxCell id="96" value="" style="shape=image;verticalLabelPosition=bottom;labelBackgroundColor=default;verticalAlign=top;aspect=fixed;imageAspect=0;image=data:image/png,iVBORw0KGgoAAAANSUhEUgAAAEAAAABAEAQAAABQ8GUWAAAAIGNIUk0AAHomAACAhAAA+gAAAIDoAAB1MAAA6mAAADqYAAAXcJy6UTwAAAACYktHRAAAqo0jMgAAAAlwSFlzAAAAYAAAAGAA8GtCzwAAAAd0SU1FB+cFCg0iAiGsWtEAAAFsSURBVHja7dM9SEJRGAbg9/jboPgz6BA1JeLP1CYEEbQ7GKTu5eCWIOLgYoNTDm0RTgoObkkEEk4tCkIE10ChIEglm0rEwXsb2hry3LF4n/l9P77zwQGIiIiIiIiIiIiIiIiIiOj/EwBwn/F4zGuFghh4PDIl7VRVkWo2g+1qVSbfP49EoKTTeLdYpLZ6WCzwXC4H5r2e1Pz9eFw7jEZFy2iUmn81nQLFYmA+GgkAUNZrNbSSSV2nUzRNrYRC4et+/7dYWzOZvJ+TCV7cbj3jxe5wGHjz+VblHi/9fvVVUXBgMOja/65eDx4lEt+lJ6dTVxkAgkJgx2ZbFds6M5sxXZ37SZvIdZY3DofuxwOAz24HABMAGLZzOTXjcqHh9UqVL5ZLzd1ohPPd7qroRmY+75+kUohls9rCapWavzebidt8XiYaanQ6ykephEoshmPJL7A5HotBLqf7aERERERERERERERERERE9Ed9AdqeZ+Fi7OZ0AAAAJXRFWHRkYXRlOmNyZWF0ZQAyMDIzLTA1LTEwVDEzOjM0OjAyKzAwOjAwq5vXoQAAACV0RVh0ZGF0ZTptb2RpZnkAMjAyMy0wNS0xMFQxMzozNDowMiswMDowMNrGbx0AAAAodEVYdGRhdGU6dGltZXN0YW1wADIwMjMtMDUtMTBUMTM6MzQ6MDIrMDA6MDCN007CAAAAAElFTkSuQmCC;" vertex="1" parent="1">
                    <mxGeometry x="423.5" y="552" width="64" height="64" as="geometry"/>
                </mxCell>
                <mxCell id="97" value="" style="shape=image;verticalLabelPosition=bottom;labelBackgroundColor=default;verticalAlign=top;aspect=fixed;imageAspect=0;image=data:image/png,iVBORw0KGgoAAAANSUhEUgAAAEAAAABAEAQAAABQ8GUWAAAAIGNIUk0AAHomAACAhAAA+gAAAIDoAAB1MAAA6mAAADqYAAAXcJy6UTwAAAACYktHRAAAqo0jMgAAAAlwSFlzAAAAYAAAAGAA8GtCzwAAAAd0SU1FB+cFCg0iAiGsWtEAAAFsSURBVHja7dM9SEJRGAbg9/jboPgz6BA1JeLP1CYEEbQ7GKTu5eCWIOLgYoNTDm0RTgoObkkEEk4tCkIE10ChIEglm0rEwXsb2hry3LF4n/l9P77zwQGIiIiIiIiIiIiIiIiIiOj/EwBwn/F4zGuFghh4PDIl7VRVkWo2g+1qVSbfP49EoKTTeLdYpLZ6WCzwXC4H5r2e1Pz9eFw7jEZFy2iUmn81nQLFYmA+GgkAUNZrNbSSSV2nUzRNrYRC4et+/7dYWzOZvJ+TCV7cbj3jxe5wGHjz+VblHi/9fvVVUXBgMOja/65eDx4lEt+lJ6dTVxkAgkJgx2ZbFds6M5sxXZ37SZvIdZY3DofuxwOAz24HABMAGLZzOTXjcqHh9UqVL5ZLzd1ohPPd7qroRmY+75+kUohls9rCapWavzebidt8XiYaanQ6ykephEoshmPJL7A5HotBLqf7aERERERERERERERERERE9Ed9AdqeZ+Fi7OZ0AAAAJXRFWHRkYXRlOmNyZWF0ZQAyMDIzLTA1LTEwVDEzOjM0OjAyKzAwOjAwq5vXoQAAACV0RVh0ZGF0ZTptb2RpZnkAMjAyMy0wNS0xMFQxMzozNDowMiswMDowMNrGbx0AAAAodEVYdGRhdGU6dGltZXN0YW1wADIwMjMtMDUtMTBUMTM6MzQ6MDIrMDA6MDCN007CAAAAAElFTkSuQmCC;" vertex="1" parent="1">
                    <mxGeometry x="487.5" y="552" width="64" height="64" as="geometry"/>
                </mxCell>
                <mxCell id="98" value="" style="shape=image;verticalLabelPosition=bottom;labelBackgroundColor=default;verticalAlign=top;aspect=fixed;imageAspect=0;image=data:image/png,iVBORw0KGgoAAAANSUhEUgAAAEAAAABAEAQAAABQ8GUWAAAAIGNIUk0AAHomAACAhAAA+gAAAIDoAAB1MAAA6mAAADqYAAAXcJy6UTwAAAACYktHRAAAqo0jMgAAAAlwSFlzAAAAYAAAAGAA8GtCzwAAAAd0SU1FB+cFCg0iAiGsWtEAAAFsSURBVHja7dM9SEJRGAbg9/jboPgz6BA1JeLP1CYEEbQ7GKTu5eCWIOLgYoNTDm0RTgoObkkEEk4tCkIE10ChIEglm0rEwXsb2hry3LF4n/l9P77zwQGIiIiIiIiIiIiIiIiIiOj/EwBwn/F4zGuFghh4PDIl7VRVkWo2g+1qVSbfP49EoKTTeLdYpLZ6WCzwXC4H5r2e1Pz9eFw7jEZFy2iUmn81nQLFYmA+GgkAUNZrNbSSSV2nUzRNrYRC4et+/7dYWzOZvJ+TCV7cbj3jxe5wGHjz+VblHi/9fvVVUXBgMOja/65eDx4lEt+lJ6dTVxkAgkJgx2ZbFds6M5sxXZ37SZvIdZY3DofuxwOAz24HABMAGLZzOTXjcqHh9UqVL5ZLzd1ohPPd7qroRmY+75+kUohls9rCapWavzebidt8XiYaanQ6ykephEoshmPJL7A5HotBLqf7aERERERERERERERERERE9Ed9AdqeZ+Fi7OZ0AAAAJXRFWHRkYXRlOmNyZWF0ZQAyMDIzLTA1LTEwVDEzOjM0OjAyKzAwOjAwq5vXoQAAACV0RVh0ZGF0ZTptb2RpZnkAMjAyMy0wNS0xMFQxMzozNDowMiswMDowMNrGbx0AAAAodEVYdGRhdGU6dGltZXN0YW1wADIwMjMtMDUtMTBUMTM6MzQ6MDIrMDA6MDCN007CAAAAAElFTkSuQmCC;" vertex="1" parent="1">
                    <mxGeometry x="556.5" y="552" width="64" height="64" as="geometry"/>
                </mxCell>
                <mxCell id="99" value="&lt;h1&gt;&lt;font color=&quot;#b3b3b3&quot; size=&quot;1&quot; style=&quot;font-weight: normal;&quot;&gt;&lt;i style=&quot;font-size: 15px;&quot;&gt;Terminal 04&lt;/i&gt;&lt;/font&gt;&lt;/h1&gt;" style="text;html=1;strokeColor=none;fillColor=none;spacing=5;spacingTop=-20;whiteSpace=wrap;overflow=hidden;rounded=0;labelBackgroundColor=none;strokeWidth=2;fontSize=16;fontColor=#E6E6E6;opacity=70;" vertex="1" parent="1">
                    <mxGeometry x="262" y="578" width="118" height="60" as="geometry"/>
                </mxCell>
                <mxCell id="100" value="&lt;h1&gt;&lt;font color=&quot;#b3b3b3&quot; size=&quot;1&quot; style=&quot;&quot;&gt;&lt;i style=&quot;font-size: 15px;&quot;&gt;Economy Class&lt;/i&gt;&lt;/font&gt;&lt;/h1&gt;" style="text;html=1;strokeColor=none;fillColor=none;spacing=5;spacingTop=-20;whiteSpace=wrap;overflow=hidden;rounded=0;labelBackgroundColor=none;strokeWidth=2;fontSize=16;fontColor=#E6E6E6;opacity=70;" vertex="1" parent="1">
                    <mxGeometry x="487.5" y="574" width="132.5" height="60" as="geometry"/>
                </mxCell>
                <mxCell id="102" value="" style="rounded=1;whiteSpace=wrap;html=1;labelBackgroundColor=none;fontSize=16;fontColor=#E6E6E6;opacity=70;fillColor=#FFFFFF;strokeWidth=2;strokeColor=#CCCCCC;" vertex="1" parent="1">
                    <mxGeometry x="217" y="670" width="400" height="210" as="geometry"/>
                </mxCell>
                <mxCell id="103" value="&lt;h1&gt;&lt;font style=&quot;font-size: 29px;&quot; color=&quot;#000000&quot;&gt;MDN&lt;/font&gt;&lt;/h1&gt;" style="text;html=1;strokeColor=none;fillColor=none;spacing=5;spacingTop=-20;whiteSpace=wrap;overflow=hidden;rounded=0;labelBackgroundColor=none;strokeWidth=2;fontSize=16;fontColor=#E6E6E6;opacity=70;" vertex="1" parent="1">
                    <mxGeometry x="260" y="690" width="90" height="60" as="geometry"/>
                </mxCell>
                <mxCell id="104" value="&lt;h1&gt;&lt;font style=&quot;font-size: 20px; font-weight: normal;&quot; color=&quot;#000000&quot;&gt;12.00 PM&lt;/font&gt;&lt;/h1&gt;" style="text;html=1;strokeColor=none;fillColor=none;spacing=5;spacingTop=-20;whiteSpace=wrap;overflow=hidden;rounded=0;labelBackgroundColor=none;strokeWidth=2;fontSize=16;fontColor=#E6E6E6;opacity=70;" vertex="1" parent="1">
                    <mxGeometry x="228" y="747" width="118" height="60" as="geometry"/>
                </mxCell>
                <mxCell id="105" value="" style="shape=image;verticalLabelPosition=bottom;labelBackgroundColor=default;verticalAlign=top;aspect=fixed;imageAspect=0;image=data:image/png,iVBORw0KGgoAAAANSUhEUgAAAEAAAABAEAQAAABQ8GUWAAAAIGNIUk0AAHomAACAhAAA+gAAAIDoAAB1MAAA6mAAADqYAAAXcJy6UTwAAAACYktHRAAAqo0jMgAAAAlwSFlzAAAAYAAAAGAA8GtCzwAAAAd0SU1FB+cFCg0iAiGsWtEAAAFsSURBVHja7dM9SEJRGAbg9/jboPgz6BA1JeLP1CYEEbQ7GKTu5eCWIOLgYoNTDm0RTgoObkkEEk4tCkIE10ChIEglm0rEwXsb2hry3LF4n/l9P77zwQGIiIiIiIiIiIiIiIiIiOj/EwBwn/F4zGuFghh4PDIl7VRVkWo2g+1qVSbfP49EoKTTeLdYpLZ6WCzwXC4H5r2e1Pz9eFw7jEZFy2iUmn81nQLFYmA+GgkAUNZrNbSSSV2nUzRNrYRC4et+/7dYWzOZvJ+TCV7cbj3jxe5wGHjz+VblHi/9fvVVUXBgMOja/65eDx4lEt+lJ6dTVxkAgkJgx2ZbFds6M5sxXZ37SZvIdZY3DofuxwOAz24HABMAGLZzOTXjcqHh9UqVL5ZLzd1ohPPd7qroRmY+75+kUohls9rCapWavzebidt8XiYaanQ6ykephEoshmPJL7A5HotBLqf7aERERERERERERERERERE9Ed9AdqeZ+Fi7OZ0AAAAJXRFWHRkYXRlOmNyZWF0ZQAyMDIzLTA1LTEwVDEzOjM0OjAyKzAwOjAwq5vXoQAAACV0RVh0ZGF0ZTptb2RpZnkAMjAyMy0wNS0xMFQxMzozNDowMiswMDowMNrGbx0AAAAodEVYdGRhdGU6dGltZXN0YW1wADIwMjMtMDUtMTBUMTM6MzQ6MDIrMDA6MDCN007CAAAAAElFTkSuQmCC;" vertex="1" parent="1">
                    <mxGeometry x="339" y="750" width="64" height="64" as="geometry"/>
                </mxCell>
                <mxCell id="106" value="" style="shape=image;verticalLabelPosition=bottom;labelBackgroundColor=default;verticalAlign=top;aspect=fixed;imageAspect=0;image=data:image/png,iVBORw0KGgoAAAANSUhEUgAAAEAAAABAEAQAAABQ8GUWAAAAIGNIUk0AAHomAACAhAAA+gAAAIDoAAB1MAAA6mAAADqYAAAXcJy6UTwAAAACYktHRAAAqo0jMgAAAAlwSFlzAAAAYAAAAGAA8GtCzwAAAAd0SU1FB+cFCg0iAiGsWtEAAAFsSURBVHja7dM9SEJRGAbg9/jboPgz6BA1JeLP1CYEEbQ7GKTu5eCWIOLgYoNTDm0RTgoObkkEEk4tCkIE10ChIEglm0rEwXsb2hry3LF4n/l9P77zwQGIiIiIiIiIiIiIiIiIiOj/EwBwn/F4zGuFghh4PDIl7VRVkWo2g+1qVSbfP49EoKTTeLdYpLZ6WCzwXC4H5r2e1Pz9eFw7jEZFy2iUmn81nQLFYmA+GgkAUNZrNbSSSV2nUzRNrYRC4et+/7dYWzOZvJ+TCV7cbj3jxe5wGHjz+VblHi/9fvVVUXBgMOja/65eDx4lEt+lJ6dTVxkAgkJgx2ZbFds6M5sxXZ37SZvIdZY3DofuxwOAz24HABMAGLZzOTXjcqHh9UqVL5ZLzd1ohPPd7qroRmY+75+kUohls9rCapWavzebidt8XiYaanQ6ykephEoshmPJL7A5HotBLqf7aERERERERERERERERERE9Ed9AdqeZ+Fi7OZ0AAAAJXRFWHRkYXRlOmNyZWF0ZQAyMDIzLTA1LTEwVDEzOjM0OjAyKzAwOjAwq5vXoQAAACV0RVh0ZGF0ZTptb2RpZnkAMjAyMy0wNS0xMFQxMzozNDowMiswMDowMNrGbx0AAAAodEVYdGRhdGU6dGltZXN0YW1wADIwMjMtMDUtMTBUMTM6MzQ6MDIrMDA6MDCN007CAAAAAElFTkSuQmCC;" vertex="1" parent="1">
                    <mxGeometry x="437" y="750" width="64" height="64" as="geometry"/>
                </mxCell>
                <mxCell id="107" value="&lt;h1&gt;&lt;font style=&quot;font-size: 20px; font-weight: normal;&quot; color=&quot;#000000&quot;&gt;15.00 PM&lt;/font&gt;&lt;/h1&gt;" style="text;html=1;strokeColor=none;fillColor=none;spacing=5;spacingTop=-20;whiteSpace=wrap;overflow=hidden;rounded=0;labelBackgroundColor=none;strokeWidth=2;fontSize=16;fontColor=#E6E6E6;opacity=70;" vertex="1" parent="1">
                    <mxGeometry x="515" y="747" width="118" height="60" as="geometry"/>
                </mxCell>
                <mxCell id="108" value="&lt;h1&gt;&lt;font style=&quot;font-size: 29px;&quot; color=&quot;#000000&quot;&gt;KSR&lt;/font&gt;&lt;/h1&gt;" style="text;html=1;strokeColor=none;fillColor=none;spacing=5;spacingTop=-20;whiteSpace=wrap;overflow=hidden;rounded=0;labelBackgroundColor=none;strokeWidth=2;fontSize=16;fontColor=#E6E6E6;opacity=70;" vertex="1" parent="1">
                    <mxGeometry x="501" y="690" width="90" height="60" as="geometry"/>
                </mxCell>
                <mxCell id="109" value="" style="shape=image;verticalLabelPosition=bottom;labelBackgroundColor=default;verticalAlign=top;aspect=fixed;imageAspect=0;image=data:image/png,iVBORw0KGgoAAAANSUhEUgAAAEAAAABAEAQAAABQ8GUWAAAAIGNIUk0AAHomAACAhAAA+gAAAIDoAAB1MAAA6mAAADqYAAAXcJy6UTwAAAACYktHRAAAqo0jMgAAAAlwSFlzAAAAYAAAAGAA8GtCzwAAAAd0SU1FB+cFCg0nLfcKk80AAAZFSURBVHja7Zp7TFNXGMC/01seIkWZPNSgknrpRGCWl6PExPFQXj5GBswwU8Uag5j5gCkbm4pmMqcOJ1HEJVblEWPDwlC4BV2AjMg7pFoUqEUTMkmUx1Tk3d6zP7ANIhWE0qrc33/3O4fzPfjOd14FYGBgYGBgYGBgYGBgmIGgfF8Oh0ji8YxtiNYgYW8v7djevr6+o8MQ+timAxUVmOXqamzHtWQDEABA3evqgsVyOY4qKyPI4uIgZVUVQhjrWx2iXBsb4cSyZcb2e1xDNz58iI9fvDgQn54ejp4909u4BQXW1qwMd3eWC4tlbCfVLWw2axuHAzUODpDB42ErgQDRbm44bYRt6hcv8MDJkxZfnTrlh/r7pxwAYzs9HpTC1hYPRkWhZpEIZrm7axuylUpWtVAY3FJZaWwbDYa0NSiI+rO+nqIwpiiMqcDBQerXhARj22VQJBKCoDz27KF29vVpAxGdlnYYT24Kv/dTQBeFEXw+8sjLA76jIwAAkJmZ1U4xMUcQTRvbNoNx65OFCynF3bvaTFBcufKumWD0yj8V1nS1tdGK1auBrKsDAAClUPj5rpycUsxmT3QMRPFiY9FSPz929b59a7ra2iQSgpj9WWoq8l2+fNKWberoQPKiIvN/cnL8kEo1XncqOiQE1kREoN2LFmET9M7TEpHW1jjZ01MrIDMzX8q2bYuKUqvHD8AX3d1wwNIS1cTHhySfPl3MX7FCnSKTTdr5kVTV1sLmsLBQXnv7WM2lmM3u25WVBes2bdKLvpFMMAhsFJaYCN/4+6ttJBIAgOdJDQ2W5Nmz4DPJ3aE3m41uubriAhsb8PH2htisLIDg4LG69j04ckTr/ImXL+GPO3fAp69vSo5/R5LAd3QEpVBoyQeQSCaWCXqlFJubU94SibY48by8Rve54WFhQSl6eobbZbKbbnZ2+tD99+V58yieTDayMEokBKGr/7QUQT/U38/uT0zUCoQ+Pm8ojnBzA6WFBQAA3p2Sslb+9Kk+dAdu7ew0TQoIQOGvprFSKLTki8W6gvBBrwJvC4LJhcDAiQRhWgJAKczM1A7Hj2u+af6b+3U6Vy4HsrcXAAClJSVRClvb6Q4CJ/vSpdFBQNKTcXH4l/BwfSlGLgSB97u6AvuVQ6eKi0NLxi6ClOLYMVAmJQHAcBH0lckgY+onvNfsGbVEooysrO7NMTGawqhdBvWpVIsxl8G38UQsDo0RiQCmIQOGHe/sRCKpdKIbocKI4GAUFhkJCYsXT6vjmiUSAOCnvXtD68+c+WAPQ5PhhoeNDVteXY3zuVwU1t1NuJLkR7kK6GJ9fUcH7bR9OwAALuRwVHO2bp1RGaBBanr/Pv7L2RnIkpIZlQEa8JaaGgAAyOVyZ2QAYP/gIAAA5JuazswAXHZ2BgCAoMePJ3xx8LFQUMDlAk8gACUAXl9WNqMy4DBmsYjfzp0DJUGg3TTNepCdbWybDAalsLKShly7pjkmS23FYoD37GVoOsCrra2xeOVKEG7ZojmfoHCZjOCtWrVW3tPzwbwN6g1SKh1wio7WvC+ykZlKpfcn1/cNUq2Gb8vLkVlaWsj1vLyRTSjfl8Mxve3pib5//SqZziNJ+P38eQAASD10iOVZWUmLnJxAmZ4OAIB7Dx4kaquqDOUDTr1wAedzuUDevs26mJz8mkxUXs4SHj06+m/oezTN8n/yZCC3tXVjRXf3OyksSnVx0RYMKjISAKBoqUCglbUGBRnKeQAA6lBNDUVhTCUUFmplPzc1URTGVNzVq5Mdl00prKwg3strdBFUR5mbo7uvok8eOCDdoFLh0p07tR0WLVhQlBgYqGtgbPP8ecj+2lrN9003O7vBFXZ267IbGjSywtwlS4haJ6eJGEq7DN8eQa+/v3Tljh34axsbeDT8yxZ8GuMijm5bxrTvP4zVG+rrEbWuogLiBIKp/X90QIpEoTyxuK7WxOTpnNZWSLO3xyUBAWH3S0sLI+bPRyktLZqLUWOAvmxsZKHSoaFpU1A3vOfu9sIYGlUqVIQxcXD4gsSkmabRpwa+rx8F/nFoCEkks2ZZWEzhGUwHJv/29ATFNjVpvgsKrK1Nf5g7d6380SON7LqtvT3rkoODsQIwO6y52Vi6GRgYGBgYGBgYGBgYjMr/wQm386wCi30AAAAldEVYdGRhdGU6Y3JlYXRlADIwMjMtMDUtMTBUMTM6Mzk6NDUrMDA6MDAfiGxlAAAAJXRFWHRkYXRlOm1vZGlmeQAyMDIzLTA1LTEwVDEzOjM5OjQ1KzAwOjAwbtXU2QAAACh0RVh0ZGF0ZTp0aW1lc3RhbXAAMjAyMy0wNS0xMFQxMzozOTo0NSswMDowMDnA9QYAAAAASUVORK5CYII=;" vertex="1" parent="1">
                    <mxGeometry x="405" y="760" width="34" height="34" as="geometry"/>
                </mxCell>
                <mxCell id="110" value="&lt;h1&gt;&lt;font color=&quot;#b3b3b3&quot; size=&quot;1&quot; style=&quot;font-weight: normal;&quot;&gt;&lt;i style=&quot;font-size: 15px;&quot;&gt;Terminal 04&lt;/i&gt;&lt;/font&gt;&lt;/h1&gt;" style="text;html=1;strokeColor=none;fillColor=none;spacing=5;spacingTop=-20;whiteSpace=wrap;overflow=hidden;rounded=0;labelBackgroundColor=none;strokeWidth=2;fontSize=16;fontColor=#E6E6E6;opacity=70;" vertex="1" parent="1">
                    <mxGeometry x="259" y="818" width="118" height="60" as="geometry"/>
                </mxCell>
                <mxCell id="111" value="&lt;h1&gt;&lt;font color=&quot;#b3b3b3&quot; size=&quot;1&quot; style=&quot;&quot;&gt;&lt;i style=&quot;font-size: 15px;&quot;&gt;Executive Class&lt;/i&gt;&lt;/font&gt;&lt;/h1&gt;" style="text;html=1;strokeColor=none;fillColor=none;spacing=5;spacingTop=-20;whiteSpace=wrap;overflow=hidden;rounded=0;labelBackgroundColor=none;strokeWidth=2;fontSize=16;fontColor=#E6E6E6;opacity=70;" vertex="1" parent="1">
                    <mxGeometry x="484.5" y="814" width="132.5" height="60" as="geometry"/>
                </mxCell>
                <mxCell id="112" value="" style="shape=image;verticalLabelPosition=bottom;labelBackgroundColor=default;verticalAlign=top;aspect=fixed;imageAspect=0;image=data:image/png,iVBORw0KGgoAAAANSUhEUgAAAEAAAABAEAYAAAD6+a2dAAAAIGNIUk0AAHomAACAhAAA+gAAAIDoAAB1MAAA6mAAADqYAAAXcJy6UTwAAAAGYktHRAAAAAAAAPlDu38AAAAJcEhZcwAAAGAAAABgAPBrQs8AAAAHdElNRQfnBQoNGRt5dR0pAAAOsElEQVR42u2daXRUVbaAv31DgqIyShMmGYQQyKAIlTApJNJtYzM0MaQVSQAHbFnQrdLykCUQxHZoh1amRlwPaAZlShABtVFAiaAkEBGSEJKHTBGDAs2oBJK73w/qFi5dWXXrViUpl/l+n2Hfc3adYZ+9d0EttdRSSy211FJLLb86pKYFCDTxb+19Ss1mzcx9xlQkOpql+k/o1EkayFRo00aH62Ro2FCyaADXX2/V09s5A+fPy1vyHJw+rWf0GTh8mBHyOOzfb3Q2n0Hz8nYMj3lejOPHa/o7A8UvUAFUVQ0j/q28yeidd+r3RjEydCid2YUmJPC4rkMiI6us9wW0gH37JEJaw5YtOoMTkJmZM6PLNbBlC4iImGZNj5Jdgl4Bbt36RR81mzatOzr0MWT8eDVlEoweTVN9B1q1qmn5PETSBo4e1TgehIULzQWhieisWbtyO/1ZjBMnalq8ygg6BejTZ88e1UaNLu03StEpU3iKfjBmDMspQq67rqbls829RKAXLjCI9jBvXlmHy0eRZ5/9UrqKyOnTNS2eRRAogKqqiKsk/wikpXFW+sM//iGjdA385jc1LV3AKKY9HD8u5WqiTz6541zM9WIsWVLTYtWYAsQVF49Ts359MsqWIW++SSZZkJJS0wNSbRzn9/DOO2GtzffggQc+/TQ2VuS//61uMapdAVyzC5JUo6JkgRqwbh11NB3atatuOYKG3jIE/eor42PthAwc+PkX0e+J7NtXXd0b1dVR9475yWrGxclRswX68ce/+om32KZrkfbtK+aSCdu2dW+U96Zq797V1X2VrwDdv99brNqrlzHSGAgffshhzYB69aq6X82UdPj6axmqim7fTrgIUlTEKMaiR4+Sxlzk3DlPhcWMRW+4gUXMRVq3plQVjYjQCTRBeveWV/kLtGhR1XJfPTwah5D+/bM7dokQ+fzzququyhTAs9SPNyfB1q24qAeNGwe8o+/kj1BSIoa+AAsXSn0WwNtvB3opjSvOT1bt0oX/IwPuu09juAdGj5YkTYeWLQP+XWF8BidPGhdYA7ffXlVbQ8AV4Bb9QlUbNqzbLWwY5OYGfKl3TzgbzSdg2rTzXxib0aVLC1KiVotx6VKgv6cyuqzMT1YzLOy6cI2AtDSOcQKZPj3gK8VkWqMHDlQ8c7EIunXbldvdJcaZM4FqPoAKcOU6F/fXgmGQkcFnmg5Dh/rdbBx5oMoppsPs2dcukyh08uRPJGq1GOfPB05+P8V032o0qywZee45yaUUxo4lm2gQ/8dZmYauWpWdE50hRuBuSwFTAFdJ3mHVkSMliXOwaJHf37uJHDh3ziiUDTBixA5X1GqRd98NlLxVjWvj3i2qQ4eC1IfFi+Vp6v747cHxuNwuF2HEiJxXorqLLFvmb3t+K4BluSubH3IPFBb6bcBJYB564gTvaH8YMCB7f8wfxdi50185u922f56aN95Y52+XDkOLFqwLMZBWrSoS9K+gWmdAxUy0pKRCQpshx47ltOo8XuTkSX/7dbXLe05Nl0tSOAbvvccW/ozceKPjBptxFkpLK76+GIpGRvq7JfitAHFN8zaq+eqrtKMF8vjjTtuxfvHSXRuhiYlOJ77H0fxkNTt0qFirBpKaKrOYA0OG0IDjcMstthvqzhF0926dowOQtWvN7tIalizZtSu6ROTAAV/lshSBN7gL2bzZ3xVB50g6+tJLOa6o1WJMnOi0HccKYD3ShO0M3QwHDzq21bv3eFkpcTB06I5vo9qLrF1rt7r1/KvJxkxk6lT+oGfh4Yc5wz4IDXX6fT+jAZ3h8mV9n0nwxhuht1WY6IwZ2/fc8ooY335rtxlra5B35ThkZDg9I+izlMH583QJ2Q5t2zpdsRwbgqzXOb8faQbLDzBrlq8T7yrZ21S1Z099WwYhu3fTR3fA2LEBn3gLd7vSi5Ewblz5gJAyyM93ZRSsV/OOO+w2k/O7mASRNWv0NXbBnDlOxfGsIC3Lx8H48U7bcaAAV97jtTd3wahRjgf0HrbCN9/QLmwXOmWK3Wqu2XvvVU1JkS/ln7BlC8epD+HhjuVwinsvl2vM08jGjXGu/Dw1hw2zWz2sWZ1O6OTJlsHKqRjyv5IFo0db8+JrfZ8rWI4YFHIYWrd2PIBJCjz9dHbHjrPFOHvWW3HLoijtZCAsXsx0boW6dR33HygsOX6v5cjSpXZXhG0nIx8S49w5UnQ2On264/7n0xhuuin+5vwM6NvX1+o+K4DHA8cpbkOOZcDxVtza442W0hIyM4Nm4n/Kf6gDYWGyyGyMrFhhnZG8VbvwmIyDf//bY+ByiMYzxYndxfctoBQgMdGpoJbJ1q7lznO468hX0KyZ036rDfeWFDYv9CTifWuzxkGzeAYWL3bc7x1EQkKCr9VsK4BrWH6yang472o6dOrkVE7LVu+tnHWd85zqf2nczNvwyCPd1+/Zo9q+vbfiOslYgHofl0rJ408QFdUr9ssJatq3w9hWAB0pCWh0tFP59AlmwrFjdh81tJ/ei6SlVdmpvqpxbwnGByGFkJrqrfjOpZ0/EiMvzxonn/tzXycrLoT0RKKi7FazrQAy3jyDREQ4HpA+xML27XaLm5/I32DIEMf9BQsJWoDa/w4JlzWo8+dfraN1fFmh7Z8BVkou2ratU8Fkr4yHwkJv5SyTrSTpeoiNddpf0LCFSOTWW3sczU9W9f4crh14HfE+TpVyrZHsy+urfQVoroeR+vUdC/Y9m1Dvp1zj5vKPkCBy9/YX99KsWWZH1MZ3bdGJ/twGaMg8sD9P9reAzTT1y3a9nfqI9+db/S1zoXlzxwMQpJhrjGLEu5+A9tZU9EeeSr7yPpd9madq8wm0i3zIWFCtaTkC/l0f6xg0+L7L/i0gke/AuQOGrDdL4IYbvJZrr+HoN9/U9MAEGiPX3GrndC/bZAnifZwqZQChvsyT/RXgG2mDejfZVkqEsdROKJeOD+mE+LEHBhuWRxMhhYgNm38RZ1E/TOwp2gzs+wfYV4AUvQ05dMipXPov7WfneuJ51nS/xzseiCBBX5TVkJv7eeuo1SKnTnkrL3dKXX8MbbyuFWB/nuwrgDtM2rFgn7IHevWyPXBuRwzH/QULd+sKsPMdV3wqeUXXIvbH6adIIUPsXLctbCuAFR9/dUnzUTC3t6zHvdoLlgcOd1EO1eftGzDcckv9iong/dGrx9G9U9DoaMfP2+55Kcsqvx3Nz7dbzbYCeBIj3CdPoX6sBG6/em/FLNcrncYymD/fcX81hMZLD5g7N3vdLa+IHDzorXzFfGOmnXGplGhWQH7+7ju6firGd9/Zreb7NdDFt8jmzY4FHcvNMGqU5VfvrbjlemU5Qzrut7pwO7qYU+u8hv79796Kd5hZPE7NunV5RH6HpKU57re9DAbf58V3fwB3RgzHgroTO3gCKrxg+dzpv3QIJCUxjd1QVua4/ypCM1kCFy+SZPSHpCS7iSGaLLtUiowc6W+EkfzWHAVr1vhaz2cF8KRCcWfEcCzwSwxEZszodtvOHDUbNPDab6uY70Q++4x0uRVNTQ0WRbAmXn6QA2hqqt1YPiuQxHxcG8O0aY4FGMMpOHJkh0QDW7f6Wt2BJfBKDhwrFYpjwd2HHWPcNRcQ70ulRXZOVLQYq1YRYcRBv341tjW4l3r5wXgQEhKyO0atFmP1atv1P7lUirzwgt+hZLulFBYscJqbyLEp2MqB44lmdYgVQnU1ksYe1i/t0pOXJ6KxsXRgGMyaVWW3Bne72kbS4fXXK1aEGmhsrK/Ru3HF+clqJiczX9Ph0UediuOJnPofVsKsWU7b8T8wpDivlZovv8z9fIBMmOD4gyw/90f4D5qYmHMwerIYOTm+tmN54HgcMaz3+BdJRrp2tS3P00yE3FzpLPVg7VqeKG8DS5bYPdX/lPiigpZqxsfrevMgbNrktzv9KA7Ciy9mj40eJDJpktNm/FYATzRw49AfoLDQb989d2iYrqQF3H23U0X4KVff4ysi0ZYty98P+cuPn52t0DDLZGvXcucNz8Q/YKYjGzZwiZ7QpInjBi13+qS6BWhkpF2v6soIWHBo/A17z6uZmqqd5RDih3OjG8+KgJ6FtDQroCJQ8lY1nqV+nb4FixYFLMvZY4TC8OHZw6M7ifjhQ+gm4PkBXCV5s1VXrZIk+kFyst8Nui1cViSNFVDh8asPEqzbTMjYa19Enn/e3z3+ZyyTdFixIrtj1GqRe+8NVLMB9wcwB1+MRx96yEp+5HeDbo8aKyTr0pzybKSw0NUrr1TNhx+2a1AKNFa/8fH5yapjxoT86ZocZN++gE98Lh9AcTGEhaNjxgT6O6osRUyPrnl3q3bubF7HUMjK8nvvqwRPLqBHARYtMhsYp9Hlyy0v24B9z9E9T6sZE1MhIV248gvMBP8NOJXiPguZ15uLkD59dk6JPS/ihwm+Eqo8SVRccUGRao8erDPboh99VG0ZP92HJb2OvrB9O8fpiRYVyUpdjBw5ogONVnB1C7EcVjRF0tCbbvI8y1qvc9UUg2idfYy2xmC0f/8dEV2+FmPHjqrqr9ryBHoSJcyUXGTDBmZoOngPnfrVkMP3cOqUeUEbwaBBO+vFdBSx70bvlGrzCbSuc8ZU/R769rWSH1VX/0GLe483nzEToVev6pp4i2p3CrUig0IfrLMKunbVx6QvLF9e3XLUOD0lHdasKbt8eQLExVXVHu+NIEgWfQXXhPydqvffL0V6CV5+ucbi/qsKy4DTmjthwoRA3eP9JWjcwq2sV1byIysHzlWD0C8Ly1ZvmWw9lrsgmXiLoFkBKsNVsm+WapMmVioUT0YMd2KEmpbPg/tZ1nqdsx5pAmVSriqCXgF+jvsvY9wZMTyJEcpJhcREDjEY7EfH2sbyhfyWr6CggIekOWzaZDY3MyAzc2dM9DrIyqr9y5gaxpO97KWwcCQmhiJzBEREWPd7HqET0rjxT0PdPIEvb7AfPXXKshdIuZTD/v1lCy+/hubl+epzV0sttdRSSy211FJLLUHH/wMALuwO3bh8mQAAACV0RVh0ZGF0ZTpjcmVhdGUAMjAyMy0wNS0xMFQxMzoyNToyNyswMDowMJXKS4UAAAAldEVYdGRhdGU6bW9kaWZ5ADIwMjMtMDUtMTBUMTM6MjU6MjcrMDA6MDDkl/M5AAAAKHRFWHRkYXRlOnRpbWVzdGFtcAAyMDIzLTA1LTEwVDEzOjI1OjI3KzAwOjAws4LS5gAAAABJRU5ErkJggg==;" vertex="1" parent="1">
                    <mxGeometry x="320" y="772" width="20" height="20" as="geometry"/>
                </mxCell>
                <mxCell id="113" value="" style="shape=image;verticalLabelPosition=bottom;labelBackgroundColor=default;verticalAlign=top;aspect=fixed;imageAspect=0;image=data:image/png,iVBORw0KGgoAAAANSUhEUgAAAEAAAABAEAYAAAD6+a2dAAAAIGNIUk0AAHomAACAhAAA+gAAAIDoAAB1MAAA6mAAADqYAAAXcJy6UTwAAAAGYktHRAAAAAAAAPlDu38AAAAJcEhZcwAAAGAAAABgAPBrQs8AAAAHdElNRQfnBQoNGRt5dR0pAAAOsElEQVR42u2daXRUVbaAv31DgqIyShMmGYQQyKAIlTApJNJtYzM0MaQVSQAHbFnQrdLykCUQxHZoh1amRlwPaAZlShABtVFAiaAkEBGSEJKHTBGDAs2oBJK73w/qFi5dWXXrViUpl/l+n2Hfc3adYZ+9d0EttdRSSy211FJLLb86pKYFCDTxb+19Ss1mzcx9xlQkOpql+k/o1EkayFRo00aH62Ro2FCyaADXX2/V09s5A+fPy1vyHJw+rWf0GTh8mBHyOOzfb3Q2n0Hz8nYMj3lejOPHa/o7A8UvUAFUVQ0j/q28yeidd+r3RjEydCid2YUmJPC4rkMiI6us9wW0gH37JEJaw5YtOoMTkJmZM6PLNbBlC4iImGZNj5Jdgl4Bbt36RR81mzatOzr0MWT8eDVlEoweTVN9B1q1qmn5PETSBo4e1TgehIULzQWhieisWbtyO/1ZjBMnalq8ygg6BejTZ88e1UaNLu03StEpU3iKfjBmDMspQq67rqbls829RKAXLjCI9jBvXlmHy0eRZ5/9UrqKyOnTNS2eRRAogKqqiKsk/wikpXFW+sM//iGjdA385jc1LV3AKKY9HD8u5WqiTz6541zM9WIsWVLTYtWYAsQVF49Ts359MsqWIW++SSZZkJJS0wNSbRzn9/DOO2GtzffggQc+/TQ2VuS//61uMapdAVyzC5JUo6JkgRqwbh11NB3atatuOYKG3jIE/eor42PthAwc+PkX0e+J7NtXXd0b1dVR9475yWrGxclRswX68ce/+om32KZrkfbtK+aSCdu2dW+U96Zq797V1X2VrwDdv99brNqrlzHSGAgffshhzYB69aq6X82UdPj6axmqim7fTrgIUlTEKMaiR4+Sxlzk3DlPhcWMRW+4gUXMRVq3plQVjYjQCTRBeveWV/kLtGhR1XJfPTwah5D+/bM7dokQ+fzzququyhTAs9SPNyfB1q24qAeNGwe8o+/kj1BSIoa+AAsXSn0WwNtvB3opjSvOT1bt0oX/IwPuu09juAdGj5YkTYeWLQP+XWF8BidPGhdYA7ffXlVbQ8AV4Bb9QlUbNqzbLWwY5OYGfKl3TzgbzSdg2rTzXxib0aVLC1KiVotx6VKgv6cyuqzMT1YzLOy6cI2AtDSOcQKZPj3gK8VkWqMHDlQ8c7EIunXbldvdJcaZM4FqPoAKcOU6F/fXgmGQkcFnmg5Dh/rdbBx5oMoppsPs2dcukyh08uRPJGq1GOfPB05+P8V032o0qywZee45yaUUxo4lm2gQ/8dZmYauWpWdE50hRuBuSwFTAFdJ3mHVkSMliXOwaJHf37uJHDh3ziiUDTBixA5X1GqRd98NlLxVjWvj3i2qQ4eC1IfFi+Vp6v747cHxuNwuF2HEiJxXorqLLFvmb3t+K4BluSubH3IPFBb6bcBJYB564gTvaH8YMCB7f8wfxdi50185u922f56aN95Y52+XDkOLFqwLMZBWrSoS9K+gWmdAxUy0pKRCQpshx47ltOo8XuTkSX/7dbXLe05Nl0tSOAbvvccW/ozceKPjBptxFkpLK76+GIpGRvq7JfitAHFN8zaq+eqrtKMF8vjjTtuxfvHSXRuhiYlOJ77H0fxkNTt0qFirBpKaKrOYA0OG0IDjcMstthvqzhF0926dowOQtWvN7tIalizZtSu6ROTAAV/lshSBN7gL2bzZ3xVB50g6+tJLOa6o1WJMnOi0HccKYD3ShO0M3QwHDzq21bv3eFkpcTB06I5vo9qLrF1rt7r1/KvJxkxk6lT+oGfh4Yc5wz4IDXX6fT+jAZ3h8mV9n0nwxhuht1WY6IwZ2/fc8ooY335rtxlra5B35ThkZDg9I+izlMH583QJ2Q5t2zpdsRwbgqzXOb8faQbLDzBrlq8T7yrZ21S1Z099WwYhu3fTR3fA2LEBn3gLd7vSi5Ewblz5gJAyyM93ZRSsV/OOO+w2k/O7mASRNWv0NXbBnDlOxfGsIC3Lx8H48U7bcaAAV97jtTd3wahRjgf0HrbCN9/QLmwXOmWK3Wqu2XvvVU1JkS/ln7BlC8epD+HhjuVwinsvl2vM08jGjXGu/Dw1hw2zWz2sWZ1O6OTJlsHKqRjyv5IFo0db8+JrfZ8rWI4YFHIYWrd2PIBJCjz9dHbHjrPFOHvWW3HLoijtZCAsXsx0boW6dR33HygsOX6v5cjSpXZXhG0nIx8S49w5UnQ2On264/7n0xhuuin+5vwM6NvX1+o+K4DHA8cpbkOOZcDxVtza442W0hIyM4Nm4n/Kf6gDYWGyyGyMrFhhnZG8VbvwmIyDf//bY+ByiMYzxYndxfctoBQgMdGpoJbJ1q7lznO468hX0KyZ036rDfeWFDYv9CTifWuzxkGzeAYWL3bc7x1EQkKCr9VsK4BrWH6yang472o6dOrkVE7LVu+tnHWd85zqf2nczNvwyCPd1+/Zo9q+vbfiOslYgHofl0rJ408QFdUr9ssJatq3w9hWAB0pCWh0tFP59AlmwrFjdh81tJ/ei6SlVdmpvqpxbwnGByGFkJrqrfjOpZ0/EiMvzxonn/tzXycrLoT0RKKi7FazrQAy3jyDREQ4HpA+xML27XaLm5/I32DIEMf9BQsJWoDa/w4JlzWo8+dfraN1fFmh7Z8BVkou2ratU8Fkr4yHwkJv5SyTrSTpeoiNddpf0LCFSOTWW3sczU9W9f4crh14HfE+TpVyrZHsy+urfQVoroeR+vUdC/Y9m1Dvp1zj5vKPkCBy9/YX99KsWWZH1MZ3bdGJ/twGaMg8sD9P9reAzTT1y3a9nfqI9+db/S1zoXlzxwMQpJhrjGLEu5+A9tZU9EeeSr7yPpd9madq8wm0i3zIWFCtaTkC/l0f6xg0+L7L/i0gke/AuQOGrDdL4IYbvJZrr+HoN9/U9MAEGiPX3GrndC/bZAnifZwqZQChvsyT/RXgG2mDejfZVkqEsdROKJeOD+mE+LEHBhuWRxMhhYgNm38RZ1E/TOwp2gzs+wfYV4AUvQ05dMipXPov7WfneuJ51nS/xzseiCBBX5TVkJv7eeuo1SKnTnkrL3dKXX8MbbyuFWB/nuwrgDtM2rFgn7IHevWyPXBuRwzH/QULd+sKsPMdV3wqeUXXIvbH6adIIUPsXLctbCuAFR9/dUnzUTC3t6zHvdoLlgcOd1EO1eftGzDcckv9iong/dGrx9G9U9DoaMfP2+55Kcsqvx3Nz7dbzbYCeBIj3CdPoX6sBG6/em/FLNcrncYymD/fcX81hMZLD5g7N3vdLa+IHDzorXzFfGOmnXGplGhWQH7+7ju6firGd9/Zreb7NdDFt8jmzY4FHcvNMGqU5VfvrbjlemU5Qzrut7pwO7qYU+u8hv79796Kd5hZPE7NunV5RH6HpKU57re9DAbf58V3fwB3RgzHgroTO3gCKrxg+dzpv3QIJCUxjd1QVua4/ypCM1kCFy+SZPSHpCS7iSGaLLtUiowc6W+EkfzWHAVr1vhaz2cF8KRCcWfEcCzwSwxEZszodtvOHDUbNPDab6uY70Q++4x0uRVNTQ0WRbAmXn6QA2hqqt1YPiuQxHxcG8O0aY4FGMMpOHJkh0QDW7f6Wt2BJfBKDhwrFYpjwd2HHWPcNRcQ70ulRXZOVLQYq1YRYcRBv341tjW4l3r5wXgQEhKyO0atFmP1atv1P7lUirzwgt+hZLulFBYscJqbyLEp2MqB44lmdYgVQnU1ksYe1i/t0pOXJ6KxsXRgGMyaVWW3Bne72kbS4fXXK1aEGmhsrK/Ru3HF+clqJiczX9Ph0UediuOJnPofVsKsWU7b8T8wpDivlZovv8z9fIBMmOD4gyw/90f4D5qYmHMwerIYOTm+tmN54HgcMaz3+BdJRrp2tS3P00yE3FzpLPVg7VqeKG8DS5bYPdX/lPiigpZqxsfrevMgbNrktzv9KA7Ciy9mj40eJDJpktNm/FYATzRw49AfoLDQb989d2iYrqQF3H23U0X4KVff4ysi0ZYty98P+cuPn52t0DDLZGvXcucNz8Q/YKYjGzZwiZ7QpInjBi13+qS6BWhkpF2v6soIWHBo/A17z6uZmqqd5RDih3OjG8+KgJ6FtDQroCJQ8lY1nqV+nb4FixYFLMvZY4TC8OHZw6M7ifjhQ+gm4PkBXCV5s1VXrZIk+kFyst8Nui1cViSNFVDh8asPEqzbTMjYa19Enn/e3z3+ZyyTdFixIrtj1GqRe+8NVLMB9wcwB1+MRx96yEp+5HeDbo8aKyTr0pzybKSw0NUrr1TNhx+2a1AKNFa/8fH5yapjxoT86ZocZN++gE98Lh9AcTGEhaNjxgT6O6osRUyPrnl3q3bubF7HUMjK8nvvqwRPLqBHARYtMhsYp9Hlyy0v24B9z9E9T6sZE1MhIV248gvMBP8NOJXiPguZ15uLkD59dk6JPS/ihwm+Eqo8SVRccUGRao8erDPboh99VG0ZP92HJb2OvrB9O8fpiRYVyUpdjBw5ogONVnB1C7EcVjRF0tCbbvI8y1qvc9UUg2idfYy2xmC0f/8dEV2+FmPHjqrqr9ryBHoSJcyUXGTDBmZoOngPnfrVkMP3cOqUeUEbwaBBO+vFdBSx70bvlGrzCbSuc8ZU/R769rWSH1VX/0GLe483nzEToVev6pp4i2p3CrUig0IfrLMKunbVx6QvLF9e3XLUOD0lHdasKbt8eQLExVXVHu+NIEgWfQXXhPydqvffL0V6CV5+ucbi/qsKy4DTmjthwoRA3eP9JWjcwq2sV1byIysHzlWD0C8Ly1ZvmWw9lrsgmXiLoFkBKsNVsm+WapMmVioUT0YMd2KEmpbPg/tZ1nqdsx5pAmVSriqCXgF+jvsvY9wZMTyJEcpJhcREDjEY7EfH2sbyhfyWr6CggIekOWzaZDY3MyAzc2dM9DrIyqr9y5gaxpO97KWwcCQmhiJzBEREWPd7HqET0rjxT0PdPIEvb7AfPXXKshdIuZTD/v1lCy+/hubl+epzV0sttdRSSy211FJLLUHH/wMALuwO3bh8mQAAACV0RVh0ZGF0ZTpjcmVhdGUAMjAyMy0wNS0xMFQxMzoyNToyNyswMDowMJXKS4UAAAAldEVYdGRhdGU6bW9kaWZ5ADIwMjMtMDUtMTBUMTM6MjU6MjcrMDA6MDDkl/M5AAAAKHRFWHRkYXRlOnRpbWVzdGFtcAAyMDIzLTA1LTEwVDEzOjI1OjI3KzAwOjAws4LS5gAAAABJRU5ErkJggg==;" vertex="1" parent="1">
                    <mxGeometry x="501" y="772" width="20" height="20" as="geometry"/>
                </mxCell>
                <mxCell id="114" value="&lt;b style=&quot;color: rgb(230, 230, 230);&quot;&gt;&lt;font style=&quot;font-size: 26px;&quot;&gt;Jadwal Kereta&lt;/font&gt;&lt;/b&gt;" style="text;html=1;strokeColor=none;fillColor=none;align=center;verticalAlign=middle;whiteSpace=wrap;rounded=0;" vertex="1" parent="1">
                    <mxGeometry x="330" y="200" width="200" height="30" as="geometry"/>
                </mxCell>
            </root>
        </mxGraphModel>
    </diagram>
</mxfile>